<svg width="203" height="203" viewBox="0 0 203 203" fill="none" xmlns="http://www.w3.org/2000/svg">
<path d="M143.115 79.9761C143.115 69.8738 151.534 67.3483 155.911 67.3483C162.974 67.3483 168.371 73.0055 168.371 79.9761L168.371 134.697C168.371 168.371 141.987 185.208 109.441 185.208C76.8949 185.208 65.6982 176.789 40.4426 134.697L27.2171 112.766C22.7048 105.459 26.3163 95.9797 34.6338 93.2858C37.3535 92.3973 40.2807 92.3666 43.0184 93.1979C45.7562 94.0291 48.1721 95.6822 49.9387 97.9328L67.3482 118.137M67.3482 117.859L67.3482 46.4703" stroke="#0094FF" stroke-width="12" stroke-linecap="round" stroke-linejoin="round"/>
<path d="M143.115 92.6039L143.115 63.139C143.115 59.7899 141.785 56.578 139.416 54.2098C137.048 51.8417 133.836 50.5112 130.487 50.5112C127.138 50.5112 123.926 51.8417 121.558 54.2098C119.19 56.578 117.859 59.7899 117.859 63.139L117.859 92.6039L117.859 54.7205C117.859 51.3714 116.529 48.1595 114.161 45.7913C111.793 43.4231 108.581 42.0927 105.232 42.0927C101.883 42.0927 98.6706 43.4231 96.3025 45.7913C93.9343 48.1595 92.6039 51.3714 92.6039 54.7205L92.6039 92.6039L92.6039 21.0464C92.6039 17.6973 91.2734 14.4853 88.9053 12.1172C86.5371 9.749 83.3252 8.41858 79.9761 8.41858C76.627 8.41858 73.415 9.749 71.0469 12.1172C68.6787 14.4853 67.3483 17.6973 67.3483 21.0464L67.3483 92.6039" stroke="#0094FF" stroke-width="12" stroke-linecap="round" stroke-linejoin="round"/>
</svg>
