<svg width="191" height="191" viewBox="0 0 191 191" fill="none" xmlns="http://www.w3.org/2000/svg">
<path d="M92.3565 46.0151L94.1869 27.1618C94.9111 19.5855 101.986 14.4444 109.133 16.2907C119.884 19.0761 127.437 29.0638 127.437 40.5159V64.6694C127.437 70.0413 127.437 72.7312 128.599 74.6969C129.259 75.819 130.167 76.7661 131.249 77.4425C133.159 78.6442 135.761 78.6442 140.958 78.6442H144.11C157.663 78.6442 164.435 78.6442 168.605 81.748C171.733 84.0798 173.937 87.4939 174.813 91.3617C175.975 96.5346 173.372 103.005 168.16 115.929L165.565 122.375C164.06 126.109 163.445 130.141 163.767 134.154C165.613 157.026 147.476 176.293 125.304 175.028L42.3464 170.261C33.2818 169.743 28.7535 169.481 24.6629 165.86C20.5644 162.239 19.7924 158.506 18.2565 151.049C14.9874 135.185 15.1367 118.807 18.6942 103.005C20.9464 93.0727 30.4327 87.7247 40.2294 88.998C66.2054 92.3405 89.7541 72.9222 92.3565 46.0151Z" stroke="#0094FF" stroke-width="12" stroke-linecap="round" stroke-linejoin="round"/>
<path d="M55.7084 91.5208L54.6181 95.1578C47.5599 118.686 47.9407 143.821 55.7084 167.125" stroke="#0094FF" stroke-width="12" stroke-linecap="round" stroke-linejoin="round"/>
</svg>
