<svg width="167" height="167" viewBox="0 0 167 167" fill="none" xmlns="http://www.w3.org/2000/svg">
<path d="M87.1949 11.9614C86.7101 11.4754 86.1342 11.0898 85.5002 10.8267C84.8662 10.5636 84.1865 10.4282 83.5 10.4282C82.8136 10.4282 82.1339 10.5636 81.4998 10.8267C80.8658 11.0898 80.2899 11.4754 79.8051 11.9614L17.1801 74.5864C16.6958 75.0719 16.3119 75.6482 16.0505 76.2822C15.789 76.9162 15.655 77.5955 15.6563 78.2813V151.344C15.6563 152.728 16.2061 154.055 17.1848 155.034C18.1635 156.013 19.4909 156.563 20.875 156.563H67.8438C69.2279 156.563 70.5553 156.013 71.534 155.034C72.5127 154.055 73.0625 152.728 73.0625 151.344V109.594H93.9375V151.344C93.9375 152.728 94.4873 154.055 95.466 155.034C96.4448 156.013 97.7722 156.563 99.1563 156.563H146.125C147.509 156.563 148.837 156.013 149.815 155.034C150.794 154.055 151.344 152.728 151.344 151.344V78.2813C151.345 77.5955 151.211 76.9162 150.95 76.2822C150.688 75.6482 150.304 75.0719 149.82 74.5864L135.688 60.4644V26.0938C135.688 24.7097 135.138 23.3823 134.159 22.4035C133.18 21.4248 131.853 20.875 130.469 20.875H120.031C118.647 20.875 117.32 21.4248 116.341 22.4035C115.362 23.3823 114.813 24.7097 114.813 26.0938V39.5894L87.1949 11.9614ZM26.0938 146.125V80.4418L83.5 23.0356L140.906 80.4418V146.125H104.375V104.375C104.375 102.991 103.825 101.663 102.846 100.685C101.868 99.7061 100.54 99.1563 99.1563 99.1563H67.8438C66.4597 99.1563 65.1323 99.7061 64.1536 100.685C63.1748 101.663 62.625 102.991 62.625 104.375V146.125H26.0938Z" fill="#F83E7D"/>
</svg>
