<svg width="160" height="161" viewBox="0 0 160 161" fill="none" xmlns="http://www.w3.org/2000/svg">
<path d="M6 54.1165C6 41.563 10.9869 29.5235 19.8636 20.6468C28.7403 11.7701 40.7798 6.7832 53.3333 6.7832H106.667C119.22 6.7832 131.26 11.7701 140.136 20.6468C149.013 29.5235 154 41.563 154 54.1165V107.45C154 120.003 149.013 132.043 140.136 140.92C131.26 149.796 119.22 154.783 106.667 154.783H53.3333C40.7798 154.783 28.7403 149.796 19.8636 140.92C10.9869 132.043 6 120.003 6 107.45V54.1165Z" stroke="#F83E7D" stroke-width="12"/>
<path d="M33.3334 60.7832C33.3334 59.0151 34.0358 57.3194 35.286 56.0691C36.5362 54.8189 38.2319 54.1165 40 54.1165H80C85.3044 54.1165 90.3915 56.2237 94.1422 59.9744C97.8929 63.7251 100 68.8122 100 74.1165V100.783C100 102.551 99.2977 104.247 98.0474 105.497C96.7972 106.747 95.1015 107.45 93.3334 107.45H53.3334C48.029 107.45 42.942 105.343 39.1912 101.592C35.4405 97.8413 33.3334 92.7542 33.3334 87.4499V60.7832ZM103.333 79.1299C103.332 75.8978 104.505 72.7753 106.633 70.3432L117.9 57.4632C120.947 53.9965 126.667 56.1432 126.667 60.7565V100.81C126.667 105.43 120.947 107.577 117.907 104.103L106.633 91.2232C104.506 88.7928 103.334 85.6729 103.333 82.4432V79.1299Z" fill="#F83E7D"/>
</svg>
