<svg width="170" height="155" viewBox="0 0 170 155" fill="none" xmlns="http://www.w3.org/2000/svg">
<path d="M162.37 58.1702V23.437C162.37 19.3428 160.743 15.4164 157.848 12.5214C154.953 9.62639 151.027 8 146.933 8H23.437C19.3428 8 15.4164 9.62639 12.5214 12.5214C9.62639 15.4164 8 19.3428 8 23.437V116.059C8 124.549 14.9466 131.496 23.437 131.496H119.918" stroke="#0045F1" stroke-width="15" stroke-linecap="round" stroke-linejoin="round"/>
<path d="M162.37 31.1555L93.1349 75.1509C90.752 76.6439 87.9969 77.4357 85.1849 77.4357C82.3729 77.4357 79.6178 76.6439 77.2349 75.1509L8 31.1555M146.933 85.1849V116.059M146.933 146.933V147.01" stroke="#0045F1" stroke-width="15" stroke-linecap="round" stroke-linejoin="round"/>
</svg>
