<svg width="76" height="81" viewBox="0 0 76 81" fill="none" xmlns="http://www.w3.org/2000/svg">
<path d="M17.1559 33.5077C17.8565 36.7396 19.453 42.3411 22.3349 43.9954C22.3349 43.9954 19.3339 38.2555 25.6839 27.7015C28.2409 23.4526 27.6851 19.0104 25.4014 16.2974C24.1057 14.7612 22.3264 13.7271 20.8633 13.0783C20.0083 12.695 20.1836 11.5373 21.1502 11.2568C26.9999 9.56871 36.8255 7.87333 43.7016 15.303C46.7196 18.5645 48.1637 22.49 48.6694 26.8007C48.9964 29.5525 49.021 35.9028 53.5296 35.1891C56.7478 34.6808 57.5194 32.0663 57.6742 30.3171C57.7384 29.5893 58.6404 29.1138 59.3242 29.4512C66.1815 32.8817 68.6268 38.7887 69.2878 44.3526C70.5644 55.1081 61.3564 66.296 49.7948 70.1279C35.3517 74.9148 21.4538 71.4818 14.1272 59.3585C11.1723 54.4637 8.31045 43.7892 15.1728 33.3103C15.6802 32.5269 16.9739 32.645 17.1559 33.5077Z" fill="url(#paint0_radial_1470_6699)"/>
<path d="M46.859 44.7505C39.5444 40.5086 39.6567 32.8652 40.0576 29.7012C40.1142 29.2836 39.5334 29.1001 39.2376 29.4432C37.4001 31.5677 33.7738 36.3362 33.0882 41.583C32.1569 48.6774 33.3597 51.6005 36.3223 54.6752C38.1065 56.5281 37.0372 57.401 36.4495 57.6869C35.8793 57.9671 35.213 57.8005 34.653 57.5816C33.0368 56.937 31.6885 55.8844 30.7594 54.5419C30.5602 54.2547 30.0569 54.3246 29.9269 54.6583C28.9455 57.1885 29.1528 60.658 29.8588 62.9252C32.0388 69.9342 40.476 73.4052 48.4179 70.773C58.4274 67.4555 62.5035 55.3362 54.0637 49.1313C51.6118 47.323 49.53 46.2981 46.859 44.7505Z" fill="url(#paint1_radial_1470_6699)"/>
<defs>
<radialGradient id="paint0_radial_1470_6699" cx="0" cy="0" r="1" gradientUnits="userSpaceOnUse" gradientTransform="translate(46.9871 71.2356) rotate(161.881) scale(43.554 62.6385)">
<stop offset="0.972" stop-color="#0045F1"/>
</radialGradient>
<radialGradient id="paint1_radial_1470_6699" cx="0" cy="0" r="1" gradientUnits="userSpaceOnUse" gradientTransform="translate(37.0682 34.6851) rotate(72.3234) scale(39.9439 34.2951)">
<stop offset="0.91" stop-color="white"/>
</radialGradient>
</defs>
</svg>
