<svg viewBox="0 0 47 36" fill="none" xmlns="http://www.w3.org/2000/svg">
<path d="M24.1737 18.4659C25.3152 17.4878 26.2307 16.2781 26.8582 14.9189C27.4857 13.5596 27.8105 12.0827 27.8105 10.5882C27.8105 7.78006 26.6836 5.0869 24.6776 3.10122C22.6716 1.11554 19.951 3.7887e-07 17.1141 3.7887e-07C14.2773 3.7887e-07 11.5566 1.11554 9.55069 3.10122C7.54474 5.0869 6.41781 7.78006 6.41781 10.5882C6.41779 12.0827 6.74255 13.5596 7.37005 14.9189C7.99755 16.2781 8.9131 17.4878 10.0546 18.4659C7.05988 19.8082 4.51913 21.9759 2.73608 24.7099C0.953034 27.4438 0.00314869 30.6282 0 33.8824C0 34.444 0.225386 34.9826 0.626577 35.3798C1.02777 35.7769 1.5719 36 2.13927 36C2.70664 36 3.25077 35.7769 3.65196 35.3798C4.05315 34.9826 4.27854 34.444 4.27854 33.8824C4.27854 30.5125 5.63086 27.2808 8.038 24.8979C10.4451 22.5151 13.7099 21.1765 17.1141 21.1765C20.5184 21.1765 23.7831 22.5151 26.1903 24.8979C28.5974 27.2808 29.9498 30.5125 29.9498 33.8824C29.9498 34.444 30.1751 34.9826 30.5763 35.3798C30.9775 35.7769 31.5217 36 32.089 36C32.6564 36 33.2005 35.7769 33.6017 35.3798C34.0029 34.9826 34.2283 34.444 34.2283 33.8824C34.2251 30.6282 33.2753 27.4438 31.4922 24.7099C29.7092 21.9759 27.1684 19.8082 24.1737 18.4659ZM17.1141 16.9412C15.8448 16.9412 14.604 16.5686 13.5486 15.8705C12.4932 15.1724 11.6706 14.1802 11.1849 13.0194C10.6991 11.8586 10.572 10.5812 10.8197 9.34884C11.0673 8.11649 11.6785 6.9845 12.5761 6.09603C13.4736 5.20755 14.6172 4.60249 15.8621 4.35737C17.107 4.11224 18.3974 4.23805 19.5701 4.71888C20.7428 5.19972 21.7452 6.014 22.4504 7.05873C23.1556 8.10347 23.532 9.33174 23.532 10.5882C23.532 12.2731 22.8558 13.889 21.6522 15.0804C20.4487 16.2719 18.8163 16.9412 17.1141 16.9412ZM37.9506 17.6188C39.3197 16.0927 40.214 14.2074 40.5259 12.1899C40.8378 10.1724 40.554 8.10863 39.7086 6.24706C38.8632 4.38549 37.4924 2.80545 35.761 1.69713C34.0297 0.588812 32.0116 -0.000545506 29.9498 3.7887e-07C29.3824 3.7887e-07 28.8383 0.223109 28.4371 0.620245C28.0359 1.01738 27.8105 1.55601 27.8105 2.11765C27.8105 2.67928 28.0359 3.21791 28.4371 3.61505C28.8383 4.01219 29.3824 4.23529 29.9498 4.23529C31.6519 4.23529 33.2843 4.90462 34.4878 6.09603C35.6914 7.28744 36.3676 8.90333 36.3676 10.5882C36.3645 11.7005 36.0666 12.7925 35.5034 13.755C34.9403 14.7175 34.1318 15.5168 33.1587 16.0729C32.8415 16.254 32.5766 16.5127 32.3893 16.8242C32.202 17.1356 32.0986 17.4894 32.089 17.8518C32.0801 18.2113 32.1638 18.5671 32.3322 18.8857C32.5006 19.2043 32.7482 19.4753 33.0517 19.6729L33.886 20.2235L34.1641 20.3718C36.7428 21.5825 38.9182 23.4974 40.4343 25.891C41.9503 28.2846 42.7438 31.0573 42.7212 33.8824C42.7212 34.444 42.9466 34.9826 43.3478 35.3798C43.749 35.7769 44.2931 36 44.8605 36C45.4278 36 45.972 35.7769 46.3731 35.3798C46.7743 34.9826 46.9997 34.444 46.9997 33.8824C47.0172 30.6327 46.195 27.4325 44.6112 24.586C43.0273 21.7395 40.7345 19.3411 37.9506 17.6188Z" fill="#fff"/>
</svg>
