<svg width="177" height="177" viewBox="0 0 177 177" fill="none" xmlns="http://www.w3.org/2000/svg">
<path d="M140.125 77.4375L158.562 110.625L140.125 114.312V136.438H129.062L106.938 132.75L103.25 158.562H47.9375L40.5625 120.283C29.205 109.53 22.125 94.3115 22.125 77.4375C22.125 44.8511 48.5386 18.4375 81.125 18.4375C113.711 18.4375 140.125 44.8511 140.125 77.4375Z" stroke="#0045F1" stroke-width="12" stroke-linecap="round" stroke-linejoin="round"/>
<path d="M62.6875 70.0625C62.6875 66.4159 63.7688 62.8512 65.7948 59.8192C67.8207 56.7872 70.7003 54.424 74.0693 53.0285C77.4383 51.633 81.1455 51.2679 84.722 51.9793C88.2985 52.6907 91.5838 54.4467 94.1623 57.0252C96.7408 59.6038 98.4968 62.889 99.2082 66.4655C99.9196 70.0421 99.5545 73.7492 98.159 77.1182C96.7635 80.4873 94.4004 83.3668 91.3683 85.3927C88.3363 87.4187 84.7716 88.5 81.125 88.5V99.5625M81.125 121.688V125.375" stroke="#0045F1" stroke-width="12" stroke-linecap="round" stroke-linejoin="round"/>
</svg>
