<svg viewBox="0 0 61 13" fill="none" xmlns="http://www.w3.org/2000/svg">
<path d="M30 13C33.866 13 37 10.0899 37 6.5C37 2.91015 33.866 0 30 0C26.134 0 23 2.91015 23 6.5C23 10.0899 26.134 13 30 13Z" fill="#fff"/>
<path d="M6.5 13C10.0899 13 13 10.0899 13 6.5C13 2.91015 10.0899 0 6.5 0C2.91015 0 0 2.91015 0 6.5C0 10.0899 2.91015 13 6.5 13Z" fill="#fff"/>
<path d="M54.5 13C58.0899 13 61 10.0899 61 6.5C61 2.91015 58.0899 0 54.5 0C50.9101 0 48 2.91015 48 6.5C48 10.0899 50.9101 13 54.5 13Z" fill="#fff"/>
</svg>
