<svg width="194" height="194" viewBox="0 0 194 194" fill="none" xmlns="http://www.w3.org/2000/svg">
<path d="M56.5834 145.5V137.417C56.5834 126.697 60.8415 116.417 68.4211 108.838C76.0007 101.258 86.2809 97 97 97M97 97C107.719 97 117.999 101.258 125.579 108.838C133.159 116.417 137.417 126.697 137.417 137.417V145.5M97 97C103.432 97 109.6 94.4451 114.147 89.8973C118.695 85.3496 121.25 79.1815 121.25 72.75C121.25 66.3185 118.695 60.1504 114.147 55.6027C109.6 51.0549 103.432 48.5 97 48.5C90.5685 48.5 84.4005 51.0549 79.8527 55.6027C75.3049 60.1504 72.75 66.3185 72.75 72.75C72.75 79.1815 75.3049 85.3496 79.8527 89.8973C84.4005 94.4451 90.5685 97 97 97ZM8.08337 145.5V137.417C8.08337 130.985 10.6383 124.817 15.186 120.269C19.7338 115.722 25.9019 113.167 32.3334 113.167M32.3334 113.167C36.621 113.167 40.7331 111.463 43.7649 108.432C46.7968 105.4 48.5 101.288 48.5 97C48.5 92.7123 46.7968 88.6003 43.7649 85.5684C40.7331 82.5366 36.621 80.8333 32.3334 80.8333C28.0457 80.8333 23.9337 82.5366 20.9018 85.5684C17.87 88.6003 16.1667 92.7123 16.1667 97C16.1667 101.288 17.87 105.4 20.9018 108.432C23.9337 111.463 28.0457 113.167 32.3334 113.167ZM185.917 145.5V137.417C185.917 130.985 183.362 124.817 178.814 120.269C174.266 115.722 168.098 113.167 161.667 113.167M161.667 113.167C165.954 113.167 170.066 111.463 173.098 108.432C176.13 105.4 177.833 101.288 177.833 97C177.833 92.7123 176.13 88.6003 173.098 85.5684C170.066 82.5366 165.954 80.8333 161.667 80.8333C157.379 80.8333 153.267 82.5366 150.235 85.5684C147.203 88.6003 145.5 92.7123 145.5 97C145.5 101.288 147.203 105.4 150.235 108.432C153.267 111.463 157.379 113.167 161.667 113.167Z" stroke="#0094FF" stroke-width="12" stroke-linecap="round" stroke-linejoin="round"/>
</svg>
