<svg viewBox="0 0 40 44" fill="none" xmlns="http://www.w3.org/2000/svg">
<path d="M37.7777 13.2368L24.4445 1.67864C23.2222 0.597634 21.6399 0 20.0001 0C18.3602 0 16.7779 0.597634 15.5557 1.67864L2.22242 13.2368C1.51657 13.861 0.953315 14.6268 0.570144 15.4831C0.186973 16.3393 -0.00731675 17.2665 0.000210652 18.2029V37.4079C0.000210652 39.1562 0.702585 40.833 1.95282 42.0692C3.20305 43.3055 4.89873 44 6.66683 44H33.3333C35.1014 44 36.7971 43.3055 38.0473 42.0692C39.2976 40.833 39.9999 39.1562 39.9999 37.4079V18.1809C40.0043 17.2483 39.8085 16.3253 39.4254 15.473C39.0423 14.6208 38.4807 13.8586 37.7777 13.2368ZM24.4445 39.6053H15.5557V28.6184C15.5557 28.0356 15.7898 27.4767 16.2065 27.0646C16.6233 26.6525 17.1885 26.421 17.7779 26.421H22.2223C22.8116 26.421 23.3769 26.6525 23.7936 27.0646C24.2104 27.4767 24.4445 28.0356 24.4445 28.6184V39.6053ZM35.5555 37.4079C35.5555 37.9907 35.3214 38.5496 34.9046 38.9617C34.4879 39.3738 33.9227 39.6053 33.3333 39.6053H28.8889V28.6184C28.8889 26.8701 28.1865 25.1933 26.9363 23.9571C25.6861 22.7208 23.9904 22.0263 22.2223 22.0263H17.7779C16.0098 22.0263 14.3141 22.7208 13.0638 23.9571C11.8136 25.1933 11.1112 26.8701 11.1112 28.6184V39.6053H6.66683C6.07746 39.6053 5.51224 39.3738 5.09549 38.9617C4.67875 38.5496 4.44462 37.9907 4.44462 37.4079V18.1809C4.44502 17.8689 4.51261 17.5606 4.64288 17.2764C4.77316 16.9923 4.96313 16.7388 5.20017 16.5329L18.5334 4.99667C18.9389 4.64439 19.4603 4.45011 20.0001 4.45011C20.5399 4.45011 21.0612 4.64439 21.4667 4.99667L34.8 16.5329C35.037 16.7388 35.227 16.9923 35.3573 17.2764C35.4875 17.5606 35.5551 17.8689 35.5555 18.1809V37.4079Z" fill="#113170"/>
</svg>
