<svg viewBox="0 0 48 48" fill="none" xmlns="http://www.w3.org/2000/svg">
<path d="M24 0C19.3363 0.00885323 14.7758 1.37257 10.874 3.92503C6.97224 6.47749 3.89757 10.1085 2.02452 14.3759C0.15147 18.6433 -0.439117 23.3628 0.324694 27.9595C1.08851 32.5563 3.17375 36.8319 6.32643 40.2656C8.57812 42.7043 11.311 44.6505 14.3527 45.9816C17.3945 47.3128 20.6792 48 24 48C27.3208 48 30.6055 47.3128 33.6473 45.9816C36.689 44.6505 39.4219 42.7043 41.6736 40.2656C44.8263 36.8319 46.9115 32.5563 47.6753 27.9595C48.4391 23.3628 47.8485 18.6433 45.9755 14.3759C44.1024 10.1085 41.0278 6.47749 37.126 3.92503C33.2242 1.37257 28.6637 0.00885323 24 0ZM24 43.2447C19.0189 43.2371 14.2348 41.2994 10.6547 37.8391C11.7416 35.1953 13.5907 32.934 15.9669 31.3425C18.3432 29.7511 21.1393 28.9014 24 28.9014C26.8607 28.9014 29.6568 29.7511 32.0331 31.3425C34.4093 32.934 36.2584 35.1953 37.3453 37.8391C33.7651 41.2994 28.9811 43.2371 24 43.2447ZM19.1909 19.2199C19.1909 18.2695 19.4729 17.3405 20.0014 16.5504C20.5298 15.7602 21.2809 15.1443 22.1596 14.7807C23.0384 14.417 24.0053 14.3218 24.9382 14.5072C25.8711 14.6926 26.728 15.1503 27.4006 15.8222C28.0731 16.4942 28.5312 17.3504 28.7167 18.2825C28.9023 19.2145 28.8071 20.1807 28.4431 21.0586C28.0791 21.9366 27.4627 22.6871 26.6718 23.215C25.881 23.743 24.9512 24.0248 24 24.0248C22.7245 24.0248 21.5013 23.5186 20.5994 22.6175C19.6975 21.7164 19.1909 20.4942 19.1909 19.2199ZM40.6156 33.6348C38.4672 29.9632 35.1606 27.1073 31.2137 25.5144C32.438 24.1273 33.2358 22.4167 33.5112 20.5879C33.7866 18.7591 33.528 16.8897 32.7665 15.2041C32.0049 13.5185 30.7727 12.0882 29.2177 11.085C27.6627 10.0817 25.851 9.54807 24 9.54807C22.149 9.54807 20.3373 10.0817 18.7823 11.085C17.2273 12.0882 15.9951 13.5185 15.2335 15.2041C14.472 16.8897 14.2134 18.7591 14.4888 20.5879C14.7642 22.4167 15.562 24.1273 16.7863 25.5144C12.8394 27.1073 9.53285 29.9632 7.38444 33.6348C5.67225 30.7208 4.7676 27.4038 4.76346 24.0248C4.76346 18.9274 6.79016 14.0388 10.3977 10.4343C14.0053 6.82991 18.8982 4.80497 24 4.80497C29.1018 4.80497 33.9947 6.82991 37.6023 10.4343C41.2098 14.0388 43.2365 18.9274 43.2365 24.0248C43.2324 27.4038 42.3277 30.7208 40.6156 33.6348Z" fill="white"/>
</svg>
