<svg width="189" height="189" viewBox="0 0 189 189" fill="none" xmlns="http://www.w3.org/2000/svg">
<path d="M94.5 59.0625C100.406 35.7476 122.713 23.8428 171.281 23.625C172.058 23.6221 172.827 23.7728 173.545 24.0686C174.263 24.3644 174.915 24.7993 175.464 25.3484C176.013 25.8974 176.448 26.5496 176.744 27.2675C177.04 27.9854 177.19 28.7548 177.188 29.5312V135.844C177.188 137.41 176.565 138.912 175.458 140.02C174.35 141.128 172.848 141.75 171.281 141.75C124.031 141.75 105.777 151.278 94.5 165.375M94.5 59.0625C88.5938 35.7476 66.2866 23.8428 17.7188 23.625C16.9424 23.6221 16.173 23.7728 15.4551 24.0686C14.7372 24.3644 14.0849 24.7993 13.5359 25.3484C12.9869 25.8974 12.5519 26.5496 12.2562 27.2675C11.9604 27.9854 11.8096 28.7548 11.8125 29.5312V135.131C11.8125 138.778 14.0717 141.75 17.7188 141.75C64.9688 141.75 83.2892 151.348 94.5 165.375M94.5 59.0625V165.375" stroke="#0094FF" stroke-width="12" stroke-linecap="round" stroke-linejoin="round"/>
</svg>
