<svg width="165" height="116" viewBox="0 0 165 116" fill="none" xmlns="http://www.w3.org/2000/svg">
<path d="M79.8676 24.5932L67.4724 36.7577C67.2471 36.5912 67.0323 36.4112 66.8292 36.2188C63.1262 32.581 59.4037 28.9432 55.7397 25.2477C54.9407 24.42 54.4535 24.497 53.6934 25.2477C43.4289 35.4489 33.145 45.6373 22.8416 55.8128C21.3604 57.2756 19.8402 58.6807 18.4175 60.2013C17.9332 60.7319 17.6507 61.4123 17.6184 62.126C17.6184 73.8285 17.6184 85.5503 17.6184 97.2721C17.6184 98.2922 17.8913 98.6579 18.9827 98.6579H90.7622C91.8341 98.6579 92.146 98.2922 92.146 97.2721C92.146 85.5888 92.146 73.9248 92.146 62.2415C92.1124 61.632 91.8642 61.0534 91.4444 60.6055C89.7098 58.777 87.8973 57.0254 86.0653 55.2931C85.4026 54.658 85.3831 54.2345 86.0653 53.5609C89.9631 49.7113 93.6856 45.8618 97.603 41.8583L105.009 49.2687C106.354 50.616 107.757 51.9248 109.063 53.3299C109.453 53.753 109.681 54.2979 109.706 54.8697C109.706 74.8102 109.706 94.7507 109.706 114.691C109.706 115.788 109.355 116 108.342 116H1.42275C0.292363 116 0 115.673 0 114.595C0 94.7314 0 74.8743 0 55.0237C0.0168113 54.3103 0.293658 53.6269 0.779624 53.0989C18.424 35.5964 36.0685 18.1132 53.7129 0.649244C54.356 0.0140743 54.8043 -0.351604 55.6618 0.49529C63.4576 8.19432 71.2534 15.8934 79.0491 23.5924C79.3415 23.9388 79.5948 24.3045 79.8676 24.5932Z" fill="#0045F1"/>
<path d="M164.879 84.7804V113.979C164.879 115.711 164.879 115.711 163.183 115.711H115.454C113.778 115.711 113.778 115.711 113.778 114.095C113.778 109.398 113.778 104.721 113.778 100.025C113.778 98.9467 114.051 98.6195 115.181 98.6195C125.374 98.6195 135.567 98.6195 145.76 98.6195C147.416 98.6195 147.416 98.6195 147.416 96.9834V62.3378C147.45 61.9484 147.396 61.5565 147.258 61.1903C147.12 60.8242 146.901 60.4929 146.617 60.2205C134.924 48.672 123.23 37.1234 111.536 25.5749C110.114 24.1698 110.075 24.1698 108.671 25.5749C96.9778 37.1234 85.3167 48.672 73.688 60.2205C73.1595 60.7882 72.8611 61.5282 72.8499 62.2993C72.8499 72.6929 72.8499 83.0995 72.8499 93.5188C72.8499 94.6544 72.5576 95.0009 71.3688 94.9817C66.4574 94.9817 61.5461 94.9817 56.6348 94.9817C55.3679 94.9817 55.1145 94.5775 55.1145 93.4226C55.1145 80.8219 55.1145 68.2275 55.1145 55.6396C55.1017 55.1917 55.1875 54.7463 55.3658 54.3343C55.5441 53.9223 55.8109 53.5533 56.1475 53.2529C69.5562 40.0747 82.952 26.8773 96.3347 13.6606C100.564 9.48391 104.852 5.32643 109.042 1.09196C109.938 0.187325 110.387 0.302811 111.225 1.09196C123.386 13.1409 135.567 25.1707 147.767 37.1812C153.127 42.455 158.447 47.7674 163.827 53.0027C164.217 53.3631 164.523 53.8026 164.725 54.291C164.927 54.7793 165.019 55.3051 164.996 55.8321C164.905 65.4816 164.866 75.131 164.879 84.7804Z" fill="#F83E7D"/>
</svg>
