<svg width="194" height="194" viewBox="0 0 194 194" fill="none" xmlns="http://www.w3.org/2000/svg">
<path d="M79.2167 131.556C77.6 129.94 76.824 127.986 76.8887 125.696C76.9587 123.406 77.8021 121.452 79.4187 119.835L94.1708 105.083H32.3333C30.0431 105.083 28.1246 104.307 26.578 102.755C25.026 101.209 24.25 99.2903 24.25 97C24.25 94.7097 25.026 92.7886 26.578 91.2366C28.1246 89.69 30.0431 88.9167 32.3333 88.9167H94.1708L79.2167 73.9625C77.6 72.3458 76.7917 70.4274 76.7917 68.2072C76.7917 65.9816 77.6 64.0604 79.2167 62.4437C80.8333 60.8271 82.7545 60.0187 84.9801 60.0187C87.2003 60.0187 89.1188 60.8271 90.7354 62.4437L119.633 91.3417C120.442 92.15 121.016 93.0257 121.355 93.9688C121.689 94.9118 121.856 95.9222 121.856 97C121.856 98.0778 121.689 99.0882 121.355 100.031C121.016 100.974 120.442 101.85 119.633 102.658L90.5333 131.758C89.0514 133.24 87.2003 133.981 84.9801 133.981C82.7545 133.981 80.8333 133.173 79.2167 131.556ZM40.4167 169.75C35.9708 169.75 32.1636 168.168 28.9949 165.005C25.8316 161.836 24.25 158.029 24.25 153.583V129.333C24.25 127.043 25.026 125.122 26.578 123.57C28.1246 122.023 30.0431 121.25 32.3333 121.25C34.6236 121.25 36.5447 122.023 38.0967 123.57C39.6434 125.122 40.4167 127.043 40.4167 129.333V153.583H153.583V40.4167H40.4167V64.6667C40.4167 66.9569 39.6434 68.8754 38.0967 70.422C36.5447 71.974 34.6236 72.75 32.3333 72.75C30.0431 72.75 28.1246 71.974 26.578 70.422C25.026 68.8754 24.25 66.9569 24.25 64.6667V40.4167C24.25 35.9708 25.8316 32.1636 28.9949 28.9949C32.1636 25.8316 35.9708 24.25 40.4167 24.25H153.583C158.029 24.25 161.836 25.8316 165.005 28.9949C168.168 32.1636 169.75 35.9708 169.75 40.4167V153.583C169.75 158.029 168.168 161.836 165.005 165.005C161.836 168.168 158.029 169.75 153.583 169.75H40.4167Z" fill="#113170"/>
</svg>
