<svg width="185" height="185" viewBox="0 0 185 185" fill="none" xmlns="http://www.w3.org/2000/svg">
<path d="M81.7083 106.375L64.9427 89.6094C63.5295 88.1962 61.7643 87.523 59.647 87.5898C57.5247 87.6515 55.7569 88.3889 54.3437 89.8021C52.9305 91.2153 52.2239 93.0139 52.2239 95.1979C52.2239 97.382 52.9305 99.1806 54.3437 100.594L76.3125 122.563C77.7257 123.976 79.5243 124.682 81.7083 124.682C83.8923 124.682 85.6909 123.976 87.1041 122.563L130.849 78.8177C132.262 77.4045 132.938 75.6367 132.876 73.5144C132.809 71.3972 132.069 69.632 130.656 68.2188C129.243 66.8056 127.444 66.099 125.26 66.099C123.076 66.099 121.278 66.8056 119.865 68.2188L81.7083 106.375ZM92.5 169.583C81.8368 169.583 71.8159 167.559 62.4375 163.509C53.059 159.465 44.901 153.974 37.9635 147.036C31.026 140.099 25.5351 131.941 21.4908 122.563C17.4413 113.184 15.4166 103.163 15.4166 92.5C15.4166 81.8368 17.4413 71.816 21.4908 62.4375C25.5351 53.059 31.026 44.901 37.9635 37.9635C44.901 31.026 53.059 25.5326 62.4375 21.4831C71.8159 17.4388 81.8368 15.4167 92.5 15.4167C103.163 15.4167 113.184 17.4388 122.562 21.4831C131.941 25.5326 140.099 31.026 147.036 37.9635C153.974 44.901 159.465 53.059 163.509 62.4375C167.559 71.816 169.583 81.8368 169.583 92.5C169.583 103.163 167.559 113.184 163.509 122.563C159.465 131.941 153.974 140.099 147.036 147.036C140.099 153.974 131.941 159.465 122.562 163.509C113.184 167.559 103.163 169.583 92.5 169.583ZM92.5 154.167C109.587 154.167 124.138 148.162 136.152 136.152C148.162 124.138 154.167 109.587 154.167 92.5C154.167 75.4132 148.162 60.8624 136.152 48.8477C124.138 36.8381 109.587 30.8333 92.5 30.8333C75.4132 30.8333 60.865 36.8381 48.8554 48.8477C36.8407 60.8624 30.8333 75.4132 30.8333 92.5C30.8333 109.587 36.8407 124.138 48.8554 136.152C60.865 148.162 75.4132 154.167 92.5 154.167Z" fill="#113170"/>
</svg>
