<svg width="205" height="205" viewBox="0 0 205 205" fill="none" xmlns="http://www.w3.org/2000/svg">
<path d="M200.729 145.208L158.021 187.917L128.125 158.021L140.938 145.208L158.021 162.292L187.917 132.396L200.729 145.208ZM175.104 93.9583C180.768 93.9583 186.199 96.2081 190.204 100.213C194.209 104.218 196.458 109.649 196.458 115.313C196.458 117.96 195.946 120.523 195.092 122.915C186.208 115.313 174.763 111.042 162.292 111.042C134.019 111.042 111.042 134.019 111.042 162.292V166.904C107.967 158.021 99.5105 152.042 89.6875 152.042C76.875 152.042 66.625 162.292 66.625 175.104V187.917H34.1667C24.7709 187.917 17.0834 180.229 17.0834 170.833V138.375H29.8959C42.7084 138.375 52.9584 128.125 52.9584 115.313C52.9584 102.5 42.7084 92.25 29.8959 92.25H17.0834V59.7917C17.0834 55.2609 18.8832 50.9157 22.087 47.7119C25.2907 44.5082 29.6359 42.7083 34.1667 42.7083H68.3334V29.8958C68.3334 18.1083 77.9 8.5246 89.6875 8.5246C101.475 8.5246 111.042 18.1083 111.042 29.8958V42.7083H145.208C149.739 42.7083 154.084 44.5082 157.288 47.7119C160.492 50.9157 162.292 55.2609 162.292 59.7917V93.9583H175.104Z" fill="#113170"/>
</svg>
