<svg viewBox="0 0 500 320" fill="none" xmlns="http://www.w3.org/2000/svg">
<rect id="Rectangle 4380" width="500" height="320" rx="20" fill="#E3E7EF"/>
<path id="Vector" d="M256 130.375C256 138.431 252.681 146.157 246.774 151.853C240.866 157.55 232.854 160.75 224.5 160.75C216.146 160.75 208.134 157.55 202.226 151.853C196.319 146.157 193 138.431 193 130.375C193 122.319 196.319 114.593 202.226 108.897C208.134 103.2 216.146 100 224.5 100C232.854 100 240.866 103.2 246.774 108.897C252.681 114.593 256 122.319 256 130.375ZM228 116.875C228 115.98 227.631 115.121 226.975 114.489C226.318 113.856 225.428 113.5 224.5 113.5C223.572 113.5 222.682 113.856 222.025 114.489C221.369 115.121 221 115.98 221 116.875V127H210.5C209.572 127 208.682 127.356 208.025 127.989C207.369 128.621 207 129.48 207 130.375C207 131.27 207.369 132.129 208.025 132.761C208.682 133.394 209.572 133.75 210.5 133.75H221V143.875C221 144.77 221.369 145.629 222.025 146.261C222.682 146.894 223.572 147.25 224.5 147.25C225.428 147.25 226.318 146.894 226.975 146.261C227.631 145.629 228 144.77 228 143.875V133.75H238.5C239.428 133.75 240.318 133.394 240.975 132.761C241.631 132.129 242 131.27 242 130.375C242 129.48 241.631 128.621 240.975 127.989C240.318 127.356 239.428 127 238.5 127H228V116.875ZM224.5 167.5C231.09 167.501 237.57 165.871 243.32 162.766C249.069 159.661 253.896 155.185 257.338 149.766C260.78 144.347 262.722 138.167 262.978 131.817C263.234 125.467 261.795 119.16 258.8 113.5H284C289.57 113.5 294.911 115.633 298.849 119.431C302.788 123.229 305 128.379 305 133.75V187.75C305 192.137 303.558 196.187 301.101 199.508L263.371 163.68C261.407 161.814 258.76 160.769 256.003 160.769C253.247 160.769 250.6 161.814 248.636 163.68L210.906 199.508C208.36 196.08 206.994 191.967 207 187.75V163.45C212.25 166.042 218.2 167.5 224.5 167.5ZM273.5 147.25C274.428 147.25 275.318 146.894 275.975 146.261C276.631 145.629 277 144.77 277 143.875C277 142.98 276.631 142.121 275.975 141.489C275.318 140.856 274.428 140.5 273.5 140.5C272.572 140.5 271.682 140.856 271.025 141.489C270.369 142.121 270 142.98 270 143.875C270 144.77 270.369 145.629 271.025 146.261C271.682 146.894 272.572 147.25 273.5 147.25ZM273.5 154C276.285 154 278.955 152.933 280.925 151.034C282.894 149.136 284 146.56 284 143.875C284 141.19 282.894 138.614 280.925 136.716C278.955 134.817 276.285 133.75 273.5 133.75C270.715 133.75 268.045 134.817 266.075 136.716C264.106 138.614 263 141.19 263 143.875C263 146.56 264.106 149.136 266.075 151.034C268.045 152.933 270.715 154 273.5 154ZM215.855 204.274C219.285 206.623 223.478 208 228 208H284C288.522 208 292.715 206.623 296.145 204.274L258.457 168.499C257.802 167.877 256.92 167.528 256 167.528C255.08 167.528 254.198 167.877 253.543 168.499L215.855 204.274Z" fill="#AEB5C4"/>
</svg>
