<svg width="172" height="171" viewBox="0 0 172 171" fill="none" xmlns="http://www.w3.org/2000/svg">
<path d="M26.7188 18.7031V141.609C26.7188 143.084 27.9158 144.281 29.3906 144.281H63.27C65.3959 144.281 67.4347 145.126 68.9379 146.629C70.4411 148.132 71.2856 150.171 71.2856 152.297C71.2856 154.423 70.4411 156.462 68.9379 157.965C67.4347 159.468 65.3959 160.312 63.27 160.312H29.3906C24.4302 160.312 19.673 158.342 16.1655 154.834C12.658 151.327 10.6875 146.57 10.6875 141.609V18.7031C10.6875 8.379 19.0665 0 29.3906 0H120.234C130.559 0 138.938 8.379 138.938 18.7031V101.382C138.938 103.507 138.093 105.546 136.59 107.05C135.087 108.553 133.048 109.397 130.922 109.397C128.796 109.397 126.757 108.553 125.254 107.05C123.751 105.546 122.906 103.507 122.906 101.382V18.7031C122.906 17.9945 122.625 17.3149 122.124 16.8138C121.623 16.3128 120.943 16.0312 120.234 16.0312H29.3906C28.682 16.0312 28.0024 16.3128 27.5013 16.8138C27.0003 17.3149 26.7188 17.9945 26.7188 18.7031ZM168.585 120.63L119.882 168.178C118.37 169.652 116.338 170.469 114.226 170.453C112.115 170.437 110.096 169.589 108.606 168.093L87.8406 147.252C86.4274 145.73 85.6603 143.719 85.7008 141.642C85.7413 139.566 86.5863 137.586 88.0577 136.12C89.5291 134.654 91.5121 133.817 93.5888 133.784C95.6656 133.751 97.6739 134.526 99.1907 135.945L114.356 151.175L157.384 109.151C158.906 107.666 160.956 106.846 163.083 106.872C165.209 106.898 167.238 107.768 168.724 109.29C170.209 110.812 171.029 112.862 171.003 114.989C170.977 117.115 170.107 119.145 168.585 120.63ZM50.7656 42.75H98.8594C100.985 42.75 103.024 43.5945 104.527 45.0977C106.03 46.6009 106.875 48.6397 106.875 50.7656C106.875 52.8915 106.03 54.9303 104.527 56.4335C103.024 57.9367 100.985 58.7812 98.8594 58.7812H50.7656C48.6397 58.7812 46.6009 57.9367 45.0977 56.4335C43.5945 54.9303 42.75 52.8915 42.75 50.7656C42.75 48.6397 43.5945 46.6009 45.0977 45.0977C46.6009 43.5945 48.6397 42.75 50.7656 42.75ZM42.75 82.8281C42.75 80.7022 43.5945 78.6634 45.0977 77.1602C46.6009 75.657 48.6397 74.8125 50.7656 74.8125H72.1406C74.2665 74.8125 76.3053 75.657 77.8085 77.1602C79.3118 78.6634 80.1562 80.7022 80.1562 82.8281C80.1562 84.954 79.3118 86.9928 77.8085 88.496C76.3053 89.9992 74.2665 90.8438 72.1406 90.8438H50.7656C48.6397 90.8438 46.6009 89.9992 45.0977 88.496C43.5945 86.9928 42.75 84.954 42.75 82.8281Z" fill="#0045F1"/>
</svg>
