<svg width="158" height="174" viewBox="0 0 158 174" fill="none" xmlns="http://www.w3.org/2000/svg">
<path d="M81.4853 0H16.2971C11.9748 0 7.82959 1.71408 4.7733 4.76516C1.71701 7.81625 0 11.9544 0 16.2693V146.424C0 150.738 1.71701 154.877 4.7733 157.928C7.82959 160.979 11.9748 162.693 16.2971 162.693H73.3368C69.9959 160.659 66.8179 158.137 64.0474 155.372C61.3584 152.687 59.0768 149.677 57.0397 146.424H16.2971V16.2693H73.3368V56.9425H114.079V66.5414C119.865 67.8429 125.406 70.0393 130.376 73.2118V48.8079L81.4853 0ZM132.903 137.475C143.74 120.311 138.525 97.6157 121.495 86.878C104.301 76.0589 81.4853 81.3464 70.8107 98.2665C59.8917 115.431 65.1882 138.045 82.2187 148.864C94.1155 156.429 109.272 156.429 121.25 149.027L146.674 174L158 162.693L132.903 137.475ZM101.857 138.289C96.4538 138.289 91.2723 136.146 87.4519 132.332C83.6316 128.519 81.4853 123.346 81.4853 117.952C81.4853 112.559 83.6316 107.386 87.4519 103.572C91.2723 99.7583 96.4538 97.6157 101.857 97.6157C107.259 97.6157 112.441 99.7583 116.261 103.572C120.082 107.386 122.228 112.559 122.228 117.952C122.228 123.346 120.082 128.519 116.261 132.332C112.441 136.146 107.259 138.289 101.857 138.289Z" fill="#113170"/>
</svg>
