<svg width="190" height="115" viewBox="0 0 190 115" fill="none" xmlns="http://www.w3.org/2000/svg">
<path d="M96.0094 6.34957L67.2719 29.831C62.4922 33.7246 61.5719 40.7331 65.1937 45.7349C69.0234 51.0661 76.475 52.1144 81.6109 48.071L111.091 24.949C113.169 23.3317 116.138 23.6911 117.77 25.7876C119.403 27.8842 119.017 30.8793 116.939 32.5266L110.734 37.3786L163.341 86.2583H175.75C183.617 86.2583 190 79.8189 190 71.8819V33.5449C190 25.6079 183.617 19.1685 175.75 19.1685H151.792L150.634 18.4197L129.081 4.49262C124.539 1.55744 119.225 0 113.822 0C107.35 0 101.056 2.24631 96.0094 6.34957ZM102.778 43.6084L87.4297 55.6486C78.0781 63.0165 64.5109 61.0996 57.5047 51.3956C50.9141 42.2606 52.5766 29.5015 61.275 22.4032L85.975 2.24631C82.5312 0.778721 78.8203 0.0299503 75.05 0.0299503C69.4688 -4.57459e-07 64.0359 1.67724 59.375 4.79213L38 19.1685H14.25C6.38281 19.1685 0 25.6079 0 33.5449V71.8819C0 79.8189 6.38281 86.2583 14.25 86.2583H46.3719L73.5062 111.237C79.325 116.598 88.3203 116.179 93.6344 110.309C95.2672 108.482 96.3656 106.355 96.9297 104.139L101.977 108.811C107.766 114.172 116.791 113.783 122.105 107.943C123.441 106.475 124.42 104.768 125.044 103.001C130.803 106.894 138.641 106.086 143.48 100.754C148.794 94.9141 148.408 85.809 142.619 80.4478L102.778 43.6084Z" fill="#F83E7D"/>
</svg>
