<svg width="166" height="166" viewBox="0 0 166 166" fill="none" xmlns="http://www.w3.org/2000/svg">
<path fill-rule="evenodd" clip-rule="evenodd" d="M83 150.438C94.8389 150.455 106.472 147.341 116.719 141.411V119.312C116.719 113.121 114.259 107.184 109.882 102.806C105.504 98.4282 99.5661 95.9688 93.375 95.9688H72.625C66.4339 95.9688 60.4963 98.4282 56.1185 102.806C51.7407 107.184 49.2812 113.121 49.2812 119.312V141.411C59.5282 147.341 71.1611 150.455 83 150.438ZM132.281 119.312V129.034C141.253 119.43 147.222 107.414 149.456 94.4626C151.69 81.5115 150.091 68.1898 144.856 56.1352C139.62 44.0806 130.977 33.8185 119.988 26.6103C108.998 19.402 96.1424 15.5619 83 15.5619C69.8576 15.5619 57.0016 19.402 46.0124 26.6103C35.0232 33.8185 26.3796 44.0806 21.1442 56.1352C15.9089 68.1898 14.3099 81.5115 16.5439 94.4626C18.7779 107.414 24.7474 119.43 33.7188 129.034V119.312C33.7187 111.291 36.1964 103.466 40.8132 96.9067C45.43 90.3475 51.9603 85.3745 59.511 82.668C55.5933 78.1618 53.0544 72.6237 52.1973 66.7143C51.3402 60.805 52.201 54.7738 54.677 49.3402C57.1531 43.9066 61.1398 39.2999 66.1617 36.0696C71.1837 32.8392 77.0288 31.1216 83 31.1216C88.9712 31.1216 94.8163 32.8392 99.8383 36.0696C104.86 39.2999 108.847 43.9066 111.323 49.3402C113.799 54.7738 114.66 60.805 113.803 66.7143C112.946 72.6237 110.407 78.1618 106.489 82.668C114.04 85.3745 120.57 90.3475 125.187 96.9067C129.804 103.466 132.281 111.291 132.281 119.312ZM83 166C105.013 166 126.124 157.255 141.69 141.69C157.255 126.124 166 105.013 166 83C166 60.987 157.255 39.8757 141.69 24.3101C126.124 8.74462 105.013 0 83 0C60.987 0 39.8757 8.74462 24.3101 24.3101C8.74462 39.8757 0 60.987 0 83C0 105.013 8.74462 126.124 24.3101 141.69C39.8757 157.255 60.987 166 83 166ZM98.5625 62.25C98.5625 66.3774 96.9229 70.3358 94.0043 73.2543C91.0858 76.1729 87.1274 77.8125 83 77.8125C78.8726 77.8125 74.9142 76.1729 71.9957 73.2543C69.0771 70.3358 67.4375 66.3774 67.4375 62.25C67.4375 58.1226 69.0771 54.1642 71.9957 51.2456C74.9142 48.3271 78.8726 46.6875 83 46.6875C87.1274 46.6875 91.0858 48.3271 94.0043 51.2456C96.9229 54.1642 98.5625 58.1226 98.5625 62.25Z" fill="#F83E7D"/>
</svg>
