<svg viewBox="0 0 171 46" fill="none" xmlns="http://www.w3.org/2000/svg">
<path d="M138.84 40.8662C138.583 41.0068 138.35 41.1326 138.124 41.2732C135.909 42.7589 133.446 43.8532 130.847 44.5066C127.126 45.3279 123.955 44.1367 122.162 41.1622C122.044 40.9045 121.872 40.674 121.658 40.4855C121.443 40.2969 121.191 40.1545 120.917 40.0674C120.643 39.9803 120.354 39.9505 120.068 39.9797C119.781 40.009 119.504 40.0967 119.255 40.2373C118.352 40.6368 117.523 41.1792 116.799 41.8429C115.775 42.8122 114.908 43.9443 113.982 45.0098C113.786 45.2317 113.666 45.5647 113.432 45.6979C113.116 45.9225 112.728 46.0276 112.34 45.9939C112.186 45.8981 112.058 45.7661 111.969 45.6098C111.879 45.4535 111.831 45.2778 111.828 45.0986C111.926 43.8407 112.129 42.5828 112.295 41.3324C112.362 40.8218 112.445 40.3187 112.551 39.6231C112.152 39.8599 111.918 39.9857 111.7 40.1263C108.413 42.3784 104.682 43.9286 100.747 44.6768C98.772 45.0619 96.7362 45.0316 94.7738 44.588C93.0608 44.2066 91.5712 43.1744 90.6309 41.7171C90.2015 41.066 90.2241 40.6072 90.7062 40.2817C91.1882 39.9561 91.693 40.1929 92.0922 40.6146C93.8247 42.4496 95.8585 42.975 98.0279 42.1537C99.8658 41.4655 100.145 39.9931 98.6531 38.7204C98.2765 38.3949 97.8094 38.1655 97.4177 37.8473C96.7894 37.3543 96.1931 36.8229 95.6325 36.2565C94.8793 35.413 94.7512 35.3834 93.8849 36.1899C93.546 36.5007 93.2221 36.8262 92.868 37.1148C89.4783 39.9191 86.1565 42.8122 82.006 44.514C79.2943 45.6313 76.5147 46.2824 73.5695 45.5647C73.0098 45.4296 72.4649 45.2413 71.9424 45.0024C68.9972 43.7075 67.9351 41.6801 68.6206 38.5873C68.8338 37.7296 69.1185 36.8907 69.4718 36.0789C69.7505 35.339 70.2853 35.1392 70.8201 35.339C71.3549 35.5388 71.4378 36.0789 71.1515 36.7375C70.5994 37.866 70.2964 39.0966 70.2627 40.3483C70.2551 40.8371 70.3785 41.3193 70.6204 41.7466C70.8624 42.1738 71.2144 42.5311 71.6411 42.7826C74.1194 44.3438 76.7483 44.3068 79.4374 43.5225C82.7353 42.4404 85.7747 40.711 88.3711 38.4393C90.789 36.4415 93.1166 34.3475 95.4743 32.2757C96.2276 31.6172 96.9206 30.8847 97.6738 30.2187C98.2086 29.7452 98.7887 29.7304 99.1804 30.1152C99.572 30.4999 99.4817 31.0179 98.9468 31.5358C98.412 32.0538 97.8546 32.5199 97.3424 33.0156C96.4837 33.8814 96.4988 34.6953 97.4177 35.4796C97.9902 35.9679 98.6305 36.3897 99.2482 36.8188C100.672 37.8103 101.606 39.0386 101.357 40.881C101.32 41.1622 101.184 41.4434 101.146 41.7319C101.109 42.0205 101.056 42.3313 101.146 42.4718C101.26 42.5351 101.385 42.5744 101.515 42.5872C101.645 42.5999 101.776 42.5858 101.9 42.5458C104.089 42.0569 106.191 41.2489 108.137 40.1485C109.653 39.2356 111.121 38.2478 112.536 37.1888C112.92 36.8553 113.184 36.409 113.289 35.9161C114.367 30.8389 115.861 25.8554 117.756 21.0141C118.317 19.7309 118.982 18.4937 119.744 17.3145C120.309 16.397 121.123 15.6275 122.358 15.9087C123.594 16.1898 124.03 17.1665 124.219 18.2764C124.392 19.785 124.174 21.312 123.586 22.7159C122.223 26.6301 120.046 30.1152 117.756 33.5632C117.003 34.7249 116.189 35.8643 115.338 36.9668C114.487 38.0693 114.479 39.4678 114.208 40.7626C114.205 40.848 114.225 40.9325 114.266 41.0078C114.307 41.0831 114.368 41.1465 114.441 41.1918C114.528 41.2023 114.616 41.1946 114.699 41.1691C114.782 41.1436 114.859 41.1008 114.924 41.0438C115.526 40.548 116.084 40.0005 116.709 39.5639C117.567 38.861 118.613 38.4142 119.722 38.2765C120.472 38.1608 121.24 38.2706 121.926 38.5915C122.611 38.9123 123.182 39.4293 123.563 40.0745C125.138 42.7678 127.767 43.4559 130.802 42.6864C134.109 41.8429 136.896 40.0301 139.578 38.0249C141.25 36.7744 142.9 35.4796 144.655 34.3253C145.498 33.8587 146.399 33.5029 147.336 33.2672C147.455 33.2047 147.586 33.1696 147.72 33.1646C147.855 33.1596 147.988 33.1848 148.111 33.2384C148.234 33.2919 148.343 33.3724 148.429 33.4736C148.516 33.5748 148.577 33.694 148.609 33.8222C148.752 34.3401 148.474 34.7545 147.796 34.9468C146.322 35.3273 144.951 36.0208 143.78 36.9783C142.608 37.9359 141.665 39.1342 141.017 40.4888C140.552 41.384 140.427 42.4118 140.662 43.3893C140.881 44.2846 141.371 44.4474 142.003 43.7741C142.593 43.1678 143.12 42.5061 143.578 41.7985C144.474 40.3187 145.295 38.8388 146.139 37.359C146.274 37.1222 146.335 36.8114 146.53 36.6191C146.726 36.4267 147.231 36.0049 147.562 36.0345C147.894 36.0641 148.172 36.5229 148.316 36.8558C148.783 37.9805 149.069 39.1866 149.611 40.2743C151.012 43.0786 154.025 43.8333 156.579 43.5151C159.901 43.0934 162.748 41.5765 165.467 39.7711C166.514 39.0756 167.486 38.2913 168.48 37.5514C168.765 37.3351 169.108 37.2064 169.467 37.1814C169.61 37.1705 169.754 37.1999 169.88 37.2663C170.007 37.3326 170.111 37.4331 170.182 37.556C170.252 37.6788 170.286 37.8188 170.278 37.9596C170.27 38.1003 170.221 38.2359 170.138 38.3505C170.053 38.5109 169.938 38.654 169.799 38.7722C166.514 41.5099 162.959 43.8037 158.741 44.921C155.682 45.7349 152.715 45.5869 150.101 43.6483C149.403 43.0944 148.781 42.4554 148.248 41.7467C147.562 40.918 146.975 40.9032 146.319 41.7467C145.664 42.5902 144.941 43.4411 144.21 44.2625C143.96 44.5792 143.675 44.8671 143.359 45.1208C142.463 45.7201 141.529 46.2824 140.406 45.7719C139.284 45.2613 139.013 44.1441 138.9 43.0416C138.842 42.318 138.822 41.5919 138.84 40.8662ZM115.858 32.9935L116.069 33.0748C116.32 32.8474 116.552 32.5999 116.761 32.3349C119.262 28.5393 121.121 24.3716 122.268 19.993C122.376 19.4173 122.401 18.8295 122.343 18.2468C122.322 18.1417 122.279 18.0423 122.215 17.9554C122.151 17.8686 122.069 17.7963 121.974 17.7437C121.876 17.6993 121.597 17.8769 121.484 18.0174C121.188 18.3637 120.935 18.7438 120.731 19.1495C119.737 21.3693 118.682 23.589 117.839 25.8088C117.085 27.9028 116.498 30.0782 115.865 32.2239C115.832 32.4796 115.835 32.7385 115.873 32.9935H115.858Z" fill="#F83E7D"/>
<path d="M6.26634 19.7637C10.4445 19.9608 14.5901 20.5883 18.6349 21.6357C26.8304 23.6261 34.7321 26.497 42.6112 29.427C44.4567 30.1152 45.3003 29.8044 46.1892 28.073C50.4298 19.5407 53.8641 10.6441 56.4486 1.49501C56.5089 1.30263 56.5616 1.10286 56.6219 0.910477C56.765 0.422129 57.0211 -0.0144328 57.5936 0.000365669C58.1661 0.0151641 58.4221 0.451724 58.4899 0.954871C58.606 1.69025 58.6814 2.43125 58.7159 3.17463C58.7913 8.09511 58.8063 13.0082 58.9118 17.9213C58.9946 22.2942 59.1528 26.6671 59.2959 31.0327C59.3336 32.1204 59.4767 33.2006 59.537 34.2809C59.5431 34.6817 59.6732 35.0712 59.91 35.3976C60.1468 35.724 60.4791 35.972 60.8627 36.1085C63.4282 37.1428 66.1377 37.7913 68.9 38.0323C69.038 38.025 69.1763 38.025 69.3143 38.0323C69.8567 38.1433 70.286 38.3875 70.2408 39.0164C70.2409 39.1443 70.2109 39.2704 70.1532 39.3849C70.0954 39.4995 70.0115 39.5993 69.9079 39.6767C69.8043 39.7541 69.6839 39.8069 69.5561 39.831C69.4283 39.8551 69.2966 39.8498 69.1712 39.8155C67.7777 39.638 66.3841 39.4678 65.0057 39.2014C64.0387 38.9876 63.0833 38.7258 62.1433 38.4171C60.7874 38.0249 59.9889 38.6983 60.2451 40.0597C60.3607 40.8157 60.5499 41.559 60.81 42.2795C61.0335 42.764 61.3507 43.2013 61.744 43.5669C62.1282 43.9517 62.3843 44.3069 62.0529 44.8174C61.9927 44.9303 61.9063 45.0278 61.8008 45.102C61.6952 45.1761 61.5734 45.2249 61.4452 45.2443C61.3169 45.2638 61.1858 45.2533 61.0624 45.2139C60.939 45.1744 60.8267 45.1071 60.7347 45.0172C60.2359 44.658 59.8328 44.1859 59.5596 43.6409C59.0021 42.2028 58.5835 40.7165 58.3092 39.2014C58.0757 37.655 57.458 36.7079 55.8837 36.2417C53.7519 35.5758 51.6955 34.6953 49.5864 33.948C48.8039 33.6753 48.0004 33.465 47.1835 33.319C45.918 33.0675 45.097 33.7334 44.404 34.6805C43.2816 36.2343 42.1818 37.803 40.9616 39.2828C39.3643 41.2912 37.3776 42.9686 35.1162 44.2181C32.5853 45.5795 29.9112 45.6091 27.1693 45.0616C22.0321 44.0479 17.4899 41.6949 13.1888 38.8758C9.36324 36.4453 5.92607 33.4704 2.98965 30.0486C1.88718 28.7928 1.00628 27.3648 0.383368 25.8236C-0.0167659 24.8881 -0.106382 23.8524 0.127261 22.8639C0.586751 21.1621 1.92756 20.4 3.53953 20.0522C4.5715 19.8969 5.6336 19.8377 6.26634 19.7637ZM6.78609 21.4951C5.71149 21.589 4.64283 21.7396 3.58473 21.9464C2.07821 22.3238 1.46052 23.3301 1.99534 24.7803C2.43364 25.9944 3.04212 27.1424 3.80318 28.1914C6.45159 31.6083 9.68635 34.5454 13.3621 36.8707C17.3737 39.7257 21.8741 41.8508 26.6496 43.1452C29.851 43.9369 32.8941 43.8851 35.6887 41.8503C38.5447 39.6808 40.9444 36.9869 42.7543 33.9184C42.9187 33.6557 43.0187 33.3592 43.0464 33.0521C43.0742 32.7451 43.0289 32.4358 42.9142 32.1489C42.7996 31.8619 42.6186 31.605 42.3856 31.3985C42.1527 31.1919 41.874 31.0414 41.5717 30.9587C34.0488 28.0034 26.3516 25.4954 18.5219 23.4485C14.6851 22.419 10.754 21.7647 6.78609 21.4951ZM57.5634 32.5939C57.458 30.4703 57.3299 28.8943 57.2998 27.2591C57.2094 22.4644 57.1567 17.6401 57.0889 12.8602C57.0889 11.3804 57.0437 9.90052 56.9985 8.42067C56.9473 8.21408 56.8579 8.01846 56.7349 7.84354C56.5691 7.99892 56.3356 8.12471 56.2528 8.31709C56.0575 8.80109 55.8891 9.29509 55.7481 9.79693C53.4318 16.7939 50.545 23.5961 47.1157 30.1374C46.709 30.8773 46.7165 30.9217 47.5451 31.2325C49.9781 32.1426 52.4111 33.0675 54.8517 33.9628C56.5917 34.6287 57.5936 33.9036 57.5634 32.6013V32.5939Z" fill="#F83E7D"/>
<path d="M69.0348 33.6149C68.9143 33.5039 68.5377 33.3263 68.4398 33.0526C68.4041 32.898 68.4052 32.7375 68.4431 32.5835C68.481 32.4295 68.5546 32.2861 68.6582 32.1647C69.3671 31.5783 70.1228 31.0488 70.918 30.5812C71.0679 30.5249 71.2298 30.5062 71.389 30.5269C71.5482 30.5475 71.6996 30.6069 71.8294 30.6996C71.9386 30.8316 72.0174 30.9853 72.0603 31.1501C72.1032 31.3149 72.1093 31.4868 72.078 31.6541C71.9047 32.2831 69.9387 33.5779 69.0348 33.6149Z" fill="#F83E7D"/>
</svg>
