<svg viewBox="0 0 171 46" fill="none" xmlns="http://www.w3.org/2000/svg">
<path d="M138.84 40.8663C138.583 41.0069 138.35 41.1326 138.124 41.2732C135.909 42.759 133.446 43.8533 130.847 44.5067C127.126 45.328 123.955 44.1367 122.162 41.1622C122.044 40.9046 121.872 40.674 121.658 40.4855C121.443 40.297 121.191 40.1546 120.917 40.0675C120.643 39.9804 120.354 39.9505 120.068 39.9798C119.781 40.009 119.504 40.0967 119.255 40.2373C118.352 40.6369 117.523 41.1793 116.799 41.843C115.775 42.8123 114.908 43.9443 113.982 45.0098C113.786 45.2318 113.666 45.5648 113.432 45.698C113.116 45.9226 112.728 46.0277 112.34 45.9939C112.186 45.8982 112.058 45.7662 111.969 45.6099C111.879 45.4536 111.831 45.2779 111.828 45.0986C111.926 43.8408 112.129 42.5829 112.295 41.3324C112.362 40.8219 112.445 40.3187 112.551 39.6232C112.152 39.86 111.918 39.9858 111.7 40.1264C108.413 42.3785 104.682 43.9286 100.747 44.6769C98.772 45.0619 96.7362 45.0317 94.7738 44.5881C93.0608 44.2067 91.5712 43.1745 90.6309 41.7172C90.2015 41.0661 90.2241 40.6073 90.7062 40.2817C91.1882 39.9562 91.693 40.1929 92.0922 40.6147C93.8247 42.4497 95.8585 42.975 98.0279 42.1537C99.8658 41.4656 100.145 39.9932 98.6531 38.7205C98.2765 38.3949 97.8094 38.1656 97.4177 37.8474C96.7894 37.3543 96.1931 36.823 95.6325 36.2566C94.8793 35.413 94.7512 35.3835 93.8849 36.19C93.546 36.5007 93.2221 36.8263 92.868 37.1149C89.4783 39.9192 86.1565 42.8123 82.006 44.5141C79.2943 45.6314 76.5147 46.2825 73.5695 45.5648C73.0098 45.4297 72.4649 45.2413 71.9424 45.0024C68.9972 43.7076 67.9351 41.6802 68.6206 38.5873C68.8338 37.7297 69.1185 36.8907 69.4718 36.079C69.7505 35.3391 70.2853 35.1393 70.8201 35.3391C71.3549 35.5388 71.4378 36.079 71.1515 36.7375C70.5994 37.8661 70.2964 39.0966 70.2627 40.3483C70.2551 40.8372 70.3785 41.3194 70.6204 41.7466C70.8624 42.1739 71.2144 42.5311 71.6411 42.7827C74.1194 44.3439 76.7483 44.3069 79.4374 43.5226C82.7353 42.4405 85.7747 40.7111 88.3711 38.4393C90.789 36.4415 93.1166 34.3476 95.4743 32.2758C96.2276 31.6173 96.9206 30.8847 97.6738 30.2188C98.2086 29.7453 98.7887 29.7305 99.1804 30.1152C99.572 30.5 99.4817 31.0179 98.9468 31.5359C98.412 32.0538 97.8546 32.52 97.3424 33.0157C96.4837 33.8814 96.4988 34.6953 97.4177 35.4797C97.9902 35.968 98.6305 36.3898 99.2482 36.8189C100.672 37.8104 101.606 39.0387 101.357 40.8811C101.32 41.1622 101.184 41.4434 101.146 41.732C101.109 42.0206 101.056 42.3313 101.146 42.4719C101.26 42.5352 101.385 42.5745 101.515 42.5872C101.645 42.6 101.776 42.5859 101.9 42.5459C104.089 42.057 106.191 41.2489 108.137 40.1486C109.653 39.2356 111.121 38.2478 112.536 37.1889C112.92 36.8554 113.184 36.409 113.289 35.9162C114.367 30.8389 115.861 25.8554 117.756 21.0142C118.317 19.7309 118.982 18.4938 119.744 17.3146C120.309 16.3971 121.123 15.6275 122.358 15.9087C123.594 16.1899 124.03 17.1666 124.219 18.2765C124.392 19.785 124.174 21.312 123.586 22.716C122.223 26.6302 120.046 30.1152 117.756 33.5632C117.003 34.7249 116.189 35.8644 115.338 36.9669C114.487 38.0694 114.479 39.4678 114.208 40.7627C114.205 40.848 114.225 40.9326 114.266 41.0079C114.307 41.0832 114.368 41.1466 114.441 41.1918C114.528 41.2024 114.616 41.1947 114.699 41.1692C114.782 41.1436 114.859 41.1009 114.924 41.0438C115.526 40.5481 116.084 40.0006 116.709 39.564C117.567 38.861 118.613 38.4143 119.722 38.2766C120.472 38.1609 121.24 38.2707 121.926 38.5915C122.611 38.9124 123.182 39.4294 123.563 40.0746C125.138 42.7679 127.767 43.456 130.802 42.6865C134.109 41.843 136.896 40.0302 139.578 38.025C141.25 36.7745 142.9 35.4796 144.655 34.3254C145.498 33.8587 146.399 33.503 147.336 33.2673C147.455 33.2048 147.586 33.1696 147.72 33.1647C147.855 33.1597 147.988 33.1849 148.111 33.2385C148.234 33.292 148.343 33.3725 148.429 33.4736C148.516 33.5748 148.577 33.694 148.609 33.8222C148.752 34.3402 148.474 34.7545 147.796 34.9469C146.322 35.3274 144.951 36.0208 143.78 36.9784C142.608 37.936 141.665 39.1343 141.017 40.4889C140.552 41.384 140.427 42.4119 140.662 43.3894C140.881 44.2847 141.371 44.4475 142.003 43.7742C142.593 43.1678 143.12 42.5061 143.578 41.7986C144.474 40.3187 145.295 38.8389 146.139 37.359C146.274 37.1223 146.335 36.8115 146.53 36.6191C146.726 36.4267 147.231 36.005 147.562 36.0346C147.894 36.0642 148.172 36.5229 148.316 36.8559C148.783 37.9806 149.069 39.1867 149.611 40.2743C151.012 43.0786 154.025 43.8334 156.579 43.5152C159.901 43.0934 162.748 41.5766 165.467 39.7712C166.514 39.0757 167.486 38.2913 168.48 37.5514C168.765 37.3351 169.108 37.2064 169.467 37.1815C169.61 37.1705 169.754 37.2 169.88 37.2663C170.007 37.3327 170.111 37.4332 170.182 37.556C170.252 37.6788 170.286 37.8189 170.278 37.9596C170.27 38.1004 170.221 38.236 170.138 38.3505C170.053 38.5109 169.938 38.654 169.799 38.7723C166.514 41.51 162.959 43.8038 158.741 44.921C155.682 45.735 152.715 45.587 150.101 43.6484C149.403 43.0945 148.781 42.4555 148.248 41.7468C147.562 40.9181 146.975 40.9033 146.319 41.7468C145.664 42.5903 144.941 43.4412 144.21 44.2625C143.96 44.5792 143.675 44.8672 143.359 45.1208C142.463 45.7202 141.529 46.2825 140.406 45.7719C139.284 45.2614 139.013 44.1441 138.9 43.0416C138.842 42.318 138.822 41.5919 138.84 40.8663ZM115.858 32.9935L116.069 33.0749C116.32 32.8474 116.552 32.5999 116.761 32.335C119.262 28.5393 121.121 24.3716 122.268 19.9931C122.376 19.4174 122.401 18.8295 122.343 18.2469C122.322 18.1418 122.279 18.0424 122.215 17.9555C122.151 17.8686 122.069 17.7964 121.974 17.7437C121.876 17.6993 121.597 17.8769 121.484 18.0175C121.188 18.3637 120.935 18.7438 120.731 19.1496C119.737 21.3693 118.682 23.5891 117.839 25.8089C117.085 27.9028 116.498 30.0782 115.865 32.224C115.832 32.4797 115.835 32.7385 115.873 32.9935H115.858Z" fill="white"/>
<path d="M6.26634 19.7637C10.4445 19.9609 14.5901 20.5883 18.6349 21.6357C26.8304 23.6261 34.7321 26.497 42.6112 29.4271C44.4567 30.1152 45.3003 29.8045 46.1892 28.073C50.4298 19.5408 53.8641 10.6441 56.4486 1.49507C56.5089 1.30269 56.5616 1.10292 56.6219 0.910538C56.765 0.42219 57.0211 -0.0143717 57.5936 0.000426704C58.1661 0.0152251 58.4221 0.451785 58.4899 0.954932C58.606 1.69031 58.6814 2.43131 58.7159 3.1747C58.7913 8.09517 58.8063 13.0082 58.9118 17.9213C58.9946 22.2943 59.1528 26.6672 59.2959 31.0327C59.3336 32.1204 59.4767 33.2007 59.537 34.281C59.5431 34.6818 59.6732 35.0712 59.91 35.3976C60.1468 35.7241 60.4791 35.972 60.8627 36.1086C63.4282 37.1429 66.1377 37.7914 68.9 38.0324C69.038 38.0251 69.1763 38.0251 69.3143 38.0324C69.8567 38.1434 70.286 38.3876 70.2408 39.0165C70.2409 39.1443 70.2109 39.2704 70.1532 39.385C70.0954 39.4995 70.0115 39.5994 69.9079 39.6768C69.8043 39.7542 69.6839 39.807 69.5561 39.831C69.4283 39.8551 69.2966 39.8498 69.1712 39.8156C67.7777 39.638 66.3841 39.4678 65.0057 39.2015C64.0387 38.9876 63.0833 38.7258 62.1433 38.4171C60.7874 38.025 59.9889 38.6983 60.2451 40.0598C60.3607 40.8157 60.5499 41.559 60.81 42.2795C61.0335 42.7641 61.3507 43.2013 61.744 43.567C62.1282 43.9518 62.3843 44.3069 62.0529 44.8175C61.9927 44.9304 61.9063 45.0279 61.8008 45.102C61.6952 45.1762 61.5734 45.2249 61.4452 45.2444C61.3169 45.2638 61.1858 45.2534 61.0624 45.2139C60.939 45.1745 60.8267 45.1071 60.7347 45.0173C60.2359 44.6581 59.8328 44.186 59.5596 43.641C59.0021 42.2029 58.5835 40.7165 58.3092 39.2015C58.0757 37.655 57.458 36.7079 55.8837 36.2418C53.7519 35.5759 51.6955 34.6953 49.5864 33.948C48.8039 33.6754 48.0004 33.4651 47.1835 33.3191C45.918 33.0675 45.097 33.7335 44.404 34.6805C43.2816 36.2344 42.1818 37.803 40.9616 39.2829C39.3643 41.2912 37.3776 42.9687 35.1162 44.2181C32.5853 45.5796 29.9112 45.6092 27.1693 45.0616C22.0321 44.048 17.4899 41.695 13.1888 38.8759C9.36324 36.4453 5.92607 33.4705 2.98965 30.0486C1.88718 28.7929 1.00628 27.3649 0.383368 25.8237C-0.0167659 24.8881 -0.106382 23.8525 0.127261 22.864C0.586751 21.1622 1.92756 20.4001 3.53953 20.0523C4.5715 19.8969 5.6336 19.8377 6.26634 19.7637ZM6.78609 21.4951C5.71149 21.589 4.64283 21.7397 3.58473 21.9465C2.07821 22.3239 1.46052 23.3302 1.99534 24.7804C2.43364 25.9944 3.04212 27.1425 3.80318 28.1914C6.45159 31.6084 9.68635 34.5455 13.3621 36.8707C17.3737 39.7258 21.8741 41.8509 26.6496 43.1452C29.851 43.937 32.8941 43.8852 35.6887 41.8504C38.5447 39.6809 40.9444 36.987 42.7543 33.9184C42.9187 33.6558 43.0187 33.3593 43.0464 33.0522C43.0742 32.7451 43.0289 32.4359 42.9142 32.1489C42.7996 31.862 42.6186 31.6051 42.3856 31.3986C42.1527 31.192 41.874 31.0415 41.5717 30.9587C34.0488 28.0034 26.3516 25.4955 18.5219 23.4485C14.6851 22.4191 10.754 21.7648 6.78609 21.4951ZM57.5634 32.594C57.458 30.4704 57.3299 28.8944 57.2998 27.2591C57.2094 22.4645 57.1567 17.6402 57.0889 12.8603C57.0889 11.3804 57.0437 9.90058 56.9985 8.42074C56.9473 8.21414 56.8579 8.01853 56.7349 7.8436C56.5691 7.99898 56.3356 8.12477 56.2528 8.31715C56.0575 8.80115 55.8891 9.29515 55.7481 9.79699C53.4318 16.794 50.545 23.5962 47.1157 30.1374C46.709 30.8774 46.7165 30.9217 47.5451 31.2325C49.9781 32.1426 52.4111 33.0675 54.8517 33.9628C56.5917 34.6288 57.5936 33.9036 57.5634 32.6014V32.594Z" fill="white"/>
<path d="M69.0348 33.615C68.9143 33.504 68.5377 33.3264 68.4398 33.0526C68.4041 32.8981 68.4052 32.7376 68.4431 32.5836C68.481 32.4295 68.5546 32.2862 68.6582 32.1647C69.3671 31.5784 70.1228 31.0489 70.918 30.5813C71.0679 30.5249 71.2298 30.5062 71.389 30.5269C71.5482 30.5476 71.6996 30.607 71.8294 30.6997C71.9386 30.8317 72.0174 30.9854 72.0603 31.1501C72.1032 31.3149 72.1093 31.4869 72.078 31.6542C71.9047 32.2831 69.9387 33.578 69.0348 33.615Z" fill="white"/>
</svg>
