<svg width="247" height="46" viewBox="0 0 247 46" fill="none" xmlns="http://www.w3.org/2000/svg">
<path d="M30.8687 10.1521L26.0779 14.8284C25.9908 14.7644 25.9078 14.6952 25.8293 14.6212C24.3981 13.2228 22.9594 11.8243 21.5433 10.4037C21.2344 10.0855 21.0461 10.1151 20.7524 10.4037C16.7852 14.3252 12.8105 18.2419 8.82822 22.1536C8.25575 22.7159 7.66821 23.2561 7.11833 23.8406C6.93113 24.0446 6.82195 24.3062 6.80949 24.5805C6.80949 29.0793 6.80949 33.5854 6.80949 38.0915C6.80949 38.4837 6.91496 38.6243 7.33678 38.6243H35.0794C35.4937 38.6243 35.6142 38.4837 35.6142 38.0915C35.6142 33.6002 35.6142 29.1163 35.6142 24.6249C35.6012 24.3907 35.5053 24.1682 35.343 23.996C34.6726 23.2931 33.9721 22.6198 33.264 21.9538C33.0079 21.7097 33.0004 21.5469 33.264 21.2879C34.7705 19.8081 36.2093 18.3282 37.7233 16.7892L40.5857 19.6379C41.1055 20.1558 41.6478 20.659 42.1525 21.1991C42.3034 21.3618 42.3913 21.5712 42.4011 21.7911C42.4011 29.4566 42.4011 37.1222 42.4011 44.7878C42.4011 45.2095 42.2655 45.2909 41.8738 45.2909H0.549889C0.112997 45.2909 0 45.1652 0 44.7508C0 37.1148 0 29.4813 0 21.8502C0.00649754 21.576 0.113498 21.3133 0.301323 21.1103C7.12085 14.382 13.9404 7.66101 20.7599 0.94746C21.0085 0.703286 21.1817 0.562711 21.5132 0.888277C24.5262 3.84796 27.5393 6.80765 30.5523 9.76733C30.6653 9.90052 30.7632 10.0411 30.8687 10.1521Z" fill="#0045F1"/>
<path d="M63.7257 33.2895V44.5141C63.7257 45.18 63.7257 45.18 63.0704 45.18H44.623C43.9752 45.18 43.9752 45.18 43.9752 44.5585C43.9752 42.7531 43.9752 40.9551 43.9752 39.1496C43.9752 38.7353 44.0806 38.6095 44.5175 38.6095C48.4571 38.6095 52.3966 38.6095 56.3362 38.6095C56.9765 38.6095 56.9765 38.6095 56.9765 37.9806V24.662C56.9896 24.5123 56.9687 24.3617 56.9153 24.2209C56.8619 24.0801 56.7773 23.9528 56.6676 23.8481C52.1481 19.4085 47.6285 14.969 43.1089 10.5295C42.559 9.98935 42.544 9.98935 42.0016 10.5295C37.4821 14.969 32.9751 19.4085 28.4806 23.8481C28.2763 24.0663 28.161 24.3508 28.1567 24.6472C28.1567 28.6428 28.1567 32.6433 28.1567 36.6487C28.1567 37.0853 28.0437 37.2185 27.5842 37.2111C25.686 37.2111 23.7878 37.2111 21.8896 37.2111C21.3999 37.2111 21.302 37.0557 21.302 36.6117C21.302 31.7677 21.302 26.9261 21.302 22.0871C21.2971 21.9149 21.3302 21.7437 21.3991 21.5853C21.468 21.4269 21.5711 21.285 21.7012 21.1695C26.8837 16.1036 32.0611 11.0302 37.2335 5.94937C38.8681 4.34374 40.5252 2.74551 42.1448 1.11769C42.4913 0.769924 42.6645 0.814319 42.9884 1.11769C47.6888 5.7496 52.3966 10.3741 57.1121 14.9912C59.1835 17.0186 61.2399 19.0608 63.3189 21.0734C63.4697 21.2119 63.5881 21.3809 63.6661 21.5686C63.7441 21.7564 63.7799 21.9585 63.7709 22.1611C63.7357 25.8705 63.7207 29.58 63.7257 33.2895Z" fill="#F83E7D"/>
<path d="M215.561 40.8662C215.305 41.0067 215.071 41.1325 214.845 41.2731C212.63 42.7589 210.167 43.8531 207.569 44.5066C203.848 45.3279 200.676 44.1366 198.884 41.1621C198.765 40.9044 198.593 40.6739 198.379 40.4854C198.164 40.2969 197.912 40.1545 197.638 40.0674C197.364 39.9803 197.075 39.9504 196.789 39.9796C196.503 40.0089 196.226 40.0966 195.976 40.2372C195.073 40.6367 194.244 41.1792 193.52 41.8428C192.496 42.8121 191.63 43.9442 190.703 45.0097C190.507 45.2317 190.387 45.5647 190.153 45.6978C189.837 45.9225 189.45 46.0275 189.061 45.9938C188.907 45.898 188.779 45.7661 188.69 45.6098C188.6 45.4535 188.552 45.2778 188.549 45.0985C188.647 43.8406 188.85 42.5828 189.016 41.3323C189.084 40.8218 189.166 40.3186 189.272 39.6231C188.873 39.8599 188.639 39.9856 188.421 40.1262C185.134 42.3783 181.403 43.9285 177.468 44.6767C175.493 45.0618 173.457 45.0315 171.495 44.588C169.782 44.2066 168.292 43.1744 167.352 41.7171C166.923 41.0659 166.945 40.6072 167.427 40.2816C167.909 39.956 168.414 40.1928 168.813 40.6146C170.546 42.4496 172.58 42.9749 174.749 42.1536C176.587 41.4655 176.866 39.993 175.374 38.7204C174.998 38.3948 174.531 38.1654 174.139 37.8473C173.511 37.3542 172.914 36.8229 172.354 36.2564C171.6 35.4129 171.472 35.3833 170.606 36.1898C170.267 36.5006 169.943 36.8262 169.589 37.1147C166.2 39.9191 162.878 42.8121 158.727 44.514C156.015 45.6312 153.236 46.2824 150.291 45.5646C149.731 45.4295 149.186 45.2412 148.664 45.0023C145.718 43.7075 144.656 41.6801 145.342 38.5872C145.555 37.7296 145.84 36.8906 146.193 36.0789C146.472 35.3389 147.006 35.1392 147.541 35.3389C148.076 35.5387 148.159 36.0789 147.873 36.7374C147.321 37.866 147.018 39.0965 146.984 40.3482C146.976 40.837 147.1 41.3192 147.342 41.7465C147.584 42.1737 147.936 42.531 148.362 42.7825C150.841 44.3438 153.469 44.3068 156.159 43.5225C159.456 42.4404 162.496 40.7109 165.092 38.4392C167.51 36.4414 169.838 34.3474 172.196 32.2757C172.949 31.6171 173.642 30.8846 174.395 30.2187C174.93 29.7451 175.51 29.7303 175.902 30.1151C176.293 30.4999 176.203 31.0178 175.668 31.5357C175.133 32.0537 174.576 32.5198 174.064 33.0156C173.205 33.8813 173.22 34.6952 174.139 35.4795C174.711 35.9679 175.352 36.3896 175.969 36.8188C177.393 37.8103 178.327 39.0385 178.078 40.8809C178.041 41.1621 177.905 41.4433 177.868 41.7319C177.83 42.0204 177.777 42.3312 177.868 42.4718C177.981 42.5351 178.106 42.5743 178.236 42.5871C178.366 42.5998 178.497 42.5858 178.621 42.5458C180.81 42.0569 182.912 41.2488 184.858 40.1484C186.374 39.2355 187.842 38.2477 189.257 37.1887C189.641 36.8553 189.905 36.4089 190.01 35.9161C191.089 30.8388 192.582 25.8553 194.477 21.0141C195.038 19.7308 195.703 18.4936 196.466 17.3145C197.031 16.397 197.844 15.6274 199.079 15.9086C200.315 16.1898 200.752 17.1665 200.94 18.2764C201.113 19.7849 200.895 21.3119 200.307 22.7159C198.944 26.6301 196.767 30.1151 194.477 33.5631C193.724 34.7248 192.91 35.8643 192.059 36.9668C191.208 38.0692 191.2 39.4677 190.929 40.7626C190.926 40.8479 190.947 40.9324 190.988 41.0077C191.029 41.083 191.089 41.1465 191.163 41.1917C191.249 41.2023 191.337 41.1946 191.42 41.169C191.503 41.1435 191.58 41.1008 191.645 41.0437C192.247 40.548 192.805 40.0004 193.43 39.5639C194.289 38.8609 195.334 38.4142 196.443 38.2764C197.193 38.1607 197.962 38.2705 198.647 38.5914C199.333 38.9123 199.903 39.4292 200.285 40.0744C201.859 42.7677 204.488 43.4559 207.523 42.6864C210.83 41.8428 213.617 40.03 216.299 38.0248C217.971 36.7744 219.621 35.4795 221.376 34.3252C222.219 33.8586 223.12 33.5029 224.058 33.2672C224.176 33.2046 224.307 33.1695 224.442 33.1645C224.576 33.1595 224.71 33.1848 224.832 33.2383C224.955 33.2919 225.064 33.3723 225.15 33.4735C225.237 33.5747 225.298 33.6939 225.331 33.8221C225.474 34.34 225.195 34.7544 224.517 34.9468C223.043 35.3272 221.672 36.0207 220.501 36.9783C219.329 37.9358 218.386 39.1342 217.738 40.4888C217.274 41.3839 217.148 42.4118 217.384 43.3893C217.602 44.2846 218.092 44.4474 218.724 43.774C219.314 43.1677 219.841 42.506 220.299 41.7985C221.195 40.3186 222.016 38.8388 222.86 37.3589C222.995 37.1221 223.056 36.8114 223.252 36.619C223.447 36.4266 223.952 36.0049 224.284 36.0345C224.615 36.0641 224.894 36.5228 225.037 36.8558C225.504 37.9805 225.79 39.1865 226.332 40.2742C227.733 43.0785 230.747 43.8332 233.3 43.5151C236.622 43.0933 239.469 41.5765 242.189 39.7711C243.236 39.0755 244.207 38.2912 245.202 37.5513C245.486 37.335 245.829 37.2063 246.188 37.1813C246.331 37.1704 246.475 37.1999 246.601 37.2662C246.728 37.3326 246.833 37.4331 246.903 37.5559C246.974 37.6787 247.007 37.8187 246.999 37.9595C246.991 38.1003 246.942 38.2359 246.859 38.3504C246.774 38.5108 246.659 38.6539 246.52 38.7722C243.236 41.5099 239.68 43.8036 235.462 44.9209C232.404 45.7348 229.436 45.5868 226.822 43.6483C226.125 43.0944 225.502 42.4553 224.969 41.7467C224.284 40.9179 223.696 40.9031 223.041 41.7467C222.385 42.5902 221.662 43.4411 220.932 44.2624C220.682 44.5791 220.396 44.867 220.08 45.1207C219.184 45.72 218.25 46.2824 217.128 45.7718C216.005 45.2613 215.734 44.144 215.621 43.0415C215.563 42.3179 215.543 41.5918 215.561 40.8662ZM192.579 32.9934L192.79 33.0748C193.041 32.8473 193.273 32.5998 193.483 32.3349C195.983 28.5392 197.843 24.3715 198.989 19.993C199.097 19.4172 199.123 18.8294 199.064 18.2468C199.044 18.1416 199 18.0422 198.936 17.9554C198.872 17.8685 198.79 17.7963 198.695 17.7436C198.597 17.6992 198.319 17.8768 198.206 18.0174C197.909 18.3636 197.656 18.7437 197.452 19.1495C196.458 21.3692 195.403 23.589 194.56 25.8088C193.807 27.9027 193.219 30.0781 192.586 32.2239C192.553 32.4795 192.556 32.7384 192.594 32.9934H192.579Z" fill="#F83E7D"/>
<path d="M82.9875 19.7637C87.1657 19.9608 91.3113 20.5883 95.3561 21.6357C103.552 23.6261 111.453 26.497 119.332 29.427C121.178 30.1152 122.022 29.8044 122.91 28.073C127.151 19.5407 130.585 10.6441 133.17 1.49501C133.23 1.30263 133.283 1.10286 133.343 0.910477C133.486 0.422129 133.742 -0.0144328 134.315 0.000365669C134.887 0.0151641 135.143 0.451724 135.211 0.954871C135.327 1.69025 135.403 2.43125 135.437 3.17463C135.512 8.09511 135.528 13.0082 135.633 17.9213C135.716 22.2942 135.874 26.6671 136.017 31.0327C136.055 32.1204 136.198 33.2006 136.258 34.2809C136.264 34.6817 136.394 35.0712 136.631 35.3976C136.868 35.724 137.2 35.972 137.584 36.1085C140.149 37.1428 142.859 37.7913 145.621 38.0323C145.759 38.025 145.898 38.025 146.036 38.0323C146.578 38.1433 147.007 38.3875 146.962 39.0164C146.962 39.1443 146.932 39.2704 146.874 39.3849C146.817 39.4995 146.733 39.5993 146.629 39.6767C146.526 39.7541 146.405 39.8069 146.277 39.831C146.15 39.8551 146.018 39.8498 145.892 39.8155C144.499 39.638 143.105 39.4678 141.727 39.2014C140.76 38.9876 139.805 38.7258 138.864 38.4171C137.509 38.0249 136.71 38.6983 136.966 40.0597C137.082 40.8157 137.271 41.559 137.531 42.2795C137.755 42.764 138.072 43.2013 138.465 43.5669C138.849 43.9517 139.106 44.3069 138.774 44.8174C138.714 44.9303 138.628 45.0278 138.522 45.102C138.416 45.1761 138.295 45.2249 138.166 45.2443C138.038 45.2638 137.907 45.2533 137.784 45.2139C137.66 45.1744 137.548 45.1071 137.456 45.0172C136.957 44.658 136.554 44.1859 136.281 43.6409C135.723 42.2028 135.305 40.7165 135.03 39.2014C134.797 37.655 134.179 36.7079 132.605 36.2417C130.473 35.5758 128.417 34.6953 126.308 33.948C125.525 33.6753 124.722 33.465 123.905 33.319C122.639 33.0675 121.818 33.7334 121.125 34.6805C120.003 36.2343 118.903 37.803 117.683 39.2828C116.085 41.2912 114.099 42.9686 111.837 44.2181C109.306 45.5795 106.632 45.6091 103.891 45.0616C98.7533 44.0479 94.2111 41.6949 89.91 38.8758C86.0844 36.4453 82.6473 33.4704 79.7108 30.0486C78.6084 28.7928 77.7275 27.3648 77.1046 25.8236C76.7044 24.8881 76.6148 23.8524 76.8485 22.8639C77.3079 21.1621 78.6487 20.4 80.2607 20.0522C81.2927 19.8969 82.3548 19.8377 82.9875 19.7637ZM83.5073 21.4951C82.4327 21.589 81.364 21.7396 80.3059 21.9464C78.7994 22.3238 78.1817 23.3301 78.7165 24.7803C79.1548 25.9944 79.7633 27.1424 80.5244 28.1914C83.1728 31.6083 86.4075 34.5454 90.0833 36.8707C94.0949 39.7257 98.5953 41.8508 103.371 43.1452C106.572 43.9369 109.615 43.8851 112.41 41.8503C115.266 39.6808 117.666 36.9869 119.476 33.9184C119.64 33.6557 119.74 33.3592 119.768 33.0521C119.795 32.7451 119.75 32.4358 119.635 32.1489C119.521 31.8619 119.34 31.605 119.107 31.3985C118.874 31.1919 118.595 31.0414 118.293 30.9587C110.77 28.0034 103.073 25.4954 95.2431 23.4485C91.4062 22.419 87.4752 21.7647 83.5073 21.4951ZM134.285 32.5939C134.179 30.4703 134.051 28.8943 134.021 27.2591C133.931 22.4644 133.878 17.6401 133.81 12.8602C133.81 11.3804 133.765 9.90052 133.72 8.42067C133.668 8.21408 133.579 8.01846 133.456 7.84354C133.29 7.99892 133.057 8.12471 132.974 8.31709C132.779 8.80109 132.61 9.29509 132.469 9.79693C130.153 16.7939 127.266 23.5961 123.837 30.1374C123.43 30.8773 123.438 30.9217 124.266 31.2325C126.699 32.1426 129.132 33.0675 131.573 33.9628C133.313 34.6287 134.315 33.9036 134.285 32.6013V32.5939Z" fill="#F83E7D"/>
<path d="M145.756 33.615C145.635 33.504 145.259 33.3264 145.161 33.0526C145.125 32.8981 145.126 32.7376 145.164 32.5836C145.202 32.4295 145.276 32.2862 145.379 32.1647C146.088 31.5784 146.844 31.0489 147.639 30.5813C147.789 30.5249 147.951 30.5062 148.11 30.5269C148.269 30.5476 148.421 30.607 148.551 30.6997C148.66 30.8317 148.739 30.9854 148.782 31.1501C148.824 31.3149 148.83 31.4869 148.799 31.6542C148.626 32.2831 146.66 33.578 145.756 33.615Z" fill="#F83E7D"/>
</svg>
