<svg viewBox="0 0 64 46" fill="none" xmlns="http://www.w3.org/2000/svg">
<path d="M30.8687 10.0473L26.0779 14.7236C25.9908 14.6596 25.9078 14.5904 25.8293 14.5164C24.3981 13.118 22.9594 11.7195 21.5433 10.2989C21.2344 9.98069 21.0461 10.0103 20.7524 10.2989C16.7852 14.2204 12.8105 18.1371 8.82822 22.0488C8.25575 22.6112 7.66821 23.1513 7.11833 23.7358C6.93113 23.9398 6.82195 24.2014 6.80949 24.4757C6.80949 28.9745 6.80949 33.4806 6.80949 37.9867C6.80949 38.3789 6.91496 38.5195 7.33678 38.5195H35.0794C35.4937 38.5195 35.6142 38.3789 35.6142 37.9867C35.6142 33.4954 35.6142 29.0115 35.6142 24.5201C35.6012 24.2859 35.5053 24.0634 35.343 23.8912C34.6726 23.1883 33.9721 22.515 33.264 21.849C33.0079 21.6049 33.0004 21.4421 33.264 21.1831C34.7705 19.7033 36.2093 18.2234 37.7233 16.6844L40.5857 19.5331C41.1055 20.051 41.6478 20.5542 42.1525 21.0943C42.3034 21.257 42.3913 21.4664 42.4011 21.6863C42.4011 29.3518 42.4011 37.0174 42.4011 44.683C42.4011 45.1048 42.2655 45.1861 41.8738 45.1861H0.549889C0.112997 45.1861 0 45.0604 0 44.646C0 37.01 0 29.3765 0 21.7454C0.00649754 21.4712 0.113498 21.2085 0.301323 21.0055C7.12085 14.2772 13.9404 7.55622 20.7599 0.842663C21.0085 0.598489 21.1817 0.457914 21.5132 0.783479C24.5262 3.74316 27.5393 6.70285 30.5523 9.66253C30.6653 9.79572 30.7632 9.9363 30.8687 10.0473Z" fill="#F83E7D"/>
<path d="M63.7256 33.1846V44.4092C63.7256 45.0751 63.7256 45.0751 63.0702 45.0751H44.6229C43.9751 45.0751 43.975 45.0751 43.975 44.4536C43.975 42.6482 43.975 40.8502 43.975 39.0448C43.975 38.6304 44.0805 38.5046 44.5174 38.5046C48.457 38.5046 52.3965 38.5046 56.3361 38.5046C56.9763 38.5046 56.9764 38.5046 56.9764 37.8757V24.5571C56.9895 24.4075 56.9686 24.2568 56.9152 24.116C56.8618 23.9753 56.7772 23.8479 56.6675 23.7432C52.1479 19.3037 47.6284 14.8642 43.1088 10.4246C42.5589 9.88449 42.5439 9.88449 42.0015 10.4246C37.4819 14.8642 32.9749 19.3037 28.4805 23.7432C28.2762 23.9614 28.1609 24.2459 28.1566 24.5423C28.1566 28.5379 28.1566 32.5384 28.1566 36.5438C28.1566 36.9804 28.0436 37.1136 27.5841 37.1062C25.6859 37.1062 23.7877 37.1062 21.8894 37.1062C21.3998 37.1062 21.3019 36.9508 21.3019 36.5069C21.3019 31.6628 21.3019 26.8213 21.3019 21.9822C21.2969 21.81 21.3301 21.6388 21.399 21.4804C21.4679 21.322 21.571 21.1802 21.7011 21.0647C26.8836 15.9987 32.061 10.9253 37.2334 5.84451C38.868 4.23889 40.5251 2.64066 42.1446 1.01283C42.4911 0.665066 42.6644 0.709461 42.9883 1.01283C47.6886 5.64474 52.3965 10.2692 57.1119 14.8864C59.1834 16.9137 61.2398 18.9559 63.3188 20.9685C63.4696 21.1071 63.588 21.276 63.666 21.4637C63.744 21.6515 63.7797 21.8536 63.7708 22.0562C63.7356 25.7657 63.7205 29.4751 63.7256 33.1846Z" fill="#F83E7D"/>
</svg>
