<svg viewBox="0 0 180 127" fill="none" xmlns="http://www.w3.org/2000/svg">
<path d="M87.0729 27.0136L73.5429 40.3183C73.2969 40.1365 73.0625 39.9399 72.8408 39.7298C68.7988 35.7363 64.7356 31.7848 60.7361 27.7282C59.8639 26.8455 59.3321 26.9085 58.5024 27.7282C47.2983 38.9381 36.0729 50.0639 24.8263 61.1055C23.2095 62.703 21.5502 64.2583 19.9972 65.9188C19.4864 66.4679 19.179 67.1717 19.125 67.9155C19.125 80.7157 19.125 93.516 19.125 106.295C19.125 107.409 19.4228 107.83 20.6141 107.809H98.9648C100.135 107.809 100.475 107.43 100.475 106.316C100.475 93.5581 100.475 80.7998 100.475 68.0416C100.435 67.3769 100.165 66.7461 99.7094 66.2551C97.816 64.2794 95.8376 62.3456 93.8379 60.454C93.1146 59.7604 93.0933 59.2979 93.8379 58.5833C98.0926 54.3796 102.156 50.176 106.432 45.8041C109.155 48.5155 111.814 51.2059 114.516 53.8752C115.984 55.3675 117.515 56.7968 118.941 58.3311C119.367 58.7931 119.615 59.3882 119.643 60.0126C119.643 81.7877 119.643 103.563 119.643 125.338C119.643 126.515 119.26 126.767 118.154 126.767C79.2938 126.767 40.4269 126.767 1.55293 126.767C0.319063 126.767 0 126.389 0 125.233C0 103.542 0 81.8228 0 60.0757C0.0221006 59.2975 0.323725 58.5524 0.850931 57.9738C20.1106 38.861 39.3704 19.7763 58.6301 0.719549C59.3321 0.00492155 59.8214 -0.373403 60.7574 0.530391C69.2669 8.93777 77.7763 17.3451 86.2858 25.7525C86.4985 26.32 86.775 26.6983 87.0729 27.0136Z" fill="white"/>
<path d="M179.868 92.7384V124.623C179.868 126.515 179.868 126.515 178.017 126.515C160.658 126.515 143.292 126.515 125.918 126.515C124.089 126.515 124.089 126.515 124.089 124.749C124.089 119.642 124.089 114.514 124.089 109.406C124.089 108.208 124.386 107.851 125.62 107.851C136.739 107.851 147.865 107.851 158.999 107.851C160.807 107.851 160.807 107.851 160.807 106.043V68.2099C160.844 67.7847 160.785 67.3568 160.634 66.9569C160.483 66.5571 160.244 66.1953 159.935 65.8979C147.171 53.2868 134.406 40.6757 121.642 28.0647C120.089 26.5303 120.047 26.5093 118.515 28.0647C105.751 40.6757 93.0221 53.2868 80.3289 65.8979C79.7587 66.5219 79.434 67.3274 79.4141 68.1679C79.4141 79.5319 79.4141 90.8958 79.4141 102.26C79.4141 103.5 79.095 103.899 77.7973 103.878C72.4364 103.878 67.1605 103.878 61.7145 103.878C60.3317 103.878 60.0551 103.458 60.0551 102.176C60.0551 88.4296 60.0551 74.6766 60.0551 60.9165C60.0411 60.4274 60.1347 59.9411 60.3294 59.4911C60.524 59.0411 60.8152 58.6383 61.1826 58.3102L105.049 15.0963C109.665 10.5143 114.345 5.97428 118.919 1.35022C119.898 0.362357 120.387 0.509486 121.302 1.35022C134.577 14.5078 147.873 27.6443 161.19 40.7598C167.04 46.5399 172.848 52.3199 178.719 58.0579C179.146 58.4507 179.481 58.9304 179.702 59.464C179.922 59.9975 180.023 60.572 179.996 61.1477C179.896 71.6709 179.854 82.2011 179.868 92.7384Z" fill="white"/>
</svg>
