<svg viewBox="0 0 308 67" fill="none" xmlns="http://www.w3.org/2000/svg">
<path d="M7.60363 24L0.179628 1.6H4.49963L11.1236 21.856H8.97963L15.8596 1.6H19.6996L26.3876 21.856H24.3076L31.0916 1.6H35.0596L27.6356 24H23.2196L17.1076 5.728H18.2596L12.0516 24H7.60363ZM42.4154 24.224C40.5167 24.224 38.8527 23.8507 37.4234 23.104C36.0154 22.336 34.9167 21.2907 34.1274 19.968C33.3594 18.6453 32.9754 17.1413 32.9754 15.456C32.9754 13.7493 33.3487 12.2453 34.0954 10.944C34.8634 9.62133 35.9087 8.58667 37.2314 7.84C38.5754 7.09333 40.1007 6.72 41.8074 6.72C43.4714 6.72 44.954 7.08267 46.2554 7.808C47.5567 8.53333 48.5807 9.55733 49.3274 10.88C50.074 12.2027 50.4474 13.76 50.4474 15.552C50.4474 15.7227 50.4367 15.9147 50.4154 16.128C50.4154 16.3413 50.4047 16.544 50.3834 16.736H36.1434V14.08H48.2714L46.7034 14.912C46.7247 13.9307 46.522 13.0667 46.0954 12.32C45.6687 11.5733 45.082 10.9867 44.3354 10.56C43.61 10.1333 42.7674 9.92 41.8074 9.92C40.826 9.92 39.962 10.1333 39.2154 10.56C38.49 10.9867 37.914 11.584 37.4874 12.352C37.082 13.0987 36.8794 13.984 36.8794 15.008V15.648C36.8794 16.672 37.114 17.5787 37.5834 18.368C38.0527 19.1573 38.714 19.7653 39.5674 20.192C40.4207 20.6187 41.402 20.832 42.5114 20.832C43.4714 20.832 44.3354 20.6827 45.1034 20.384C45.8714 20.0853 46.554 19.616 47.1514 18.976L49.2954 21.44C48.5274 22.336 47.5567 23.0293 46.3834 23.52C45.2314 23.9893 43.9087 24.224 42.4154 24.224ZM51.8896 24V0.255999H55.8896V24H51.8896ZM66.5796 24.224C64.7876 24.224 63.1876 23.8507 61.7796 23.104C60.393 22.336 59.305 21.2907 58.5156 19.968C57.7263 18.6453 57.3316 17.1413 57.3316 15.456C57.3316 13.7493 57.7263 12.2453 58.5156 10.944C59.305 9.62133 60.393 8.58667 61.7796 7.84C63.1876 7.09333 64.7876 6.72 66.5796 6.72C68.2436 6.72 69.705 7.06133 70.9636 7.744C72.2436 8.40533 73.2143 9.38667 73.8756 10.688L70.8036 12.48C70.2916 11.6693 69.6623 11.072 68.9156 10.688C68.1903 10.304 67.401 10.112 66.5476 10.112C65.5663 10.112 64.681 10.3253 63.8916 10.752C63.1023 11.1787 62.4836 11.7973 62.0356 12.608C61.5876 13.3973 61.3636 14.3467 61.3636 15.456C61.3636 16.5653 61.5876 17.5253 62.0356 18.336C62.4836 19.1253 63.1023 19.7333 63.8916 20.16C64.681 20.5867 65.5663 20.8 66.5476 20.8C67.401 20.8 68.1903 20.608 68.9156 20.224C69.6623 19.84 70.2916 19.2427 70.8036 18.432L73.8756 20.224C73.2143 21.504 72.2436 22.496 70.9636 23.2C69.705 23.8827 68.2436 24.224 66.5796 24.224ZM82.3634 24.224C80.6141 24.224 79.0567 23.8507 77.6914 23.104C76.3261 22.336 75.2487 21.2907 74.4594 19.968C73.6701 18.6453 73.2754 17.1413 73.2754 15.456C73.2754 13.7493 73.6701 12.2453 74.4594 10.944C75.2487 9.62133 76.3261 8.58667 77.6914 7.84C79.0567 7.09333 80.6141 6.72 82.3634 6.72C84.1341 6.72 85.7021 7.09333 87.0674 7.84C88.4541 8.58667 89.5314 9.61067 90.2994 10.912C91.0887 12.2133 91.4834 13.728 91.4834 15.456C91.4834 17.1413 91.0887 18.6453 90.2994 19.968C89.5314 21.2907 88.4541 22.336 87.0674 23.104C85.7021 23.8507 84.1341 24.224 82.3634 24.224ZM82.3634 20.8C83.3447 20.8 84.2194 20.5867 84.9874 20.16C85.7554 19.7333 86.3527 19.1147 86.7794 18.304C87.2274 17.4933 87.4514 16.544 87.4514 15.456C87.4514 14.3467 87.2274 13.3973 86.7794 12.608C86.3527 11.7973 85.7554 11.1787 84.9874 10.752C84.2194 10.3253 83.3554 10.112 82.3954 10.112C81.4141 10.112 80.5394 10.3253 79.7714 10.752C79.0247 11.1787 78.4274 11.7973 77.9794 12.608C77.5314 13.3973 77.3074 14.3467 77.3074 15.456C77.3074 16.544 77.5314 17.4933 77.9794 18.304C78.4274 19.1147 79.0247 19.7333 79.7714 20.16C80.5394 20.5867 81.4034 20.8 82.3634 20.8ZM114.476 6.72C115.842 6.72 117.047 6.98667 118.092 7.52C119.159 8.05333 119.991 8.87467 120.588 9.984C121.186 11.072 121.484 12.48 121.484 14.208V24H117.484V14.72C117.484 13.2053 117.154 12.0747 116.492 11.328C115.831 10.5813 114.882 10.208 113.644 10.208C112.77 10.208 111.991 10.4 111.308 10.784C110.647 11.168 110.124 11.7333 109.74 12.48C109.378 13.2267 109.196 14.176 109.196 15.328V24H105.196V14.72C105.196 13.2053 104.866 12.0747 104.204 11.328C103.543 10.5813 102.594 10.208 101.356 10.208C100.482 10.208 99.703 10.4 99.0204 10.784C98.359 11.168 97.8364 11.7333 97.4524 12.48C97.0897 13.2267 96.9084 14.176 96.9084 15.328V24H92.9084V6.912H96.7164V11.456L96.0444 10.112C96.6204 9.00267 97.4524 8.16 98.5404 7.584C99.6497 7.008 100.908 6.72 102.316 6.72C103.916 6.72 105.303 7.11467 106.476 7.904C107.671 8.69333 108.46 9.888 108.844 11.488L107.276 10.944C107.831 9.664 108.748 8.64 110.028 7.872C111.308 7.104 112.791 6.72 114.476 6.72ZM132.259 24.224C130.36 24.224 128.696 23.8507 127.267 23.104C125.859 22.336 124.76 21.2907 123.971 19.968C123.203 18.6453 122.819 17.1413 122.819 15.456C122.819 13.7493 123.192 12.2453 123.939 10.944C124.707 9.62133 125.752 8.58667 127.075 7.84C128.419 7.09333 129.944 6.72 131.651 6.72C133.315 6.72 134.798 7.08267 136.099 7.808C137.4 8.53333 138.424 9.55733 139.171 10.88C139.918 12.2027 140.291 13.76 140.291 15.552C140.291 15.7227 140.28 15.9147 140.259 16.128C140.259 16.3413 140.248 16.544 140.227 16.736H125.987V14.08H138.115L136.547 14.912C136.568 13.9307 136.366 13.0667 135.939 12.32C135.512 11.5733 134.926 10.9867 134.179 10.56C133.454 10.1333 132.611 9.92 131.651 9.92C130.67 9.92 129.806 10.1333 129.059 10.56C128.334 10.9867 127.758 11.584 127.331 12.352C126.926 13.0987 126.723 13.984 126.723 15.008V15.648C126.723 16.672 126.958 17.5787 127.427 18.368C127.896 19.1573 128.558 19.7653 129.411 20.192C130.264 20.6187 131.246 20.832 132.355 20.832C133.315 20.832 134.179 20.6827 134.947 20.384C135.715 20.0853 136.398 19.616 136.995 18.976L139.139 21.44C138.371 22.336 137.4 23.0293 136.227 23.52C135.075 23.9893 133.752 24.224 132.259 24.224ZM157.649 24.224C156.198 24.224 154.908 23.904 153.777 23.264C152.646 22.624 151.75 21.664 151.089 20.384C150.449 19.0827 150.129 17.44 150.129 15.456C150.129 13.4507 150.46 11.808 151.121 10.528C151.804 9.248 152.71 8.29867 153.841 7.68C154.993 7.04 156.262 6.72 157.649 6.72C159.334 6.72 160.817 7.08267 162.097 7.808C163.398 8.53333 164.422 9.54667 165.169 10.848C165.937 12.1493 166.321 13.6853 166.321 15.456C166.321 17.2267 165.937 18.7627 165.169 20.064C164.422 21.3653 163.398 22.3893 162.097 23.136C160.817 23.8613 159.334 24.224 157.649 24.224ZM148.177 24V0.255999H152.177V10.88L151.857 15.424L151.985 19.968V24H148.177ZM157.201 20.8C158.161 20.8 159.014 20.5867 159.761 20.16C160.529 19.7333 161.137 19.1147 161.585 18.304C162.033 17.4933 162.257 16.544 162.257 15.456C162.257 14.3467 162.033 13.3973 161.585 12.608C161.137 11.7973 160.529 11.1787 159.761 10.752C159.014 10.3253 158.161 10.112 157.201 10.112C156.241 10.112 155.377 10.3253 154.609 10.752C153.841 11.1787 153.233 11.7973 152.785 12.608C152.337 13.3973 152.113 14.3467 152.113 15.456C152.113 16.544 152.337 17.4933 152.785 18.304C153.233 19.1147 153.841 19.7333 154.609 20.16C155.377 20.5867 156.241 20.8 157.201 20.8ZM178.024 24V20.544L177.8 19.808V13.76C177.8 12.5867 177.448 11.68 176.744 11.04C176.04 10.3787 174.973 10.048 173.544 10.048C172.584 10.048 171.635 10.1973 170.696 10.496C169.779 10.7947 169 11.2107 168.36 11.744L166.792 8.832C167.709 8.128 168.797 7.60533 170.056 7.264C171.336 6.90133 172.659 6.72 174.024 6.72C176.499 6.72 178.408 7.31733 179.752 8.512C181.117 9.68533 181.8 11.5093 181.8 13.984V24H178.024ZM172.648 24.224C171.368 24.224 170.248 24.0107 169.288 23.584C168.328 23.136 167.581 22.528 167.048 21.76C166.536 20.9707 166.28 20.0853 166.28 19.104C166.28 18.144 166.504 17.28 166.952 16.512C167.421 15.744 168.179 15.136 169.224 14.688C170.269 14.24 171.656 14.016 173.384 14.016H178.344V16.672H173.672C172.307 16.672 171.389 16.896 170.92 17.344C170.451 17.7707 170.216 18.304 170.216 18.944C170.216 19.6693 170.504 20.2453 171.08 20.672C171.656 21.0987 172.456 21.312 173.48 21.312C174.461 21.312 175.336 21.088 176.104 20.64C176.893 20.192 177.459 19.5307 177.8 18.656L178.472 21.056C178.088 22.0587 177.395 22.8373 176.392 23.392C175.411 23.9467 174.163 24.224 172.648 24.224ZM192.405 24.224C190.613 24.224 189.013 23.8507 187.605 23.104C186.218 22.336 185.13 21.2907 184.341 19.968C183.551 18.6453 183.157 17.1413 183.157 15.456C183.157 13.7493 183.551 12.2453 184.341 10.944C185.13 9.62133 186.218 8.58667 187.605 7.84C189.013 7.09333 190.613 6.72 192.405 6.72C194.069 6.72 195.53 7.06133 196.789 7.744C198.069 8.40533 199.039 9.38667 199.701 10.688L196.629 12.48C196.117 11.6693 195.487 11.072 194.741 10.688C194.015 10.304 193.226 10.112 192.373 10.112C191.391 10.112 190.506 10.3253 189.717 10.752C188.927 11.1787 188.309 11.7973 187.861 12.608C187.413 13.3973 187.189 14.3467 187.189 15.456C187.189 16.5653 187.413 17.5253 187.861 18.336C188.309 19.1253 188.927 19.7333 189.717 20.16C190.506 20.5867 191.391 20.8 192.373 20.8C193.226 20.8 194.015 20.608 194.741 20.224C195.487 19.84 196.117 19.2427 196.629 18.432L199.701 20.224C199.039 21.504 198.069 22.496 196.789 23.2C195.53 23.8827 194.069 24.224 192.405 24.224ZM203.866 20.192L203.962 15.168L212.89 6.912H217.69L210.106 14.528L207.994 16.288L203.866 20.192ZM200.602 24V0.255999H204.602V24H200.602ZM213.498 24L207.258 16.288L209.786 13.088L218.362 24H213.498ZM231.422 24.224C229.544 24.224 228.094 23.744 227.07 22.784C226.046 21.8027 225.534 20.3627 225.534 18.464V3.136H229.534V18.368C229.534 19.1787 229.736 19.808 230.142 20.256C230.568 20.704 231.155 20.928 231.902 20.928C232.798 20.928 233.544 20.6933 234.142 20.224L235.262 23.072C234.792 23.456 234.216 23.744 233.534 23.936C232.851 24.128 232.147 24.224 231.422 24.224ZM222.718 10.24V7.04H234.11V10.24H222.718ZM243.27 24.224C241.52 24.224 239.963 23.8507 238.598 23.104C237.232 22.336 236.155 21.2907 235.366 19.968C234.576 18.6453 234.182 17.1413 234.182 15.456C234.182 13.7493 234.576 12.2453 235.366 10.944C236.155 9.62133 237.232 8.58667 238.598 7.84C239.963 7.09333 241.52 6.72 243.27 6.72C245.04 6.72 246.608 7.09333 247.974 7.84C249.36 8.58667 250.438 9.61067 251.206 10.912C251.995 12.2133 252.39 13.728 252.39 15.456C252.39 17.1413 251.995 18.6453 251.206 19.968C250.438 21.2907 249.36 22.336 247.974 23.104C246.608 23.8507 245.04 24.224 243.27 24.224ZM243.27 20.8C244.251 20.8 245.126 20.5867 245.894 20.16C246.662 19.7333 247.259 19.1147 247.686 18.304C248.134 17.4933 248.358 16.544 248.358 15.456C248.358 14.3467 248.134 13.3973 247.686 12.608C247.259 11.7973 246.662 11.1787 245.894 10.752C245.126 10.3253 244.262 10.112 243.302 10.112C242.32 10.112 241.446 10.3253 240.678 10.752C239.931 11.1787 239.334 11.7973 238.886 12.608C238.438 13.3973 238.214 14.3467 238.214 15.456C238.214 16.544 238.438 17.4933 238.886 18.304C239.334 19.1147 239.931 19.7333 240.678 20.16C241.446 20.5867 242.31 20.8 243.27 20.8ZM266.69 24.224C264.813 24.224 263.362 23.744 262.338 22.784C261.314 21.8027 260.802 20.3627 260.802 18.464V3.136H264.802V18.368C264.802 19.1787 265.005 19.808 265.41 20.256C265.837 20.704 266.424 20.928 267.17 20.928C268.066 20.928 268.813 20.6933 269.41 20.224L270.53 23.072C270.061 23.456 269.485 23.744 268.802 23.936C268.12 24.128 267.416 24.224 266.69 24.224ZM257.986 10.24V7.04H269.378V10.24H257.986ZM281.117 6.72C282.482 6.72 283.698 6.98667 284.765 7.52C285.853 8.05333 286.706 8.87467 287.325 9.984C287.944 11.072 288.253 12.48 288.253 14.208V24H284.253V14.72C284.253 13.2053 283.89 12.0747 283.165 11.328C282.461 10.5813 281.469 10.208 280.189 10.208C279.25 10.208 278.418 10.4 277.693 10.784C276.968 11.168 276.402 11.744 275.997 12.512C275.613 13.2587 275.421 14.208 275.421 15.36V24H271.421V0.255999H275.421V11.52L274.557 10.112C275.154 9.024 276.018 8.192 277.149 7.616C278.301 7.01867 279.624 6.72 281.117 6.72ZM298.99 24.224C297.092 24.224 295.428 23.8507 293.998 23.104C292.59 22.336 291.492 21.2907 290.702 19.968C289.934 18.6453 289.55 17.1413 289.55 15.456C289.55 13.7493 289.924 12.2453 290.67 10.944C291.438 9.62133 292.484 8.58667 293.806 7.84C295.15 7.09333 296.676 6.72 298.382 6.72C300.046 6.72 301.529 7.08267 302.83 7.808C304.132 8.53333 305.156 9.55733 305.902 10.88C306.649 12.2027 307.022 13.76 307.022 15.552C307.022 15.7227 307.012 15.9147 306.99 16.128C306.99 16.3413 306.98 16.544 306.958 16.736H292.718V14.08H304.846L303.278 14.912C303.3 13.9307 303.097 13.0667 302.67 12.32C302.244 11.5733 301.657 10.9867 300.91 10.56C300.185 10.1333 299.342 9.92 298.382 9.92C297.401 9.92 296.537 10.1333 295.79 10.56C295.065 10.9867 294.489 11.584 294.062 12.352C293.657 13.0987 293.454 13.984 293.454 15.008V15.648C293.454 16.672 293.689 17.5787 294.158 18.368C294.628 19.1573 295.289 19.7653 296.142 20.192C296.996 20.6187 297.977 20.832 299.086 20.832C300.046 20.832 300.91 20.6827 301.678 20.384C302.446 20.0853 303.129 19.616 303.726 18.976L305.87 21.44C305.102 22.336 304.132 23.0293 302.958 23.52C301.806 23.9893 300.484 24.224 298.99 24.224ZM26.0619 60L36.1419 37.6H40.2379L50.3499 60H45.9979L37.3259 39.808H38.9899L30.3499 60H26.0619ZM30.7019 54.816L31.8219 51.552H43.9179L45.0379 54.816H30.7019ZM50.4146 60V42.912H54.4146V60H50.4146ZM52.4306 40.096C51.684 40.096 51.0653 39.8613 50.5746 39.392C50.1053 38.9227 49.8706 38.3573 49.8706 37.696C49.8706 37.0133 50.1053 36.448 50.5746 36C51.0653 35.5307 51.684 35.296 52.4306 35.296C53.1773 35.296 53.7853 35.52 54.2546 35.968C54.7453 36.3947 54.9906 36.9387 54.9906 37.6C54.9906 38.304 54.756 38.9013 54.2866 39.392C53.8173 39.8613 53.1986 40.096 52.4306 40.096ZM62.5446 60.224C61.1153 60.224 59.7393 60.0427 58.4166 59.68C57.1153 59.296 56.0806 58.8373 55.3126 58.304L56.8486 55.264C57.6166 55.7547 58.534 56.16 59.6006 56.48C60.6673 56.8 61.734 56.96 62.8006 56.96C64.0593 56.96 64.966 56.7893 65.5206 56.448C66.0966 56.1067 66.3846 55.648 66.3846 55.072C66.3846 54.6027 66.1926 54.2507 65.8086 54.016C65.4246 53.76 64.9233 53.568 64.3046 53.44C63.686 53.312 62.9926 53.1947 62.2246 53.088C61.478 52.9813 60.7206 52.8427 59.9526 52.672C59.206 52.48 58.5233 52.2133 57.9046 51.872C57.286 51.5093 56.7846 51.0293 56.4006 50.432C56.0166 49.8347 55.8246 49.0453 55.8246 48.064C55.8246 46.976 56.134 46.0373 56.7526 45.248C57.3713 44.4373 58.2353 43.8187 59.3446 43.392C60.4753 42.944 61.8086 42.72 63.3446 42.72C64.4966 42.72 65.6593 42.848 66.8326 43.104C68.006 43.36 68.9766 43.7227 69.7446 44.192L68.2086 47.232C67.398 46.7413 66.5766 46.4107 65.7446 46.24C64.934 46.048 64.1233 45.952 63.3126 45.952C62.0966 45.952 61.19 46.1333 60.5926 46.496C60.0166 46.8587 59.7286 47.3173 59.7286 47.872C59.7286 48.384 59.9206 48.768 60.3046 49.024C60.6886 49.28 61.19 49.4827 61.8086 49.632C62.4273 49.7813 63.11 49.9093 63.8566 50.016C64.6246 50.1013 65.382 50.24 66.1286 50.432C66.8753 50.624 67.558 50.8907 68.1766 51.232C68.8166 51.552 69.3286 52.0107 69.7126 52.608C70.0966 53.2053 70.2886 53.984 70.2886 54.944C70.2886 56.0107 69.9686 56.9387 69.3286 57.728C68.71 58.5173 67.8246 59.136 66.6726 59.584C65.5206 60.0107 64.1446 60.224 62.5446 60.224ZM81.0294 42.72C82.3947 42.72 83.6107 42.9867 84.6774 43.52C85.7654 44.0533 86.6187 44.8747 87.2374 45.984C87.856 47.072 88.1654 48.48 88.1654 50.208V60H84.1654V50.72C84.1654 49.2053 83.8027 48.0747 83.0774 47.328C82.3734 46.5813 81.3814 46.208 80.1014 46.208C79.1627 46.208 78.3307 46.4 77.6054 46.784C76.88 47.168 76.3147 47.744 75.9094 48.512C75.5254 49.2587 75.3334 50.208 75.3334 51.36V60H71.3334V36.256H75.3334V47.52L74.4694 46.112C75.0667 45.024 75.9307 44.192 77.0614 43.616C78.2134 43.0187 79.536 42.72 81.0294 42.72ZM101.368 60V56.544L101.144 55.808V49.76C101.144 48.5867 100.792 47.68 100.088 47.04C99.3836 46.3787 98.317 46.048 96.8876 46.048C95.9276 46.048 94.9783 46.1973 94.0396 46.496C93.1223 46.7947 92.3436 47.2107 91.7036 47.744L90.1356 44.832C91.053 44.128 92.141 43.6053 93.3996 43.264C94.6796 42.9013 96.0023 42.72 97.3676 42.72C99.8423 42.72 101.752 43.3173 103.096 44.512C104.461 45.6853 105.144 47.5093 105.144 49.984V60H101.368ZM95.9916 60.224C94.7116 60.224 93.5916 60.0107 92.6316 59.584C91.6716 59.136 90.925 58.528 90.3916 57.76C89.8796 56.9707 89.6236 56.0853 89.6236 55.104C89.6236 54.144 89.8476 53.28 90.2956 52.512C90.765 51.744 91.5223 51.136 92.5676 50.688C93.613 50.24 94.9996 50.016 96.7276 50.016H101.688V52.672H97.0156C95.6503 52.672 94.733 52.896 94.2636 53.344C93.7943 53.7707 93.5596 54.304 93.5596 54.944C93.5596 55.6693 93.8476 56.2453 94.4236 56.672C94.9996 57.0987 95.7996 57.312 96.8236 57.312C97.805 57.312 98.6796 57.088 99.4476 56.64C100.237 56.192 100.802 55.5307 101.144 54.656L101.816 57.056C101.432 58.0587 100.738 58.8373 99.7356 59.392C98.7543 59.9467 97.5063 60.224 95.9916 60.224ZM125.073 60.32C123.366 60.32 121.777 60.0427 120.305 59.488C118.854 58.912 117.585 58.112 116.497 57.088C115.43 56.0427 114.598 54.816 114.001 53.408C113.404 52 113.105 50.464 113.105 48.8C113.105 47.136 113.404 45.6 114.001 44.192C114.598 42.784 115.441 41.568 116.529 40.544C117.617 39.4987 118.886 38.6987 120.337 38.144C121.788 37.568 123.377 37.28 125.105 37.28C126.94 37.28 128.614 37.6 130.129 38.24C131.644 38.8587 132.924 39.7867 133.969 41.024L131.281 43.552C130.47 42.6773 129.564 42.0267 128.561 41.6C127.558 41.152 126.47 40.928 125.297 40.928C124.124 40.928 123.046 41.12 122.065 41.504C121.105 41.888 120.262 42.432 119.537 43.136C118.833 43.84 118.278 44.672 117.873 45.632C117.489 46.592 117.297 47.648 117.297 48.8C117.297 49.952 117.489 51.008 117.873 51.968C118.278 52.928 118.833 53.76 119.537 54.464C120.262 55.168 121.105 55.712 122.065 56.096C123.046 56.48 124.124 56.672 125.297 56.672C126.47 56.672 127.558 56.4587 128.561 56.032C129.564 55.584 130.47 54.912 131.281 54.016L133.969 56.576C132.924 57.792 131.644 58.72 130.129 59.36C128.614 60 126.929 60.32 125.073 60.32ZM142.195 60.224C140.445 60.224 138.888 59.8507 137.523 59.104C136.157 58.336 135.08 57.2907 134.291 55.968C133.501 54.6453 133.107 53.1413 133.107 51.456C133.107 49.7493 133.501 48.2453 134.291 46.944C135.08 45.6213 136.157 44.5867 137.523 43.84C138.888 43.0933 140.445 42.72 142.195 42.72C143.965 42.72 145.533 43.0933 146.899 43.84C148.285 44.5867 149.363 45.6107 150.131 46.912C150.92 48.2133 151.315 49.728 151.315 51.456C151.315 53.1413 150.92 54.6453 150.131 55.968C149.363 57.2907 148.285 58.336 146.899 59.104C145.533 59.8507 143.965 60.224 142.195 60.224ZM142.195 56.8C143.176 56.8 144.051 56.5867 144.819 56.16C145.587 55.7333 146.184 55.1147 146.611 54.304C147.059 53.4933 147.283 52.544 147.283 51.456C147.283 50.3467 147.059 49.3973 146.611 48.608C146.184 47.7973 145.587 47.1787 144.819 46.752C144.051 46.3253 143.187 46.112 142.227 46.112C141.245 46.112 140.371 46.3253 139.603 46.752C138.856 47.1787 138.259 47.7973 137.811 48.608C137.363 49.3973 137.139 50.3467 137.139 51.456C137.139 52.544 137.363 53.4933 137.811 54.304C138.259 55.1147 138.856 55.7333 139.603 56.16C140.371 56.5867 141.235 56.8 142.195 56.8ZM174.308 42.72C175.673 42.72 176.878 42.9867 177.924 43.52C178.99 44.0533 179.822 44.8747 180.42 45.984C181.017 47.072 181.316 48.48 181.316 50.208V60H177.316V50.72C177.316 49.2053 176.985 48.0747 176.324 47.328C175.662 46.5813 174.713 46.208 173.476 46.208C172.601 46.208 171.822 46.4 171.14 46.784C170.478 47.168 169.956 47.7333 169.572 48.48C169.209 49.2267 169.028 50.176 169.028 51.328V60H165.028V50.72C165.028 49.2053 164.697 48.0747 164.036 47.328C163.374 46.5813 162.425 46.208 161.188 46.208C160.313 46.208 159.534 46.4 158.852 46.784C158.19 47.168 157.668 47.7333 157.284 48.48C156.921 49.2267 156.74 50.176 156.74 51.328V60H152.74V42.912H156.548V47.456L155.876 46.112C156.452 45.0027 157.284 44.16 158.372 43.584C159.481 43.008 160.74 42.72 162.148 42.72C163.748 42.72 165.134 43.1147 166.308 43.904C167.502 44.6933 168.292 45.888 168.676 47.488L167.108 46.944C167.662 45.664 168.58 44.64 169.86 43.872C171.14 43.104 172.622 42.72 174.308 42.72ZM205.595 42.72C206.96 42.72 208.166 42.9867 209.211 43.52C210.278 44.0533 211.11 44.8747 211.707 45.984C212.304 47.072 212.603 48.48 212.603 50.208V60H208.603V50.72C208.603 49.2053 208.272 48.0747 207.611 47.328C206.95 46.5813 206 46.208 204.763 46.208C203.888 46.208 203.11 46.4 202.427 46.784C201.766 47.168 201.243 47.7333 200.859 48.48C200.496 49.2267 200.315 50.176 200.315 51.328V60H196.315V50.72C196.315 49.2053 195.984 48.0747 195.323 47.328C194.662 46.5813 193.712 46.208 192.475 46.208C191.6 46.208 190.822 46.4 190.139 46.784C189.478 47.168 188.955 47.7333 188.571 48.48C188.208 49.2267 188.027 50.176 188.027 51.328V60H184.027V42.912H187.835V47.456L187.163 46.112C187.739 45.0027 188.571 44.16 189.659 43.584C190.768 43.008 192.027 42.72 193.435 42.72C195.035 42.72 196.422 43.1147 197.595 43.904C198.79 44.6933 199.579 45.888 199.963 47.488L198.395 46.944C198.95 45.664 199.867 44.64 201.147 43.872C202.427 43.104 203.91 42.72 205.595 42.72ZM222.547 60.224C221.096 60.224 219.816 59.9573 218.707 59.424C217.597 58.8693 216.733 58.0373 216.115 56.928C215.496 55.7973 215.187 54.3787 215.187 52.672V42.912H219.187V52.128C219.187 53.664 219.528 54.816 220.211 55.584C220.915 56.3307 221.907 56.704 223.187 56.704C224.125 56.704 224.936 56.512 225.619 56.128C226.323 55.744 226.867 55.168 227.251 54.4C227.656 53.632 227.859 52.6827 227.859 51.552V42.912H231.859V60H228.051V55.392L228.723 56.8C228.147 57.9093 227.304 58.7627 226.195 59.36C225.085 59.936 223.869 60.224 222.547 60.224ZM244.392 42.72C245.757 42.72 246.973 42.9867 248.04 43.52C249.128 44.0533 249.981 44.8747 250.6 45.984C251.219 47.072 251.528 48.48 251.528 50.208V60H247.528V50.72C247.528 49.2053 247.165 48.0747 246.44 47.328C245.736 46.5813 244.744 46.208 243.464 46.208C242.525 46.208 241.693 46.4 240.968 46.784C240.243 47.168 239.677 47.744 239.272 48.512C238.888 49.2587 238.696 50.208 238.696 51.36V60H234.696V42.912H238.504V47.52L237.832 46.112C238.429 45.024 239.293 44.192 240.424 43.616C241.576 43.0187 242.899 42.72 244.392 42.72ZM254.202 60V42.912H258.202V60H254.202ZM256.218 40.096C255.471 40.096 254.853 39.8613 254.362 39.392C253.893 38.9227 253.658 38.3573 253.658 37.696C253.658 37.0133 253.893 36.448 254.362 36C254.853 35.5307 255.471 35.296 256.218 35.296C256.965 35.296 257.573 35.52 258.042 35.968C258.533 36.3947 258.778 36.9387 258.778 37.6C258.778 38.304 258.543 38.9013 258.074 39.392C257.605 39.8613 256.986 40.096 256.218 40.096ZM267.484 60.224C265.607 60.224 264.156 59.744 263.132 58.784C262.108 57.8027 261.596 56.3627 261.596 54.464V39.136H265.596V54.368C265.596 55.1787 265.799 55.808 266.204 56.256C266.631 56.704 267.217 56.928 267.964 56.928C268.86 56.928 269.607 56.6933 270.204 56.224L271.324 59.072C270.855 59.456 270.279 59.744 269.596 59.936C268.913 60.128 268.209 60.224 267.484 60.224ZM258.78 46.24V43.04H270.172V46.24H258.78ZM273.31 66.432C272.478 66.432 271.646 66.2933 270.814 66.016C269.982 65.7387 269.289 65.3547 268.734 64.864L270.334 61.92C270.739 62.2827 271.198 62.5707 271.71 62.784C272.222 62.9973 272.745 63.104 273.278 63.104C274.003 63.104 274.59 62.9227 275.038 62.56C275.486 62.1973 275.902 61.5893 276.286 60.736L277.278 58.496L277.598 58.016L284.062 42.912H287.902L279.902 61.376C279.369 62.656 278.771 63.6693 278.11 64.416C277.47 65.1627 276.745 65.6853 275.934 65.984C275.145 66.2827 274.27 66.432 273.31 66.432ZM276.83 60.608L269.118 42.912H273.278L279.55 57.664L276.83 60.608Z" fill="white"/>
</svg>
