<svg viewBox="0 0 321 25" fill="none" xmlns="http://www.w3.org/2000/svg">
<path d="M23.2031 1.86719L18.8438 19H14.707L12.3867 10C12.3398 9.82812 12.2773 9.56641 12.1992 9.21484C12.1211 8.86328 12.0391 8.48047 11.9531 8.06641C11.8672 7.64453 11.7891 7.25 11.7188 6.88281C11.6562 6.50781 11.6133 6.21094 11.5898 5.99219C11.5664 6.21094 11.5195 6.50391 11.4492 6.87109C11.3867 7.23828 11.3125 7.62891 11.2266 8.04297C11.1484 8.45703 11.0703 8.84375 10.9922 9.20312C10.9141 9.5625 10.8516 9.83594 10.8047 10.0234L8.49609 19H4.37109L0 1.86719H3.57422L5.76562 11.2188C5.82812 11.5 5.89844 11.8359 5.97656 12.2266C6.0625 12.6172 6.14453 13.0273 6.22266 13.457C6.30859 13.8789 6.38281 14.2891 6.44531 14.6875C6.51562 15.0781 6.56641 15.418 6.59766 15.707C6.63672 15.4102 6.6875 15.0664 6.75 14.6758C6.8125 14.2773 6.87891 13.875 6.94922 13.4688C7.02734 13.0547 7.10547 12.6719 7.18359 12.3203C7.26172 11.9688 7.33203 11.6836 7.39453 11.4648L9.89062 1.86719H13.3242L15.8203 11.4648C15.875 11.6758 15.9375 11.9609 16.0078 12.3203C16.0859 12.6719 16.1641 13.0547 16.2422 13.4688C16.3203 13.8828 16.3906 14.2891 16.4531 14.6875C16.5234 15.0781 16.5742 15.418 16.6055 15.707C16.6602 15.3164 16.7344 14.8438 16.8281 14.2891C16.9297 13.7266 17.0352 13.168 17.1445 12.6133C17.2617 12.0586 17.3633 11.5938 17.4492 11.2188L19.6289 1.86719H23.2031ZM30.4805 5.65234C31.6914 5.65234 32.7344 5.88672 33.6094 6.35547C34.4844 6.81641 35.1602 7.48828 35.6367 8.37109C36.1133 9.25391 36.3516 10.332 36.3516 11.6055V13.3398H27.9023C27.9414 14.3477 28.2422 15.1406 28.8047 15.7188C29.375 16.2891 30.1641 16.5742 31.1719 16.5742C32.0078 16.5742 32.7734 16.4883 33.4688 16.3164C34.1641 16.1445 34.8789 15.8867 35.6133 15.543V18.3086C34.9648 18.6289 34.2852 18.8633 33.5742 19.0117C32.8711 19.1602 32.0156 19.2344 31.0078 19.2344C29.6953 19.2344 28.5312 18.9922 27.5156 18.5078C26.5078 18.0234 25.7148 17.2852 25.1367 16.293C24.5664 15.3008 24.2812 14.0508 24.2812 12.543C24.2812 11.0117 24.5391 9.73828 25.0547 8.72266C25.5781 7.69922 26.3047 6.93359 27.2344 6.42578C28.1641 5.91016 29.2461 5.65234 30.4805 5.65234ZM30.5039 8.19531C29.8086 8.19531 29.2305 8.41797 28.7695 8.86328C28.3164 9.30859 28.0547 10.0078 27.9844 10.9609H33C32.9922 10.4297 32.8945 9.95703 32.707 9.54297C32.5273 9.12891 32.2539 8.80078 31.8867 8.55859C31.5273 8.31641 31.0664 8.19531 30.5039 8.19531ZM50.8594 5.62891C52.6172 5.62891 53.9648 6.01172 54.9023 6.77734C55.8398 7.54297 56.3086 8.70703 56.3086 10.2695V19H53.8125L53.1211 17.2188H53.0273C52.6523 17.6875 52.2695 18.0703 51.8789 18.3672C51.4883 18.6641 51.0391 18.8828 50.5312 19.0234C50.0234 19.1641 49.4062 19.2344 48.6797 19.2344C47.9062 19.2344 47.2109 19.0859 46.5938 18.7891C45.9844 18.4922 45.5039 18.0391 45.1523 17.4297C44.8008 16.8125 44.625 16.0312 44.625 15.0859C44.625 13.6953 45.1133 12.6719 46.0898 12.0156C47.0664 11.3516 48.5312 10.9844 50.4844 10.9141L52.7578 10.8438V10.2695C52.7578 9.58203 52.5781 9.07812 52.2188 8.75781C51.8594 8.4375 51.3594 8.27734 50.7188 8.27734C50.0859 8.27734 49.4648 8.36719 48.8555 8.54688C48.2461 8.72656 47.6367 8.95312 47.0273 9.22656L45.8438 6.8125C46.5391 6.44531 47.3164 6.15625 48.1758 5.94531C49.043 5.73438 49.9375 5.62891 50.8594 5.62891ZM52.7578 12.9297L51.375 12.9766C50.2188 13.0078 49.4141 13.2148 48.9609 13.5977C48.5156 13.9805 48.293 14.4844 48.293 15.1094C48.293 15.6562 48.4531 16.0469 48.7734 16.2812C49.0938 16.5078 49.5117 16.6211 50.0273 16.6211C50.793 16.6211 51.4375 16.3945 51.9609 15.9414C52.4922 15.4883 52.7578 14.8438 52.7578 14.0078V12.9297ZM67.3125 5.65234C67.4922 5.65234 67.6992 5.66406 67.9336 5.6875C68.1758 5.70312 68.3711 5.72656 68.5195 5.75781L68.25 9.10938C68.1328 9.07031 67.9648 9.04297 67.7461 9.02734C67.5352 9.00391 67.3516 8.99219 67.1953 8.99219C66.7344 8.99219 66.2852 9.05078 65.8477 9.16797C65.418 9.28516 65.0312 9.47656 64.6875 9.74219C64.3438 10 64.0703 10.3438 63.8672 10.7734C63.6719 11.1953 63.5742 11.7148 63.5742 12.332V19H60V5.89844H62.707L63.2344 8.10156H63.4102C63.668 7.65625 63.9883 7.25 64.3711 6.88281C64.7617 6.50781 65.2031 6.21094 65.6953 5.99219C66.1953 5.76562 66.7344 5.65234 67.3125 5.65234ZM76.3008 5.65234C77.5117 5.65234 78.5547 5.88672 79.4297 6.35547C80.3047 6.81641 80.9805 7.48828 81.457 8.37109C81.9336 9.25391 82.1719 10.332 82.1719 11.6055V13.3398H73.7227C73.7617 14.3477 74.0625 15.1406 74.625 15.7188C75.1953 16.2891 75.9844 16.5742 76.9922 16.5742C77.8281 16.5742 78.5938 16.4883 79.2891 16.3164C79.9844 16.1445 80.6992 15.8867 81.4336 15.543V18.3086C80.7852 18.6289 80.1055 18.8633 79.3945 19.0117C78.6914 19.1602 77.8359 19.2344 76.8281 19.2344C75.5156 19.2344 74.3516 18.9922 73.3359 18.5078C72.3281 18.0234 71.5352 17.2852 70.957 16.293C70.3867 15.3008 70.1016 14.0508 70.1016 12.543C70.1016 11.0117 70.3594 9.73828 70.875 8.72266C71.3984 7.69922 72.125 6.93359 73.0547 6.42578C73.9844 5.91016 75.0664 5.65234 76.3008 5.65234ZM76.3242 8.19531C75.6289 8.19531 75.0508 8.41797 74.5898 8.86328C74.1367 9.30859 73.875 10.0078 73.8047 10.9609H78.8203C78.8125 10.4297 78.7148 9.95703 78.5273 9.54297C78.3477 9.12891 78.0742 8.80078 77.707 8.55859C77.3477 8.31641 76.8867 8.19531 76.3242 8.19531ZM100.453 15.1094C100.453 16 100.242 16.7539 99.8203 17.3711C99.4062 17.9805 98.7852 18.4453 97.957 18.7656C97.1289 19.0781 96.0977 19.2344 94.8633 19.2344C93.9492 19.2344 93.1641 19.1758 92.5078 19.0586C91.8594 18.9414 91.2031 18.7461 90.5391 18.4727V15.5195C91.25 15.8398 92.0117 16.1055 92.8242 16.3164C93.6445 16.5195 94.3633 16.6211 94.9805 16.6211C95.6758 16.6211 96.1719 16.5195 96.4688 16.3164C96.7734 16.1055 96.9258 15.832 96.9258 15.4961C96.9258 15.2773 96.8633 15.082 96.7383 14.9102C96.6211 14.7305 96.3633 14.5312 95.9648 14.3125C95.5664 14.0859 94.9414 13.793 94.0898 13.4336C93.2695 13.0898 92.5938 12.7422 92.0625 12.3906C91.5391 12.0391 91.1484 11.625 90.8906 11.1484C90.6406 10.6641 90.5156 10.0508 90.5156 9.30859C90.5156 8.09766 90.9844 7.1875 91.9219 6.57812C92.8672 5.96094 94.1289 5.65234 95.707 5.65234C96.5195 5.65234 97.293 5.73438 98.0273 5.89844C98.7695 6.0625 99.5312 6.32422 100.312 6.68359L99.2344 9.26172C98.5859 8.98047 97.9727 8.75 97.3945 8.57031C96.8242 8.39062 96.2422 8.30078 95.6484 8.30078C95.125 8.30078 94.7305 8.37109 94.4648 8.51172C94.1992 8.65234 94.0664 8.86719 94.0664 9.15625C94.0664 9.36719 94.1328 9.55469 94.2656 9.71875C94.4062 9.88281 94.6719 10.0664 95.0625 10.2695C95.4609 10.4648 96.043 10.7188 96.8086 11.0312C97.5508 11.3359 98.1953 11.6562 98.7422 11.9922C99.2891 12.3203 99.7109 12.7305 100.008 13.2227C100.305 13.707 100.453 14.3359 100.453 15.1094ZM115.148 12.4258C115.148 13.5195 115 14.4883 114.703 15.332C114.414 16.1758 113.988 16.8906 113.426 17.4766C112.871 18.0547 112.199 18.4922 111.41 18.7891C110.629 19.0859 109.746 19.2344 108.762 19.2344C107.84 19.2344 106.992 19.0859 106.219 18.7891C105.453 18.4922 104.785 18.0547 104.215 17.4766C103.652 16.8906 103.215 16.1758 102.902 15.332C102.598 14.4883 102.445 13.5195 102.445 12.4258C102.445 10.9727 102.703 9.74219 103.219 8.73438C103.734 7.72656 104.469 6.96094 105.422 6.4375C106.375 5.91406 107.512 5.65234 108.832 5.65234C110.059 5.65234 111.145 5.91406 112.09 6.4375C113.043 6.96094 113.789 7.72656 114.328 8.73438C114.875 9.74219 115.148 10.9727 115.148 12.4258ZM106.09 12.4258C106.09 13.2852 106.184 14.0078 106.371 14.5938C106.559 15.1797 106.852 15.6211 107.25 15.918C107.648 16.2148 108.168 16.3633 108.809 16.3633C109.441 16.3633 109.953 16.2148 110.344 15.918C110.742 15.6211 111.031 15.1797 111.211 14.5938C111.398 14.0078 111.492 13.2852 111.492 12.4258C111.492 11.5586 111.398 10.8398 111.211 10.2695C111.031 9.69141 110.742 9.25781 110.344 8.96875C109.945 8.67969 109.426 8.53516 108.785 8.53516C107.84 8.53516 107.152 8.85938 106.723 9.50781C106.301 10.1562 106.09 11.1289 106.09 12.4258ZM128.168 24.7656C126.34 24.7656 124.941 24.4453 123.973 23.8047C123.012 23.1719 122.531 22.2812 122.531 21.1328C122.531 20.3438 122.777 19.6836 123.27 19.1523C123.762 18.6211 124.484 18.2422 125.438 18.0156C125.07 17.8594 124.75 17.6055 124.477 17.2539C124.203 16.8945 124.066 16.5156 124.066 16.1172C124.066 15.6172 124.211 15.2031 124.5 14.875C124.789 14.5391 125.207 14.2109 125.754 13.8906C125.066 13.5938 124.52 13.1172 124.113 12.4609C123.715 11.8047 123.516 11.0312 123.516 10.1406C123.516 9.1875 123.723 8.37891 124.137 7.71484C124.559 7.04297 125.168 6.53125 125.965 6.17969C126.77 5.82812 127.746 5.65234 128.895 5.65234C129.137 5.65234 129.418 5.66797 129.738 5.69922C130.059 5.73047 130.352 5.76562 130.617 5.80469C130.891 5.84375 131.074 5.875 131.168 5.89844H135.738V7.71484L133.688 8.24219C133.875 8.53125 134.016 8.83984 134.109 9.16797C134.203 9.49609 134.25 9.84375 134.25 10.2109C134.25 11.6172 133.758 12.7148 132.773 13.5039C131.797 14.2852 130.438 14.6758 128.695 14.6758C128.281 14.6523 127.891 14.6211 127.523 14.582C127.344 14.7227 127.207 14.8711 127.113 15.0273C127.02 15.1836 126.973 15.3477 126.973 15.5195C126.973 15.6914 127.043 15.8359 127.184 15.9531C127.332 16.0625 127.551 16.1484 127.84 16.2109C128.137 16.2656 128.504 16.293 128.941 16.293H131.168C132.605 16.293 133.699 16.6016 134.449 17.2188C135.207 17.8359 135.586 18.7422 135.586 19.9375C135.586 21.4688 134.945 22.6562 133.664 23.5C132.391 24.3438 130.559 24.7656 128.168 24.7656ZM128.32 22.4336C129.172 22.4336 129.902 22.3516 130.512 22.1875C131.129 22.0312 131.602 21.8047 131.93 21.5078C132.258 21.2188 132.422 20.8711 132.422 20.4648C132.422 20.1367 132.324 19.875 132.129 19.6797C131.941 19.4922 131.652 19.3594 131.262 19.2812C130.879 19.2031 130.387 19.1641 129.785 19.1641H127.934C127.496 19.1641 127.102 19.2344 126.75 19.375C126.406 19.5156 126.133 19.7109 125.93 19.9609C125.727 20.2188 125.625 20.5156 125.625 20.8516C125.625 21.3438 125.859 21.7305 126.328 22.0117C126.805 22.293 127.469 22.4336 128.32 22.4336ZM128.895 12.4961C129.566 12.4961 130.059 12.2891 130.371 11.875C130.684 11.4609 130.84 10.8984 130.84 10.1875C130.84 9.39844 130.676 8.80859 130.348 8.41797C130.027 8.01953 129.543 7.82031 128.895 7.82031C128.238 7.82031 127.746 8.01953 127.418 8.41797C127.09 8.80859 126.926 9.39844 126.926 10.1875C126.926 10.8984 127.086 11.4609 127.406 11.875C127.734 12.2891 128.23 12.4961 128.895 12.4961ZM141.48 19H137.906V0.765625H141.48V19ZM150.609 5.62891C152.367 5.62891 153.715 6.01172 154.652 6.77734C155.59 7.54297 156.059 8.70703 156.059 10.2695V19H153.562L152.871 17.2188H152.777C152.402 17.6875 152.02 18.0703 151.629 18.3672C151.238 18.6641 150.789 18.8828 150.281 19.0234C149.773 19.1641 149.156 19.2344 148.43 19.2344C147.656 19.2344 146.961 19.0859 146.344 18.7891C145.734 18.4922 145.254 18.0391 144.902 17.4297C144.551 16.8125 144.375 16.0312 144.375 15.0859C144.375 13.6953 144.863 12.6719 145.84 12.0156C146.816 11.3516 148.281 10.9844 150.234 10.9141L152.508 10.8438V10.2695C152.508 9.58203 152.328 9.07812 151.969 8.75781C151.609 8.4375 151.109 8.27734 150.469 8.27734C149.836 8.27734 149.215 8.36719 148.605 8.54688C147.996 8.72656 147.387 8.95312 146.777 9.22656L145.594 6.8125C146.289 6.44531 147.066 6.15625 147.926 5.94531C148.793 5.73438 149.688 5.62891 150.609 5.62891ZM152.508 12.9297L151.125 12.9766C149.969 13.0078 149.164 13.2148 148.711 13.5977C148.266 13.9805 148.043 14.4844 148.043 15.1094C148.043 15.6562 148.203 16.0469 148.523 16.2812C148.844 16.5078 149.262 16.6211 149.777 16.6211C150.543 16.6211 151.188 16.3945 151.711 15.9414C152.242 15.4883 152.508 14.8438 152.508 14.0078V12.9297ZM163.898 19.2344C162.438 19.2344 161.246 18.6641 160.324 17.5234C159.41 16.375 158.953 14.6914 158.953 12.4727C158.953 10.2305 159.418 8.53516 160.348 7.38672C161.277 6.23047 162.492 5.65234 163.992 5.65234C164.617 5.65234 165.168 5.73828 165.645 5.91016C166.121 6.08203 166.531 6.3125 166.875 6.60156C167.227 6.89062 167.523 7.21484 167.766 7.57422H167.883C167.836 7.32422 167.777 6.95703 167.707 6.47266C167.645 5.98047 167.613 5.47656 167.613 4.96094V0.765625H171.199V19H168.457L167.766 17.3008H167.613C167.387 17.6602 167.102 17.9883 166.758 18.2852C166.422 18.5742 166.02 18.8047 165.551 18.9766C165.082 19.1484 164.531 19.2344 163.898 19.2344ZM165.152 16.3867C166.129 16.3867 166.816 16.0977 167.215 15.5195C167.621 14.9336 167.836 14.0547 167.859 12.8828V12.4961C167.859 11.2227 167.664 10.25 167.273 9.57812C166.883 8.89844 166.156 8.55859 165.094 8.55859C164.305 8.55859 163.688 8.89844 163.242 9.57812C162.797 10.2578 162.574 11.2383 162.574 12.5195C162.574 13.8008 162.797 14.7656 163.242 15.4141C163.695 16.0625 164.332 16.3867 165.152 16.3867ZM179.297 5.89844H183.211L185.684 13.2695C185.762 13.5039 185.828 13.7422 185.883 13.9844C185.938 14.2266 185.984 14.4766 186.023 14.7344C186.062 14.9922 186.094 15.2617 186.117 15.543H186.188C186.234 15.1211 186.297 14.7266 186.375 14.3594C186.461 13.9922 186.566 13.6289 186.691 13.2695L189.117 5.89844H192.949L187.406 20.6758C187.07 21.582 186.633 22.3359 186.094 22.9375C185.555 23.5469 184.934 24.0039 184.23 24.3086C183.535 24.6133 182.77 24.7656 181.934 24.7656C181.527 24.7656 181.176 24.7422 180.879 24.6953C180.582 24.6562 180.328 24.6133 180.117 24.5664V21.7305C180.281 21.7695 180.488 21.8047 180.738 21.8359C180.988 21.8672 181.25 21.8828 181.523 21.8828C182.023 21.8828 182.453 21.7773 182.812 21.5664C183.172 21.3555 183.473 21.0703 183.715 20.7109C183.957 20.3594 184.148 19.9727 184.289 19.5508L184.5 18.9062L179.297 5.89844ZM206.742 12.4258C206.742 13.5195 206.594 14.4883 206.297 15.332C206.008 16.1758 205.582 16.8906 205.02 17.4766C204.465 18.0547 203.793 18.4922 203.004 18.7891C202.223 19.0859 201.34 19.2344 200.355 19.2344C199.434 19.2344 198.586 19.0859 197.812 18.7891C197.047 18.4922 196.379 18.0547 195.809 17.4766C195.246 16.8906 194.809 16.1758 194.496 15.332C194.191 14.4883 194.039 13.5195 194.039 12.4258C194.039 10.9727 194.297 9.74219 194.812 8.73438C195.328 7.72656 196.062 6.96094 197.016 6.4375C197.969 5.91406 199.105 5.65234 200.426 5.65234C201.652 5.65234 202.738 5.91406 203.684 6.4375C204.637 6.96094 205.383 7.72656 205.922 8.73438C206.469 9.74219 206.742 10.9727 206.742 12.4258ZM197.684 12.4258C197.684 13.2852 197.777 14.0078 197.965 14.5938C198.152 15.1797 198.445 15.6211 198.844 15.918C199.242 16.2148 199.762 16.3633 200.402 16.3633C201.035 16.3633 201.547 16.2148 201.938 15.918C202.336 15.6211 202.625 15.1797 202.805 14.5938C202.992 14.0078 203.086 13.2852 203.086 12.4258C203.086 11.5586 202.992 10.8398 202.805 10.2695C202.625 9.69141 202.336 9.25781 201.938 8.96875C201.539 8.67969 201.02 8.53516 200.379 8.53516C199.434 8.53516 198.746 8.85938 198.316 9.50781C197.895 10.1562 197.684 11.1289 197.684 12.4258ZM221.719 5.89844V19H218.977L218.496 17.3242H218.309C218.027 17.7695 217.676 18.1328 217.254 18.4141C216.832 18.6953 216.367 18.9023 215.859 19.0352C215.352 19.168 214.824 19.2344 214.277 19.2344C213.34 19.2344 212.523 19.0703 211.828 18.7422C211.133 18.4062 210.59 17.8867 210.199 17.1836C209.816 16.4805 209.625 15.5664 209.625 14.4414V5.89844H213.199V13.5508C213.199 14.4883 213.367 15.1953 213.703 15.6719C214.039 16.1484 214.574 16.3867 215.309 16.3867C216.035 16.3867 216.605 16.2227 217.02 15.8945C217.434 15.5586 217.723 15.0703 217.887 14.4297C218.059 13.7812 218.145 12.9922 218.145 12.0625V5.89844H221.719ZM228.352 1.86719L228.516 2.125C228.375 2.69531 228.191 3.30469 227.965 3.95312C227.746 4.59375 227.504 5.23828 227.238 5.88672C226.98 6.53516 226.719 7.15234 226.453 7.73828H223.887C223.996 7.26953 224.105 6.77734 224.215 6.26172C224.332 5.74609 224.441 5.23047 224.543 4.71484C224.652 4.19922 224.75 3.69922 224.836 3.21484C224.922 2.73047 224.996 2.28125 225.059 1.86719H228.352ZM237.984 5.65234C238.164 5.65234 238.371 5.66406 238.605 5.6875C238.848 5.70312 239.043 5.72656 239.191 5.75781L238.922 9.10938C238.805 9.07031 238.637 9.04297 238.418 9.02734C238.207 9.00391 238.023 8.99219 237.867 8.99219C237.406 8.99219 236.957 9.05078 236.52 9.16797C236.09 9.28516 235.703 9.47656 235.359 9.74219C235.016 10 234.742 10.3438 234.539 10.7734C234.344 11.1953 234.246 11.7148 234.246 12.332V19H230.672V5.89844H233.379L233.906 8.10156H234.082C234.34 7.65625 234.66 7.25 235.043 6.88281C235.434 6.50781 235.875 6.21094 236.367 5.99219C236.867 5.76562 237.406 5.65234 237.984 5.65234ZM246.973 5.65234C248.184 5.65234 249.227 5.88672 250.102 6.35547C250.977 6.81641 251.652 7.48828 252.129 8.37109C252.605 9.25391 252.844 10.332 252.844 11.6055V13.3398H244.395C244.434 14.3477 244.734 15.1406 245.297 15.7188C245.867 16.2891 246.656 16.5742 247.664 16.5742C248.5 16.5742 249.266 16.4883 249.961 16.3164C250.656 16.1445 251.371 15.8867 252.105 15.543V18.3086C251.457 18.6289 250.777 18.8633 250.066 19.0117C249.363 19.1602 248.508 19.2344 247.5 19.2344C246.188 19.2344 245.023 18.9922 244.008 18.5078C243 18.0234 242.207 17.2852 241.629 16.293C241.059 15.3008 240.773 14.0508 240.773 12.543C240.773 11.0117 241.031 9.73828 241.547 8.72266C242.07 7.69922 242.797 6.93359 243.727 6.42578C244.656 5.91016 245.738 5.65234 246.973 5.65234ZM246.996 8.19531C246.301 8.19531 245.723 8.41797 245.262 8.86328C244.809 9.30859 244.547 10.0078 244.477 10.9609H249.492C249.484 10.4297 249.387 9.95703 249.199 9.54297C249.02 9.12891 248.746 8.80078 248.379 8.55859C248.02 8.31641 247.559 8.19531 246.996 8.19531ZM265.559 0.765625V4.48047C265.559 5.12891 265.535 5.74609 265.488 6.33203C265.449 6.91797 265.418 7.33203 265.395 7.57422H265.582C265.863 7.12109 266.195 6.75391 266.578 6.47266C266.969 6.19141 267.398 5.98438 267.867 5.85156C268.336 5.71875 268.84 5.65234 269.379 5.65234C270.324 5.65234 271.148 5.82031 271.852 6.15625C272.555 6.48438 273.102 7.00391 273.492 7.71484C273.883 8.41797 274.078 9.33203 274.078 10.457V19H270.504V11.3477C270.504 10.4102 270.332 9.70312 269.988 9.22656C269.645 8.75 269.113 8.51172 268.395 8.51172C267.676 8.51172 267.109 8.67969 266.695 9.01562C266.281 9.34375 265.988 9.83203 265.816 10.4805C265.645 11.1211 265.559 11.9062 265.559 12.8359V19H261.984V0.765625H265.559ZM283.16 5.65234C284.371 5.65234 285.414 5.88672 286.289 6.35547C287.164 6.81641 287.84 7.48828 288.316 8.37109C288.793 9.25391 289.031 10.332 289.031 11.6055V13.3398H280.582C280.621 14.3477 280.922 15.1406 281.484 15.7188C282.055 16.2891 282.844 16.5742 283.852 16.5742C284.688 16.5742 285.453 16.4883 286.148 16.3164C286.844 16.1445 287.559 15.8867 288.293 15.543V18.3086C287.645 18.6289 286.965 18.8633 286.254 19.0117C285.551 19.1602 284.695 19.2344 283.688 19.2344C282.375 19.2344 281.211 18.9922 280.195 18.5078C279.188 18.0234 278.395 17.2852 277.816 16.293C277.246 15.3008 276.961 14.0508 276.961 12.543C276.961 11.0117 277.219 9.73828 277.734 8.72266C278.258 7.69922 278.984 6.93359 279.914 6.42578C280.844 5.91016 281.926 5.65234 283.16 5.65234ZM283.184 8.19531C282.488 8.19531 281.91 8.41797 281.449 8.86328C280.996 9.30859 280.734 10.0078 280.664 10.9609H285.68C285.672 10.4297 285.574 9.95703 285.387 9.54297C285.207 9.12891 284.934 8.80078 284.566 8.55859C284.207 8.31641 283.746 8.19531 283.184 8.19531ZM299.25 5.65234C299.43 5.65234 299.637 5.66406 299.871 5.6875C300.113 5.70312 300.309 5.72656 300.457 5.75781L300.188 9.10938C300.07 9.07031 299.902 9.04297 299.684 9.02734C299.473 9.00391 299.289 8.99219 299.133 8.99219C298.672 8.99219 298.223 9.05078 297.785 9.16797C297.355 9.28516 296.969 9.47656 296.625 9.74219C296.281 10 296.008 10.3438 295.805 10.7734C295.609 11.1953 295.512 11.7148 295.512 12.332V19H291.938V5.89844H294.645L295.172 8.10156H295.348C295.605 7.65625 295.926 7.25 296.309 6.88281C296.699 6.50781 297.141 6.21094 297.633 5.99219C298.133 5.76562 298.672 5.65234 299.25 5.65234ZM308.238 5.65234C309.449 5.65234 310.492 5.88672 311.367 6.35547C312.242 6.81641 312.918 7.48828 313.395 8.37109C313.871 9.25391 314.109 10.332 314.109 11.6055V13.3398H305.66C305.699 14.3477 306 15.1406 306.562 15.7188C307.133 16.2891 307.922 16.5742 308.93 16.5742C309.766 16.5742 310.531 16.4883 311.227 16.3164C311.922 16.1445 312.637 15.8867 313.371 15.543V18.3086C312.723 18.6289 312.043 18.8633 311.332 19.0117C310.629 19.1602 309.773 19.2344 308.766 19.2344C307.453 19.2344 306.289 18.9922 305.273 18.5078C304.266 18.0234 303.473 17.2852 302.895 16.293C302.324 15.3008 302.039 14.0508 302.039 12.543C302.039 11.0117 302.297 9.73828 302.812 8.72266C303.336 7.69922 304.062 6.93359 304.992 6.42578C305.922 5.91016 307.004 5.65234 308.238 5.65234ZM308.262 8.19531C307.566 8.19531 306.988 8.41797 306.527 8.86328C306.074 9.30859 305.812 10.0078 305.742 10.9609H310.758C310.75 10.4297 310.652 9.95703 310.465 9.54297C310.285 9.12891 310.012 8.80078 309.645 8.55859C309.285 8.31641 308.824 8.19531 308.262 8.19531ZM320.016 13.3164H317.156L316.559 1.86719H320.613L320.016 13.3164ZM316.512 17.3242C316.512 16.5898 316.711 16.0742 317.109 15.7773C317.516 15.4805 318.004 15.332 318.574 15.332C319.129 15.332 319.605 15.4805 320.004 15.7773C320.41 16.0742 320.613 16.5898 320.613 17.3242C320.613 18.0273 320.41 18.5352 320.004 18.8477C319.605 19.1602 319.129 19.3164 318.574 19.3164C318.004 19.3164 317.516 19.1602 317.109 18.8477C316.711 18.5352 316.512 18.0273 316.512 17.3242Z" fill="white"/>
</svg>
