<svg width="64" height="45" viewBox="0 0 64 45" fill="none" xmlns="http://www.w3.org/2000/svg">
<path d="M30.8687 9.82649L26.0779 14.5028C25.9908 14.4388 25.9078 14.3696 25.8293 14.2956C24.3981 12.8972 22.9594 11.4987 21.5433 10.0781C21.2344 9.7599 21.0461 9.78949 20.7524 10.0781C16.7852 13.9996 12.8105 17.9163 8.82822 21.828C8.25575 22.3904 7.66821 22.9305 7.11833 23.515C6.93113 23.719 6.82195 23.9806 6.80949 24.255C6.80949 28.7537 6.80949 33.2598 6.80949 37.7659C6.80949 38.1581 6.91496 38.2987 7.33678 38.2987H35.0794C35.4937 38.2987 35.6142 38.1581 35.6142 37.7659C35.6142 33.2746 35.6142 28.7907 35.6142 24.2993C35.6012 24.0651 35.5053 23.8426 35.343 23.6704C34.6726 22.9675 33.9721 22.2942 33.264 21.6282C33.0079 21.3841 33.0004 21.2213 33.264 20.9623C34.7705 19.4825 36.2093 18.0026 37.7233 16.4636L40.5857 19.3123C41.1055 19.8302 41.6478 20.3334 42.1525 20.8735C42.3034 21.0362 42.3913 21.2456 42.4011 21.4655C42.4011 29.131 42.4011 36.7966 42.4011 44.4622C42.4011 44.884 42.2655 44.9654 41.8738 44.9654H0.549889C0.112997 44.9654 0 44.8396 0 44.4252C0 36.7892 0 29.1557 0 21.5246C0.00649754 21.2504 0.113498 20.9877 0.301323 20.7847C7.12085 14.0564 13.9404 7.33542 20.7599 0.621868C21.0085 0.377694 21.1817 0.237119 21.5132 0.562685C24.5262 3.52237 27.5393 6.48206 30.5523 9.44174C30.6653 9.57493 30.7632 9.7155 30.8687 9.82649Z" fill="white"/>
<path d="M63.7256 32.9638V44.1884C63.7256 44.8543 63.7256 44.8543 63.0702 44.8543H44.6229C43.9751 44.8543 43.975 44.8543 43.975 44.2328C43.975 42.4274 43.975 40.6294 43.975 38.824C43.975 38.4096 44.0805 38.2839 44.5174 38.2839C48.457 38.2839 52.3965 38.2839 56.3361 38.2839C56.9763 38.2839 56.9764 38.2838 56.9764 37.6549V24.3363C56.9895 24.1867 56.9686 24.036 56.9152 23.8952C56.8618 23.7545 56.7772 23.6271 56.6675 23.5224C52.1479 19.0829 47.6284 14.6434 43.1088 10.2038C42.5589 9.66369 42.5439 9.66369 42.0015 10.2038C37.4819 14.6434 32.9749 19.0829 28.4805 23.5224C28.2762 23.7406 28.1609 24.0251 28.1566 24.3215C28.1566 28.3171 28.1566 32.3176 28.1566 36.3231C28.1566 36.7596 28.0436 36.8928 27.5841 36.8854C25.6859 36.8854 23.7877 36.8854 21.8894 36.8854C21.3998 36.8854 21.3019 36.73 21.3019 36.2861C21.3019 31.442 21.3019 26.6005 21.3019 21.7614C21.2969 21.5892 21.3301 21.418 21.399 21.2596C21.4679 21.1012 21.571 20.9594 21.7011 20.8439C26.8836 15.7779 32.061 10.7045 37.2334 5.62372C38.868 4.01809 40.5251 2.41986 42.1446 0.792034C42.4911 0.444271 42.6644 0.488666 42.9883 0.792034C47.6886 5.42394 52.3965 10.0485 57.1119 14.6656C59.1834 16.6929 61.2398 18.7351 63.3188 20.7477C63.4696 20.8863 63.588 21.0552 63.666 21.243C63.744 21.4307 63.7797 21.6328 63.7708 21.8354C63.7356 25.5449 63.7205 29.2543 63.7256 32.9638Z" fill="white"/>
</svg>
