<svg viewBox="0 0 543 83" fill="none" xmlns="http://www.w3.org/2000/svg">
<g clip-path="url(#clip0_175_1567)">
<path d="M266.5 0C251.925 0 240 11.925 240 26.5C240 41.075 251.925 53 266.5 53C281.075 53 293 41.075 293 26.5C293 11.925 281.075 0 266.5 0ZM277.63 21.995L264.91 34.715C263.85 35.775 262.26 35.775 261.2 34.715L255.37 28.885C254.31 27.825 254.31 26.235 255.37 25.175C256.43 24.115 258.02 24.115 259.08 25.175L263.055 29.15L273.92 18.285C274.98 17.225 276.57 17.225 277.63 18.285C278.69 19.345 278.69 20.935 277.63 21.995Z" fill="#737373" fill-opacity="0.98"/>
</g>
<path d="M11.1172 72.1133C11.1172 72.9596 10.9089 73.6888 10.4922 74.3008C10.082 74.9128 9.48958 75.3815 8.71484 75.707C7.94661 76.0326 7.02865 76.1953 5.96094 76.1953C5.4401 76.1953 4.94206 76.166 4.4668 76.1074C3.99154 76.0488 3.54232 75.9642 3.11914 75.8535C2.70247 75.7363 2.32161 75.5964 1.97656 75.4336V73.2266C2.55599 73.4805 3.20378 73.7116 3.91992 73.9199C4.63607 74.1217 5.36523 74.2227 6.10742 74.2227C6.71289 74.2227 7.21419 74.1445 7.61133 73.9883C8.01497 73.8255 8.31445 73.5977 8.50977 73.3047C8.70508 73.0052 8.80273 72.6569 8.80273 72.2598C8.80273 71.8366 8.6888 71.4785 8.46094 71.1855C8.23307 70.8926 7.88802 70.6257 7.42578 70.3848C6.97005 70.1374 6.39714 69.8737 5.70703 69.5938C5.23828 69.4049 4.78906 69.1901 4.35938 68.9492C3.9362 68.7083 3.55859 68.4251 3.22656 68.0996C2.89453 67.7741 2.63086 67.39 2.43555 66.9473C2.24674 66.498 2.15234 65.9707 2.15234 65.3652C2.15234 64.5579 2.3444 63.8678 2.72852 63.2949C3.11914 62.722 3.66602 62.2826 4.36914 61.9766C5.07878 61.6706 5.9056 61.5176 6.84961 61.5176C7.59831 61.5176 8.30143 61.5957 8.95898 61.752C9.62305 61.9082 10.2741 62.1296 10.9121 62.416L10.1699 64.3008C9.58398 64.0599 9.01432 63.8678 8.46094 63.7246C7.91406 63.5814 7.35417 63.5098 6.78125 63.5098C6.28646 63.5098 5.86654 63.5846 5.52148 63.7344C5.17643 63.8841 4.91276 64.0957 4.73047 64.3691C4.55469 64.6361 4.4668 64.9551 4.4668 65.3262C4.4668 65.7428 4.56771 66.0944 4.76953 66.3809C4.97786 66.6608 5.29688 66.918 5.72656 67.1523C6.16276 67.3867 6.72266 67.6471 7.40625 67.9336C8.19401 68.2591 8.86133 68.6009 9.4082 68.959C9.96159 69.3171 10.3848 69.7467 10.6777 70.248C10.9707 70.7428 11.1172 71.3646 11.1172 72.1133ZM15.9316 65.1895V76H13.6367V65.1895H15.9316ZM14.7988 61.0488C15.1504 61.0488 15.4531 61.1432 15.707 61.332C15.9674 61.5208 16.0977 61.8464 16.0977 62.3086C16.0977 62.7643 15.9674 63.0898 15.707 63.2852C15.4531 63.474 15.1504 63.5684 14.7988 63.5684C14.4342 63.5684 14.125 63.474 13.8711 63.2852C13.6237 63.0898 13.5 62.7643 13.5 62.3086C13.5 61.8464 13.6237 61.5208 13.8711 61.332C14.125 61.1432 14.4342 61.0488 14.7988 61.0488ZM22.3086 80.8047C20.8438 80.8047 19.7207 80.541 18.9395 80.0137C18.1582 79.4863 17.7676 78.7474 17.7676 77.7969C17.7676 77.1328 17.9759 76.5697 18.3926 76.1074C18.8092 75.6517 19.4049 75.3359 20.1797 75.1602C19.8867 75.0299 19.6328 74.8281 19.418 74.5547C19.2096 74.2747 19.1055 73.9655 19.1055 73.627C19.1055 73.2233 19.2194 72.8783 19.4473 72.5918C19.6751 72.3053 20.0169 72.0286 20.4727 71.7617C19.9062 71.5208 19.4505 71.1302 19.1055 70.5898C18.7669 70.043 18.5977 69.4017 18.5977 68.666C18.5977 67.8848 18.7637 67.2207 19.0957 66.6738C19.4277 66.1204 19.9128 65.7005 20.5508 65.4141C21.1888 65.1211 21.9603 64.9746 22.8652 64.9746C23.0605 64.9746 23.2721 64.9876 23.5 65.0137C23.7344 65.0332 23.9492 65.0592 24.1445 65.0918C24.3464 65.1178 24.4993 65.1471 24.6035 65.1797H28.3438V66.459L26.5078 66.8008C26.6836 67.0482 26.8236 67.3314 26.9277 67.6504C27.0319 67.9629 27.084 68.3047 27.084 68.6758C27.084 69.7956 26.6966 70.6777 25.9219 71.3223C25.1536 71.9603 24.0924 72.2793 22.7383 72.2793C22.4128 72.2663 22.097 72.2402 21.791 72.2012C21.5566 72.3444 21.3776 72.5039 21.2539 72.6797C21.1302 72.849 21.0684 73.041 21.0684 73.2559C21.0684 73.4316 21.1302 73.5749 21.2539 73.6855C21.3776 73.7897 21.5599 73.8678 21.8008 73.9199C22.0482 73.972 22.3477 73.998 22.6992 73.998H24.5645C25.7493 73.998 26.6543 74.2487 27.2793 74.75C27.9043 75.2513 28.2168 75.987 28.2168 76.957C28.2168 78.1875 27.709 79.1348 26.6934 79.7988C25.6777 80.4694 24.2161 80.8047 22.3086 80.8047ZM22.3965 79.1934C23.1973 79.1934 23.8711 79.1152 24.418 78.959C24.9648 78.8027 25.3783 78.5781 25.6582 78.2852C25.9382 77.9987 26.0781 77.6569 26.0781 77.2598C26.0781 76.9082 25.9902 76.638 25.8145 76.4492C25.6387 76.2604 25.375 76.1302 25.0234 76.0586C24.6719 75.987 24.2357 75.9512 23.7148 75.9512H22.0156C21.5924 75.9512 21.2181 76.0163 20.8926 76.1465C20.5671 76.2832 20.3132 76.4785 20.1309 76.7324C19.9551 76.9863 19.8672 77.2923 19.8672 77.6504C19.8672 78.1452 20.0853 78.526 20.5215 78.793C20.9642 79.0599 21.5892 79.1934 22.3965 79.1934ZM22.8457 70.7754C23.5163 70.7754 24.0143 70.5931 24.3398 70.2285C24.6654 69.8574 24.8281 69.3366 24.8281 68.666C24.8281 67.9368 24.6589 67.39 24.3203 67.0254C23.9883 66.6608 23.4935 66.4785 22.8359 66.4785C22.1914 66.4785 21.6999 66.6641 21.3613 67.0352C21.0293 67.4062 20.8633 67.9564 20.8633 68.6855C20.8633 69.3431 21.0293 69.8574 21.3613 70.2285C21.6999 70.5931 22.1947 70.7754 22.8457 70.7754ZM35.9512 64.9844C37.1686 64.9844 38.1159 65.3001 38.793 65.9316C39.4766 66.5566 39.8184 67.5625 39.8184 68.9492V76H37.5234V69.3789C37.5234 68.5391 37.3509 67.9108 37.0059 67.4941C36.6608 67.071 36.127 66.8594 35.4043 66.8594C34.3561 66.8594 33.627 67.1816 33.2168 67.8262C32.8132 68.4707 32.6113 69.4049 32.6113 70.6289V76H30.3164V65.1895H32.1035L32.4258 66.6543H32.5527C32.7871 66.2767 33.0768 65.9674 33.4219 65.7266C33.7734 65.4792 34.1641 65.2936 34.5938 65.1699C35.0299 65.0462 35.4824 64.9844 35.9512 64.9844ZM42.0938 71.6055V69.6621H47.1328V71.6055H42.0938ZM58.9004 65.1895V76H57.0938L56.7812 74.5449H56.6543C56.4264 74.916 56.1367 75.2253 55.7852 75.4727C55.4336 75.7135 55.043 75.8926 54.6133 76.0098C54.1836 76.1335 53.7311 76.1953 53.2559 76.1953C52.4421 76.1953 51.7454 76.0586 51.166 75.7852C50.5931 75.5052 50.1536 75.0755 49.8477 74.4961C49.5417 73.9167 49.3887 73.168 49.3887 72.25V65.1895H51.6934V71.8203C51.6934 72.6602 51.8626 73.2884 52.2012 73.7051C52.5462 74.1217 53.0801 74.3301 53.8027 74.3301C54.4993 74.3301 55.0527 74.1868 55.4629 73.9004C55.873 73.6139 56.1628 73.1908 56.332 72.6309C56.5078 72.071 56.5957 71.3841 56.5957 70.5703V65.1895H58.9004ZM67.7383 64.9844C69.0208 64.9844 70.0495 65.4531 70.8242 66.3906C71.6055 67.3281 71.9961 68.7214 71.9961 70.5703C71.9961 71.7943 71.8138 72.8262 71.4492 73.666C71.0911 74.4993 70.5866 75.1309 69.9355 75.5605C69.291 75.9837 68.5391 76.1953 67.6797 76.1953C67.1328 76.1953 66.6576 76.1237 66.2539 75.9805C65.8503 75.8372 65.5052 75.6517 65.2188 75.4238C64.9323 75.1895 64.6914 74.9355 64.4961 74.6621H64.3594C64.3919 74.9225 64.4212 75.2122 64.4473 75.5312C64.4798 75.8438 64.4961 76.1302 64.4961 76.3906V80.7949H62.1914V65.1895H64.0664L64.3887 66.6836H64.4961C64.6979 66.3776 64.9421 66.0944 65.2285 65.834C65.5215 65.5736 65.873 65.3685 66.2832 65.2188C66.6999 65.0625 67.1849 64.9844 67.7383 64.9844ZM67.123 66.8594C66.4915 66.8594 65.9837 66.9863 65.5996 67.2402C65.222 67.4876 64.9453 67.862 64.7695 68.3633C64.6003 68.8646 64.5091 69.4928 64.4961 70.248V70.5703C64.4961 71.3711 64.5775 72.0514 64.7402 72.6113C64.9095 73.1647 65.1862 73.5879 65.5703 73.8809C65.9609 74.1673 66.4883 74.3105 67.1523 74.3105C67.7122 74.3105 68.1745 74.1576 68.5391 73.8516C68.9102 73.5456 69.1868 73.1094 69.3691 72.543C69.5514 71.9766 69.6426 71.3092 69.6426 70.541C69.6426 69.3757 69.4342 68.4707 69.0176 67.8262C68.6074 67.1816 67.9759 66.8594 67.123 66.8594Z" fill="#1F2024"/>
<path d="M218.361 72.1133C218.361 72.9596 218.153 73.6888 217.736 74.3008C217.326 74.9128 216.734 75.3815 215.959 75.707C215.191 76.0326 214.273 76.1953 213.205 76.1953C212.684 76.1953 212.186 76.166 211.711 76.1074C211.236 76.0488 210.786 75.9642 210.363 75.8535C209.947 75.7363 209.566 75.5964 209.221 75.4336V73.2266C209.8 73.4805 210.448 73.7116 211.164 73.9199C211.88 74.1217 212.609 74.2227 213.352 74.2227C213.957 74.2227 214.458 74.1445 214.855 73.9883C215.259 73.8255 215.559 73.5977 215.754 73.3047C215.949 73.0052 216.047 72.6569 216.047 72.2598C216.047 71.8366 215.933 71.4785 215.705 71.1855C215.477 70.8926 215.132 70.6257 214.67 70.3848C214.214 70.1374 213.641 69.8737 212.951 69.5938C212.482 69.4049 212.033 69.1901 211.604 68.9492C211.18 68.7083 210.803 68.4251 210.471 68.0996C210.139 67.7741 209.875 67.39 209.68 66.9473C209.491 66.498 209.396 65.9707 209.396 65.3652C209.396 64.5579 209.589 63.8678 209.973 63.2949C210.363 62.722 210.91 62.2826 211.613 61.9766C212.323 61.6706 213.15 61.5176 214.094 61.5176C214.842 61.5176 215.546 61.5957 216.203 61.752C216.867 61.9082 217.518 62.1296 218.156 62.416L217.414 64.3008C216.828 64.0599 216.258 63.8678 215.705 63.7246C215.158 63.5814 214.598 63.5098 214.025 63.5098C213.531 63.5098 213.111 63.5846 212.766 63.7344C212.421 63.8841 212.157 64.0957 211.975 64.3691C211.799 64.6361 211.711 64.9551 211.711 65.3262C211.711 65.7428 211.812 66.0944 212.014 66.3809C212.222 66.6608 212.541 66.918 212.971 67.1523C213.407 67.3867 213.967 67.6471 214.65 67.9336C215.438 68.2591 216.105 68.6009 216.652 68.959C217.206 69.3171 217.629 69.7467 217.922 70.248C218.215 70.7428 218.361 71.3646 218.361 72.1133ZM225.188 64.9844C226.151 64.9844 226.978 65.1829 227.668 65.5801C228.358 65.9772 228.889 66.5404 229.26 67.2695C229.631 67.9987 229.816 68.8711 229.816 69.8867V71.1172H222.6C222.626 72.1654 222.906 72.9727 223.439 73.5391C223.98 74.1055 224.735 74.3887 225.705 74.3887C226.395 74.3887 227.014 74.3236 227.561 74.1934C228.114 74.0566 228.684 73.8581 229.27 73.5977V75.4629C228.729 75.7168 228.179 75.9023 227.619 76.0195C227.059 76.1367 226.389 76.1953 225.607 76.1953C224.546 76.1953 223.612 75.9902 222.805 75.5801C222.004 75.1634 221.376 74.5449 220.92 73.7246C220.471 72.9043 220.246 71.8854 220.246 70.668C220.246 69.457 220.451 68.4284 220.861 67.582C221.271 66.7357 221.848 66.0911 222.59 65.6484C223.332 65.2057 224.198 64.9844 225.188 64.9844ZM225.188 66.7129C224.465 66.7129 223.879 66.9473 223.43 67.416C222.987 67.8848 222.727 68.5716 222.648 69.4766H227.57C227.564 68.9362 227.473 68.4577 227.297 68.041C227.128 67.6243 226.867 67.2988 226.516 67.0645C226.171 66.8301 225.728 66.7129 225.188 66.7129ZM234.709 76H232.404V60.8047H234.709V76ZM242.297 64.9844C243.26 64.9844 244.087 65.1829 244.777 65.5801C245.467 65.9772 245.998 66.5404 246.369 67.2695C246.74 67.9987 246.926 68.8711 246.926 69.8867V71.1172H239.709C239.735 72.1654 240.015 72.9727 240.549 73.5391C241.089 74.1055 241.844 74.3887 242.814 74.3887C243.505 74.3887 244.123 74.3236 244.67 74.1934C245.223 74.0566 245.793 73.8581 246.379 73.5977V75.4629C245.839 75.7168 245.288 75.9023 244.729 76.0195C244.169 76.1367 243.498 76.1953 242.717 76.1953C241.656 76.1953 240.721 75.9902 239.914 75.5801C239.113 75.1634 238.485 74.5449 238.029 73.7246C237.58 72.9043 237.355 71.8854 237.355 70.668C237.355 69.457 237.561 68.4284 237.971 67.582C238.381 66.7357 238.957 66.0911 239.699 65.6484C240.441 65.2057 241.307 64.9844 242.297 64.9844ZM242.297 66.7129C241.574 66.7129 240.988 66.9473 240.539 67.416C240.096 67.8848 239.836 68.5716 239.758 69.4766H244.68C244.673 68.9362 244.582 68.4577 244.406 68.041C244.237 67.6243 243.977 67.2988 243.625 67.0645C243.28 66.8301 242.837 66.7129 242.297 66.7129ZM253.869 76.1953C252.847 76.1953 251.962 75.9967 251.213 75.5996C250.464 75.2025 249.888 74.5938 249.484 73.7734C249.081 72.9531 248.879 71.9115 248.879 70.6484C248.879 69.3333 249.1 68.2591 249.543 67.4258C249.986 66.5924 250.598 65.9772 251.379 65.5801C252.167 65.1829 253.068 64.9844 254.084 64.9844C254.729 64.9844 255.311 65.0495 255.832 65.1797C256.359 65.3034 256.805 65.4564 257.17 65.6387L256.486 67.4746C256.089 67.3118 255.682 67.1751 255.266 67.0645C254.849 66.9538 254.449 66.8984 254.064 66.8984C253.433 66.8984 252.906 67.0384 252.482 67.3184C252.066 67.5983 251.753 68.015 251.545 68.5684C251.343 69.1217 251.242 69.8086 251.242 70.6289C251.242 71.4232 251.346 72.0938 251.555 72.6406C251.763 73.181 252.072 73.5911 252.482 73.8711C252.893 74.1445 253.397 74.2812 253.996 74.2812C254.589 74.2812 255.119 74.2096 255.588 74.0664C256.057 73.9232 256.499 73.7376 256.916 73.5098V75.502C256.506 75.7363 256.066 75.9089 255.598 76.0195C255.129 76.1367 254.553 76.1953 253.869 76.1953ZM263.479 74.3398C263.778 74.3398 264.074 74.3138 264.367 74.2617C264.66 74.2031 264.927 74.1348 265.168 74.0566V75.7949C264.914 75.9056 264.585 76 264.182 76.0781C263.778 76.1562 263.358 76.1953 262.922 76.1953C262.31 76.1953 261.76 76.0944 261.271 75.8926C260.783 75.6842 260.396 75.3294 260.109 74.8281C259.823 74.3268 259.68 73.6335 259.68 72.748V66.9375H258.205V65.9121L259.787 65.1016L260.539 62.7871H261.984V65.1895H265.08V66.9375H261.984V72.7188C261.984 73.2656 262.121 73.6725 262.395 73.9395C262.668 74.2064 263.029 74.3398 263.479 74.3398ZM276.809 61.7227C278.039 61.7227 279.055 61.8724 279.855 62.1719C280.663 62.4714 281.262 62.9271 281.652 63.5391C282.049 64.151 282.248 64.929 282.248 65.873C282.248 66.5762 282.118 67.1751 281.857 67.6699C281.597 68.1647 281.255 68.5749 280.832 68.9004C280.409 69.2259 279.956 69.4863 279.475 69.6816L283.527 76H280.881L277.434 70.2773H275.139V76H272.795V61.7227H276.809ZM276.652 63.6758H275.139V68.3438H276.76C277.847 68.3438 278.635 68.1419 279.123 67.7383C279.618 67.3346 279.865 66.7389 279.865 65.9512C279.865 65.1243 279.602 64.5384 279.074 64.1934C278.553 63.8483 277.746 63.6758 276.652 63.6758ZM294.904 70.5703C294.904 71.4688 294.787 72.2663 294.553 72.9629C294.318 73.6595 293.977 74.2487 293.527 74.7305C293.078 75.2057 292.538 75.5703 291.906 75.8242C291.275 76.0716 290.562 76.1953 289.768 76.1953C289.025 76.1953 288.345 76.0716 287.727 75.8242C287.108 75.5703 286.571 75.2057 286.115 74.7305C285.666 74.2487 285.318 73.6595 285.07 72.9629C284.823 72.2663 284.699 71.4688 284.699 70.5703C284.699 69.3789 284.904 68.3698 285.314 67.543C285.731 66.7096 286.324 66.0749 287.092 65.6387C287.86 65.2025 288.775 64.9844 289.836 64.9844C290.832 64.9844 291.711 65.2025 292.473 65.6387C293.234 66.0749 293.83 66.7096 294.26 67.543C294.689 68.3763 294.904 69.3854 294.904 70.5703ZM287.062 70.5703C287.062 71.3581 287.157 72.0319 287.346 72.5918C287.541 73.1517 287.84 73.5814 288.244 73.8809C288.648 74.1738 289.169 74.3203 289.807 74.3203C290.445 74.3203 290.965 74.1738 291.369 73.8809C291.773 73.5814 292.069 73.1517 292.258 72.5918C292.447 72.0319 292.541 71.3581 292.541 70.5703C292.541 69.7826 292.447 69.1152 292.258 68.5684C292.069 68.015 291.773 67.5951 291.369 67.3086C290.965 67.0156 290.441 66.8691 289.797 66.8691C288.846 66.8691 288.153 67.1882 287.717 67.8262C287.281 68.4642 287.062 69.3789 287.062 70.5703ZM299.846 76H297.541V60.8047H299.846V76ZM307.434 64.9844C308.397 64.9844 309.224 65.1829 309.914 65.5801C310.604 65.9772 311.135 66.5404 311.506 67.2695C311.877 67.9987 312.062 68.8711 312.062 69.8867V71.1172H304.846C304.872 72.1654 305.152 72.9727 305.686 73.5391C306.226 74.1055 306.981 74.3887 307.951 74.3887C308.641 74.3887 309.26 74.3236 309.807 74.1934C310.36 74.0566 310.93 73.8581 311.516 73.5977V75.4629C310.975 75.7168 310.425 75.9023 309.865 76.0195C309.305 76.1367 308.635 76.1953 307.854 76.1953C306.792 76.1953 305.858 75.9902 305.051 75.5801C304.25 75.1634 303.622 74.5449 303.166 73.7246C302.717 72.9043 302.492 71.8854 302.492 70.668C302.492 69.457 302.697 68.4284 303.107 67.582C303.518 66.7357 304.094 66.0911 304.836 65.6484C305.578 65.2057 306.444 64.9844 307.434 64.9844ZM307.434 66.7129C306.711 66.7129 306.125 66.9473 305.676 67.416C305.233 67.8848 304.973 68.5716 304.895 69.4766H309.816C309.81 68.9362 309.719 68.4577 309.543 68.041C309.374 67.6243 309.113 67.2988 308.762 67.0645C308.417 66.8301 307.974 66.7129 307.434 66.7129ZM321.916 72.9141C321.916 73.6237 321.743 74.2227 321.398 74.7109C321.053 75.1992 320.549 75.5703 319.885 75.8242C319.227 76.0716 318.42 76.1953 317.463 76.1953C316.708 76.1953 316.057 76.14 315.51 76.0293C314.969 75.9251 314.458 75.7624 313.977 75.541V73.5586C314.491 73.7995 315.067 74.0078 315.705 74.1836C316.35 74.3594 316.958 74.4473 317.531 74.4473C318.286 74.4473 318.83 74.3301 319.162 74.0957C319.494 73.8548 319.66 73.5358 319.66 73.1387C319.66 72.9043 319.592 72.696 319.455 72.5137C319.325 72.3249 319.077 72.1328 318.713 71.9375C318.355 71.7357 317.827 71.4948 317.131 71.2148C316.447 70.9414 315.871 70.668 315.402 70.3945C314.934 70.1211 314.579 69.7923 314.338 69.4082C314.097 69.0176 313.977 68.5195 313.977 67.9141C313.977 66.957 314.354 66.2311 315.109 65.7363C315.871 65.235 316.877 64.9844 318.127 64.9844C318.791 64.9844 319.416 65.0527 320.002 65.1895C320.594 65.3197 321.174 65.5117 321.74 65.7656L321.018 67.4941C320.529 67.2793 320.038 67.1035 319.543 66.9668C319.055 66.8236 318.557 66.752 318.049 66.752C317.456 66.752 317.004 66.8431 316.691 67.0254C316.385 67.2077 316.232 67.4681 316.232 67.8066C316.232 68.0605 316.307 68.2754 316.457 68.4512C316.607 68.627 316.864 68.8027 317.229 68.9785C317.6 69.1543 318.114 69.3724 318.771 69.6328C319.416 69.8802 319.973 70.1406 320.441 70.4141C320.917 70.681 321.281 71.0098 321.535 71.4004C321.789 71.791 321.916 72.2956 321.916 72.9141Z" fill="#1F2024"/>
<path d="M429.184 72.1133C429.184 72.9596 428.975 73.6888 428.559 74.3008C428.148 74.9128 427.556 75.3815 426.781 75.707C426.013 76.0326 425.095 76.1953 424.027 76.1953C423.507 76.1953 423.008 76.166 422.533 76.1074C422.058 76.0488 421.609 75.9642 421.186 75.8535C420.769 75.7363 420.388 75.5964 420.043 75.4336V73.2266C420.622 73.4805 421.27 73.7116 421.986 73.9199C422.702 74.1217 423.432 74.2227 424.174 74.2227C424.779 74.2227 425.281 74.1445 425.678 73.9883C426.081 73.8255 426.381 73.5977 426.576 73.3047C426.771 73.0052 426.869 72.6569 426.869 72.2598C426.869 71.8366 426.755 71.4785 426.527 71.1855C426.299 70.8926 425.954 70.6257 425.492 70.3848C425.036 70.1374 424.464 69.8737 423.773 69.5938C423.305 69.4049 422.855 69.1901 422.426 68.9492C422.003 68.7083 421.625 68.4251 421.293 68.0996C420.961 67.7741 420.697 67.39 420.502 66.9473C420.313 66.498 420.219 65.9707 420.219 65.3652C420.219 64.5579 420.411 63.8678 420.795 63.2949C421.186 62.722 421.732 62.2826 422.436 61.9766C423.145 61.6706 423.972 61.5176 424.916 61.5176C425.665 61.5176 426.368 61.5957 427.025 61.752C427.689 61.9082 428.34 62.1296 428.979 62.416L428.236 64.3008C427.65 64.0599 427.081 63.8678 426.527 63.7246C425.98 63.5814 425.421 63.5098 424.848 63.5098C424.353 63.5098 423.933 63.5846 423.588 63.7344C423.243 63.8841 422.979 64.0957 422.797 64.3691C422.621 64.6361 422.533 64.9551 422.533 65.3262C422.533 65.7428 422.634 66.0944 422.836 66.3809C423.044 66.6608 423.363 66.918 423.793 67.1523C424.229 67.3867 424.789 67.6471 425.473 67.9336C426.26 68.2591 426.928 68.6009 427.475 68.959C428.028 69.3171 428.451 69.7467 428.744 70.248C429.037 70.7428 429.184 71.3646 429.184 72.1133ZM436.01 64.9844C436.973 64.9844 437.8 65.1829 438.49 65.5801C439.18 65.9772 439.711 66.5404 440.082 67.2695C440.453 67.9987 440.639 68.8711 440.639 69.8867V71.1172H433.422C433.448 72.1654 433.728 72.9727 434.262 73.5391C434.802 74.1055 435.557 74.3887 436.527 74.3887C437.217 74.3887 437.836 74.3236 438.383 74.1934C438.936 74.0566 439.506 73.8581 440.092 73.5977V75.4629C439.551 75.7168 439.001 75.9023 438.441 76.0195C437.882 76.1367 437.211 76.1953 436.43 76.1953C435.368 76.1953 434.434 75.9902 433.627 75.5801C432.826 75.1634 432.198 74.5449 431.742 73.7246C431.293 72.9043 431.068 71.8854 431.068 70.668C431.068 69.457 431.273 68.4284 431.684 67.582C432.094 66.7357 432.67 66.0911 433.412 65.6484C434.154 65.2057 435.02 64.9844 436.01 64.9844ZM436.01 66.7129C435.287 66.7129 434.701 66.9473 434.252 67.416C433.809 67.8848 433.549 68.5716 433.471 69.4766H438.393C438.386 68.9362 438.295 68.4577 438.119 68.041C437.95 67.6243 437.689 67.2988 437.338 67.0645C436.993 66.8301 436.55 66.7129 436.01 66.7129ZM447.25 74.3398C447.549 74.3398 447.846 74.3138 448.139 74.2617C448.432 74.2031 448.699 74.1348 448.939 74.0566V75.7949C448.686 75.9056 448.357 76 447.953 76.0781C447.549 76.1562 447.13 76.1953 446.693 76.1953C446.081 76.1953 445.531 76.0944 445.043 75.8926C444.555 75.6842 444.167 75.3294 443.881 74.8281C443.594 74.3268 443.451 73.6335 443.451 72.748V66.9375H441.977V65.9121L443.559 65.1016L444.311 62.7871H445.756V65.1895H448.852V66.9375H445.756V72.7188C445.756 73.2656 445.893 73.6725 446.166 73.9395C446.439 74.2064 446.801 74.3398 447.25 74.3398ZM460.561 65.1895V76H458.754L458.441 74.5449H458.314C458.087 74.916 457.797 75.2253 457.445 75.4727C457.094 75.7135 456.703 75.8926 456.273 76.0098C455.844 76.1335 455.391 76.1953 454.916 76.1953C454.102 76.1953 453.406 76.0586 452.826 75.7852C452.253 75.5052 451.814 75.0755 451.508 74.4961C451.202 73.9167 451.049 73.168 451.049 72.25V65.1895H453.354V71.8203C453.354 72.6602 453.523 73.2884 453.861 73.7051C454.206 74.1217 454.74 74.3301 455.463 74.3301C456.16 74.3301 456.713 74.1868 457.123 73.9004C457.533 73.6139 457.823 73.1908 457.992 72.6309C458.168 72.071 458.256 71.3841 458.256 70.5703V65.1895H460.561ZM469.398 64.9844C470.681 64.9844 471.71 65.4531 472.484 66.3906C473.266 67.3281 473.656 68.7214 473.656 70.5703C473.656 71.7943 473.474 72.8262 473.109 73.666C472.751 74.4993 472.247 75.1309 471.596 75.5605C470.951 75.9837 470.199 76.1953 469.34 76.1953C468.793 76.1953 468.318 76.1237 467.914 75.9805C467.51 75.8372 467.165 75.6517 466.879 75.4238C466.592 75.1895 466.352 74.9355 466.156 74.6621H466.02C466.052 74.9225 466.081 75.2122 466.107 75.5312C466.14 75.8438 466.156 76.1302 466.156 76.3906V80.7949H463.852V65.1895H465.727L466.049 66.6836H466.156C466.358 66.3776 466.602 66.0944 466.889 65.834C467.182 65.5736 467.533 65.3685 467.943 65.2188C468.36 65.0625 468.845 64.9844 469.398 64.9844ZM468.783 66.8594C468.152 66.8594 467.644 66.9863 467.26 67.2402C466.882 67.4876 466.605 67.862 466.43 68.3633C466.26 68.8646 466.169 69.4928 466.156 70.248V70.5703C466.156 71.3711 466.238 72.0514 466.4 72.6113C466.57 73.1647 466.846 73.5879 467.23 73.8809C467.621 74.1673 468.148 74.3105 468.812 74.3105C469.372 74.3105 469.835 74.1576 470.199 73.8516C470.57 73.5456 470.847 73.1094 471.029 72.543C471.212 71.9766 471.303 71.3092 471.303 70.541C471.303 69.3757 471.094 68.4707 470.678 67.8262C470.268 67.1816 469.636 66.8594 468.783 66.8594ZM485.893 61.7227C487.735 61.7227 489.079 62.1003 489.926 62.8555C490.772 63.6107 491.195 64.6686 491.195 66.0293C491.195 66.6478 491.098 67.237 490.902 67.7969C490.714 68.3503 490.401 68.8418 489.965 69.2715C489.529 69.6947 488.952 70.0299 488.236 70.2773C487.527 70.5247 486.651 70.6484 485.609 70.6484H484.086V76H481.742V61.7227H485.893ZM485.736 63.666H484.086V68.6953H485.365C486.101 68.6953 486.726 68.6107 487.24 68.4414C487.755 68.2656 488.145 67.9889 488.412 67.6113C488.679 67.2337 488.812 66.7357 488.812 66.1172C488.812 65.2904 488.562 64.6751 488.061 64.2715C487.566 63.8678 486.791 63.666 485.736 63.666ZM499.291 64.9844C499.473 64.9844 499.672 64.9941 499.887 65.0137C500.102 65.0332 500.287 65.0592 500.443 65.0918L500.229 67.2402C500.092 67.2012 499.923 67.1719 499.721 67.1523C499.525 67.1328 499.35 67.123 499.193 67.123C498.783 67.123 498.393 67.1914 498.021 67.3281C497.65 67.4583 497.322 67.6602 497.035 67.9336C496.749 68.2005 496.524 68.5358 496.361 68.9395C496.199 69.3431 496.117 69.8118 496.117 70.3457V76H493.812V65.1895H495.609L495.922 67.0938H496.029C496.244 66.7096 496.511 66.3581 496.83 66.0391C497.149 65.7201 497.514 65.4661 497.924 65.2773C498.34 65.082 498.796 64.9844 499.291 64.9844ZM512.016 70.5703C512.016 71.4688 511.898 72.2663 511.664 72.9629C511.43 73.6595 511.088 74.2487 510.639 74.7305C510.189 75.2057 509.649 75.5703 509.018 75.8242C508.386 76.0716 507.673 76.1953 506.879 76.1953C506.137 76.1953 505.456 76.0716 504.838 75.8242C504.219 75.5703 503.682 75.2057 503.227 74.7305C502.777 74.2487 502.429 73.6595 502.182 72.9629C501.934 72.2663 501.811 71.4688 501.811 70.5703C501.811 69.3789 502.016 68.3698 502.426 67.543C502.842 66.7096 503.435 66.0749 504.203 65.6387C504.971 65.2025 505.886 64.9844 506.947 64.9844C507.943 64.9844 508.822 65.2025 509.584 65.6387C510.346 66.0749 510.941 66.7096 511.371 67.543C511.801 68.3763 512.016 69.3854 512.016 70.5703ZM504.174 70.5703C504.174 71.3581 504.268 72.0319 504.457 72.5918C504.652 73.1517 504.952 73.5814 505.355 73.8809C505.759 74.1738 506.28 74.3203 506.918 74.3203C507.556 74.3203 508.077 74.1738 508.48 73.8809C508.884 73.5814 509.18 73.1517 509.369 72.5918C509.558 72.0319 509.652 71.3581 509.652 70.5703C509.652 69.7826 509.558 69.1152 509.369 68.5684C509.18 68.015 508.884 67.5951 508.48 67.3086C508.077 67.0156 507.553 66.8691 506.908 66.8691C505.958 66.8691 505.264 67.1882 504.828 67.8262C504.392 68.4642 504.174 69.3789 504.174 70.5703ZM520.053 66.9375H517.426V76H515.131V66.9375H513.363V65.834L515.131 65.1602V64.4082C515.131 63.4902 515.274 62.7611 515.561 62.2207C515.854 61.6803 516.27 61.293 516.811 61.0586C517.357 60.8177 518.008 60.6973 518.764 60.6973C519.258 60.6973 519.711 60.7396 520.121 60.8242C520.531 60.9023 520.876 60.9935 521.156 61.0977L520.561 62.8359C520.339 62.7643 520.092 62.6992 519.818 62.6406C519.545 62.5755 519.252 62.543 518.939 62.543C518.419 62.543 518.035 62.7057 517.787 63.0312C517.546 63.3568 517.426 63.832 517.426 64.457V65.1895H520.053V66.9375ZM524.184 65.1895V76H521.889V65.1895H524.184ZM523.051 61.0488C523.402 61.0488 523.705 61.1432 523.959 61.332C524.219 61.5208 524.35 61.8464 524.35 62.3086C524.35 62.7643 524.219 63.0898 523.959 63.2852C523.705 63.474 523.402 63.5684 523.051 63.5684C522.686 63.5684 522.377 63.474 522.123 63.2852C521.876 63.0898 521.752 62.7643 521.752 62.3086C521.752 61.8464 521.876 61.5208 522.123 61.332C522.377 61.1432 522.686 61.0488 523.051 61.0488ZM529.77 76H527.465V60.8047H529.77V76ZM537.357 64.9844C538.321 64.9844 539.148 65.1829 539.838 65.5801C540.528 65.9772 541.059 66.5404 541.43 67.2695C541.801 67.9987 541.986 68.8711 541.986 69.8867V71.1172H534.77C534.796 72.1654 535.076 72.9727 535.609 73.5391C536.15 74.1055 536.905 74.3887 537.875 74.3887C538.565 74.3887 539.184 74.3236 539.73 74.1934C540.284 74.0566 540.854 73.8581 541.439 73.5977V75.4629C540.899 75.7168 540.349 75.9023 539.789 76.0195C539.229 76.1367 538.559 76.1953 537.777 76.1953C536.716 76.1953 535.782 75.9902 534.975 75.5801C534.174 75.1634 533.546 74.5449 533.09 73.7246C532.641 72.9043 532.416 71.8854 532.416 70.668C532.416 69.457 532.621 68.4284 533.031 67.582C533.441 66.7357 534.018 66.0911 534.76 65.6484C535.502 65.2057 536.368 64.9844 537.357 64.9844ZM537.357 66.7129C536.635 66.7129 536.049 66.9473 535.6 67.416C535.157 67.8848 534.896 68.5716 534.818 69.4766H539.74C539.734 68.9362 539.643 68.4577 539.467 68.041C539.298 67.6243 539.037 67.2988 538.686 67.0645C538.34 66.8301 537.898 66.7129 537.357 66.7129Z" fill="#1F2024"/>
<line x1="50" y1="27" x2="240" y2="27" stroke="#737373" stroke-width="4"/>
<circle cx="510.5" cy="26.5" r="26.5" fill="#767676"/>
<path d="M509.635 37.32C508.057 37.32 506.51 37.096 504.996 36.648C503.502 36.1787 502.244 35.5387 501.22 34.728L503.012 31.496C503.822 32.1573 504.804 32.6907 505.956 33.096C507.108 33.5013 508.313 33.704 509.572 33.704C511.065 33.704 512.228 33.4053 513.06 32.808C513.892 32.1893 514.308 31.3573 514.308 30.312C514.308 29.288 513.924 28.4773 513.156 27.88C512.388 27.2827 511.15 26.984 509.444 26.984H507.396V24.136L513.796 16.52L514.34 18.088H502.308V14.6H517.572V17.384L511.172 25L508.996 23.72H510.244C512.996 23.72 515.054 24.3387 516.42 25.576C517.806 26.792 518.5 28.36 518.5 30.28C518.5 31.5387 518.18 32.7013 517.54 33.768C516.9 34.8347 515.918 35.6987 514.596 36.36C513.294 37 511.641 37.32 509.635 37.32Z" fill="white"/>
<line x1="293" y1="27" x2="484" y2="27" stroke="#767676" stroke-width="4"/>
<g clip-path="url(#clip1_175_1567)">
<path d="M27.5 0C12.925 0 1 11.925 1 26.5C1 41.075 12.925 53 27.5 53C42.075 53 54 41.075 54 26.5C54 11.925 42.075 0 27.5 0ZM38.63 21.995L25.91 34.715C24.85 35.775 23.26 35.775 22.2 34.715L16.37 28.885C15.31 27.825 15.31 26.235 16.37 25.175C17.43 24.115 19.02 24.115 20.08 25.175L24.055 29.15L34.92 18.285C35.98 17.225 37.57 17.225 38.63 18.285C39.69 19.345 39.69 20.935 38.63 21.995Z" fill="#737373" fill-opacity="0.98"/>
</g>
<defs>
<clipPath id="clip0_175_1567">
<rect width="53" height="53" fill="white" transform="translate(240)"/>
</clipPath>
<clipPath id="clip1_175_1567">
<rect width="53" height="53" fill="white" transform="translate(1)"/>
</clipPath>
</defs>
</svg>
