<svg width="692" height="381" viewBox="0 0 692 381" fill="none" xmlns="http://www.w3.org/2000/svg">
<g filter="url(#filter0_d_920_5204)">
<path d="M55 51C55 39.9543 63.9543 31 75 31H652C663.046 31 672 39.9543 672 51V263C672 274.046 663.046 283 652 283H75C63.9543 283 55 274.046 55 263V51Z" fill="white"/>
</g>
<path d="M140.953 96V81.7227H142.613V96H140.953ZM153.111 80.8047V85.3457C153.111 85.6061 153.105 85.8698 153.092 86.1367C153.079 86.3971 153.056 86.638 153.023 86.8594H153.131C153.352 86.4818 153.632 86.166 153.971 85.9121C154.316 85.6517 154.706 85.4564 155.143 85.3262C155.579 85.1895 156.041 85.1211 156.529 85.1211C157.389 85.1211 158.105 85.2578 158.678 85.5312C159.257 85.8047 159.69 86.2279 159.977 86.8008C160.27 87.3737 160.416 88.1159 160.416 89.0273V96H158.814V89.1348C158.814 88.2428 158.609 87.5755 158.199 87.1328C157.796 86.6901 157.174 86.4688 156.334 86.4688C155.54 86.4688 154.905 86.6217 154.43 86.9277C153.961 87.2272 153.622 87.6699 153.414 88.2559C153.212 88.8418 153.111 89.5579 153.111 90.4043V96H151.49V80.8047H153.111ZM167.76 85.1211C169.036 85.1211 169.983 85.4076 170.602 85.9805C171.22 86.5534 171.529 87.4681 171.529 88.7246V96H170.348L170.035 94.418H169.957C169.658 94.8086 169.345 95.1374 169.02 95.4043C168.694 95.6647 168.316 95.8633 167.887 96C167.464 96.1302 166.943 96.1953 166.324 96.1953C165.673 96.1953 165.094 96.0814 164.586 95.8535C164.085 95.6257 163.688 95.2806 163.395 94.8184C163.108 94.3561 162.965 93.7702 162.965 93.0605C162.965 91.9928 163.388 91.1725 164.234 90.5996C165.081 90.0267 166.37 89.7142 168.102 89.6621L169.947 89.584V88.9297C169.947 88.0052 169.749 87.3574 169.352 86.9863C168.954 86.6152 168.395 86.4297 167.672 86.4297C167.112 86.4297 166.578 86.5111 166.07 86.6738C165.562 86.8366 165.081 87.0286 164.625 87.25L164.127 86.0195C164.609 85.7721 165.162 85.5605 165.787 85.3848C166.412 85.209 167.07 85.1211 167.76 85.1211ZM169.928 90.7266L168.297 90.7949C166.962 90.847 166.021 91.0651 165.475 91.4492C164.928 91.8333 164.654 92.377 164.654 93.0801C164.654 93.6921 164.84 94.1445 165.211 94.4375C165.582 94.7305 166.074 94.877 166.686 94.877C167.636 94.877 168.414 94.6133 169.02 94.0859C169.625 93.5586 169.928 92.7676 169.928 91.7129V90.7266ZM178.678 96.1953C177.324 96.1953 176.249 95.7331 175.455 94.8086C174.667 93.8841 174.273 92.5104 174.273 90.6875C174.273 88.8451 174.677 87.4551 175.484 86.5176C176.292 85.5736 177.366 85.1016 178.707 85.1016C179.273 85.1016 179.768 85.1764 180.191 85.3262C180.615 85.4759 180.979 85.6777 181.285 85.9316C181.591 86.179 181.848 86.4622 182.057 86.7812H182.174C182.148 86.5794 182.122 86.3027 182.096 85.9512C182.07 85.5996 182.057 85.3132 182.057 85.0918V80.8047H183.678V96H182.369L182.125 94.4766H182.057C181.855 94.7956 181.598 95.0853 181.285 95.3457C180.979 95.6061 180.611 95.8145 180.182 95.9707C179.758 96.1204 179.257 96.1953 178.678 96.1953ZM178.932 94.8477C180.077 94.8477 180.888 94.5221 181.363 93.8711C181.839 93.2201 182.076 92.2533 182.076 90.9707V90.6777C182.076 89.3171 181.848 88.2721 181.393 87.543C180.943 86.8138 180.123 86.4492 178.932 86.4492C177.936 86.4492 177.19 86.8333 176.695 87.6016C176.201 88.3633 175.953 89.4049 175.953 90.7266C175.953 92.0417 176.197 93.0573 176.686 93.7734C177.18 94.4896 177.929 94.8477 178.932 94.8477ZM196.314 85.1211C197.59 85.1211 198.538 85.4076 199.156 85.9805C199.775 86.5534 200.084 87.4681 200.084 88.7246V96H198.902L198.59 94.418H198.512C198.212 94.8086 197.9 95.1374 197.574 95.4043C197.249 95.6647 196.871 95.8633 196.441 96C196.018 96.1302 195.497 96.1953 194.879 96.1953C194.228 96.1953 193.648 96.0814 193.141 95.8535C192.639 95.6257 192.242 95.2806 191.949 94.8184C191.663 94.3561 191.52 93.7702 191.52 93.0605C191.52 91.9928 191.943 91.1725 192.789 90.5996C193.635 90.0267 194.924 89.7142 196.656 89.6621L198.502 89.584V88.9297C198.502 88.0052 198.303 87.3574 197.906 86.9863C197.509 86.6152 196.949 86.4297 196.227 86.4297C195.667 86.4297 195.133 86.5111 194.625 86.6738C194.117 86.8366 193.635 87.0286 193.18 87.25L192.682 86.0195C193.163 85.7721 193.717 85.5605 194.342 85.3848C194.967 85.209 195.624 85.1211 196.314 85.1211ZM198.482 90.7266L196.852 90.7949C195.517 90.847 194.576 91.0651 194.029 91.4492C193.482 91.8333 193.209 92.377 193.209 93.0801C193.209 93.6921 193.395 94.1445 193.766 94.4375C194.137 94.7305 194.628 94.877 195.24 94.877C196.191 94.877 196.969 94.6133 197.574 94.0859C198.18 93.5586 198.482 92.7676 198.482 91.7129V90.7266ZM213.648 85.1016C214.983 85.1016 216.048 85.5605 216.842 86.4785C217.636 87.3965 218.033 88.7767 218.033 90.6191C218.033 91.8366 217.851 92.8587 217.486 93.6855C217.122 94.5124 216.607 95.1374 215.943 95.5605C215.286 95.9837 214.508 96.1953 213.609 96.1953C213.043 96.1953 212.545 96.1204 212.115 95.9707C211.686 95.821 211.318 95.6191 211.012 95.3652C210.706 95.1113 210.452 94.8346 210.25 94.5352H210.133C210.152 94.7891 210.175 95.0951 210.201 95.4531C210.234 95.8112 210.25 96.1237 210.25 96.3906V100.785H208.619V85.2969H209.957L210.172 86.8789H210.25C210.458 86.5534 210.712 86.2572 211.012 85.9902C211.311 85.7168 211.676 85.502 212.105 85.3457C212.542 85.1829 213.056 85.1016 213.648 85.1016ZM213.365 86.4688C212.623 86.4688 212.024 86.612 211.568 86.8984C211.119 87.1849 210.79 87.6146 210.582 88.1875C210.374 88.7539 210.263 89.4668 210.25 90.3262V90.6387C210.25 91.5436 210.348 92.3086 210.543 92.9336C210.745 93.5586 211.074 94.0339 211.529 94.3594C211.992 94.6849 212.61 94.8477 213.385 94.8477C214.049 94.8477 214.602 94.6686 215.045 94.3105C215.488 93.9525 215.816 93.4544 216.031 92.8164C216.253 92.1719 216.363 91.4329 216.363 90.5996C216.363 89.3366 216.116 88.334 215.621 87.5918C215.133 86.8431 214.381 86.4688 213.365 86.4688ZM222.496 96H220.865V80.8047H222.496V96ZM229.928 85.1211C231.204 85.1211 232.151 85.4076 232.77 85.9805C233.388 86.5534 233.697 87.4681 233.697 88.7246V96H232.516L232.203 94.418H232.125C231.826 94.8086 231.513 95.1374 231.188 95.4043C230.862 95.6647 230.484 95.8633 230.055 96C229.632 96.1302 229.111 96.1953 228.492 96.1953C227.841 96.1953 227.262 96.0814 226.754 95.8535C226.253 95.6257 225.855 95.2806 225.562 94.8184C225.276 94.3561 225.133 93.7702 225.133 93.0605C225.133 91.9928 225.556 91.1725 226.402 90.5996C227.249 90.0267 228.538 89.7142 230.27 89.6621L232.115 89.584V88.9297C232.115 88.0052 231.917 87.3574 231.52 86.9863C231.122 86.6152 230.562 86.4297 229.84 86.4297C229.28 86.4297 228.746 86.5111 228.238 86.6738C227.73 86.8366 227.249 87.0286 226.793 87.25L226.295 86.0195C226.777 85.7721 227.33 85.5605 227.955 85.3848C228.58 85.209 229.238 85.1211 229.928 85.1211ZM232.096 90.7266L230.465 90.7949C229.13 90.847 228.189 91.0651 227.643 91.4492C227.096 91.8333 226.822 92.377 226.822 93.0801C226.822 93.6921 227.008 94.1445 227.379 94.4375C227.75 94.7305 228.242 94.877 228.854 94.877C229.804 94.877 230.582 94.6133 231.188 94.0859C231.793 93.5586 232.096 92.7676 232.096 91.7129V90.7266ZM241.324 96.1953C240.361 96.1953 239.511 95.9967 238.775 95.5996C238.04 95.2025 237.467 94.597 237.057 93.7832C236.646 92.9694 236.441 91.944 236.441 90.707C236.441 89.4115 236.656 88.3535 237.086 87.5332C237.522 86.7064 238.121 86.0944 238.883 85.6973C239.645 85.3001 240.51 85.1016 241.48 85.1016C242.014 85.1016 242.529 85.1569 243.023 85.2676C243.525 85.3717 243.935 85.5052 244.254 85.668L243.766 87.0254C243.44 86.8952 243.062 86.778 242.633 86.6738C242.21 86.5697 241.812 86.5176 241.441 86.5176C240.699 86.5176 240.081 86.6771 239.586 86.9961C239.098 87.3151 238.73 87.7839 238.482 88.4023C238.242 89.0208 238.121 89.7826 238.121 90.6875C238.121 91.5534 238.238 92.2923 238.473 92.9043C238.714 93.5163 239.068 93.985 239.537 94.3105C240.012 94.6296 240.605 94.7891 241.314 94.7891C241.881 94.7891 242.392 94.7305 242.848 94.6133C243.303 94.4896 243.717 94.3464 244.088 94.1836V95.6289C243.73 95.8112 243.329 95.9512 242.887 96.0488C242.451 96.1465 241.93 96.1953 241.324 96.1953ZM250.748 85.1016C251.66 85.1016 252.441 85.3034 253.092 85.707C253.743 86.1107 254.241 86.6771 254.586 87.4062C254.931 88.1289 255.104 88.9753 255.104 89.9453V90.9512H247.711C247.73 92.2077 248.043 93.1647 248.648 93.8223C249.254 94.4798 250.107 94.8086 251.207 94.8086C251.884 94.8086 252.483 94.7467 253.004 94.623C253.525 94.4993 254.065 94.3171 254.625 94.0762V95.502C254.085 95.7428 253.548 95.9186 253.014 96.0293C252.486 96.14 251.861 96.1953 251.139 96.1953C250.11 96.1953 249.212 95.987 248.443 95.5703C247.682 95.1471 247.089 94.5286 246.666 93.7148C246.243 92.901 246.031 91.9049 246.031 90.7266C246.031 89.5742 246.223 88.5781 246.607 87.7383C246.998 86.8919 247.545 86.2409 248.248 85.7852C248.958 85.3294 249.791 85.1016 250.748 85.1016ZM250.729 86.4297C249.863 86.4297 249.173 86.7129 248.658 87.2793C248.144 87.8457 247.838 88.6367 247.74 89.6523H253.404C253.398 89.0143 253.297 88.4544 253.102 87.9727C252.913 87.4844 252.623 87.1068 252.232 86.8398C251.842 86.5664 251.34 86.4297 250.729 86.4297ZM263.297 96V81.7227H264.957V96H263.297ZM278.121 96.1953C277.158 96.1953 276.308 95.9967 275.572 95.5996C274.837 95.2025 274.264 94.597 273.854 93.7832C273.443 92.9694 273.238 91.944 273.238 90.707C273.238 89.4115 273.453 88.3535 273.883 87.5332C274.319 86.7064 274.918 86.0944 275.68 85.6973C276.441 85.3001 277.307 85.1016 278.277 85.1016C278.811 85.1016 279.326 85.1569 279.82 85.2676C280.322 85.3717 280.732 85.5052 281.051 85.668L280.562 87.0254C280.237 86.8952 279.859 86.778 279.43 86.6738C279.007 86.5697 278.609 86.5176 278.238 86.5176C277.496 86.5176 276.878 86.6771 276.383 86.9961C275.895 87.3151 275.527 87.7839 275.279 88.4023C275.038 89.0208 274.918 89.7826 274.918 90.6875C274.918 91.5534 275.035 92.2923 275.27 92.9043C275.51 93.5163 275.865 93.985 276.334 94.3105C276.809 94.6296 277.402 94.7891 278.111 94.7891C278.678 94.7891 279.189 94.7305 279.645 94.6133C280.1 94.4896 280.514 94.3464 280.885 94.1836V95.6289C280.527 95.8112 280.126 95.9512 279.684 96.0488C279.247 96.1465 278.727 96.1953 278.121 96.1953ZM292.652 90.6289C292.652 91.5078 292.538 92.2923 292.311 92.9824C292.083 93.6725 291.754 94.2552 291.324 94.7305C290.895 95.2057 290.374 95.5703 289.762 95.8242C289.156 96.0716 288.469 96.1953 287.701 96.1953C286.985 96.1953 286.327 96.0716 285.729 95.8242C285.136 95.5703 284.622 95.2057 284.186 94.7305C283.756 94.2552 283.421 93.6725 283.18 92.9824C282.945 92.2923 282.828 91.5078 282.828 90.6289C282.828 89.457 283.027 88.4609 283.424 87.6406C283.821 86.8138 284.387 86.1855 285.123 85.7559C285.865 85.3197 286.747 85.1016 287.77 85.1016C288.746 85.1016 289.599 85.3197 290.328 85.7559C291.064 86.1921 291.633 86.8236 292.037 87.6504C292.447 88.4707 292.652 89.4635 292.652 90.6289ZM284.508 90.6289C284.508 91.4883 284.622 92.2337 284.85 92.8652C285.077 93.4967 285.429 93.985 285.904 94.3301C286.38 94.6751 286.992 94.8477 287.74 94.8477C288.482 94.8477 289.091 94.6751 289.566 94.3301C290.048 93.985 290.403 93.4967 290.631 92.8652C290.859 92.2337 290.973 91.4883 290.973 90.6289C290.973 89.776 290.859 89.0404 290.631 88.4219C290.403 87.7969 290.051 87.3151 289.576 86.9766C289.101 86.638 288.486 86.4688 287.73 86.4688C286.617 86.4688 285.8 86.8366 285.279 87.5723C284.765 88.3079 284.508 89.3268 284.508 90.6289ZM304.293 85.2969V96H302.965L302.73 94.4961H302.643C302.421 94.8672 302.135 95.1797 301.783 95.4336C301.432 95.6875 301.035 95.8763 300.592 96C300.156 96.1302 299.69 96.1953 299.195 96.1953C298.349 96.1953 297.639 96.0586 297.066 95.7852C296.493 95.5117 296.061 95.0885 295.768 94.5156C295.481 93.9427 295.338 93.207 295.338 92.3086V85.2969H296.979V92.1914C296.979 93.0833 297.18 93.7507 297.584 94.1934C297.988 94.6296 298.603 94.8477 299.43 94.8477C300.224 94.8477 300.855 94.6979 301.324 94.3984C301.799 94.099 302.141 93.6595 302.35 93.0801C302.558 92.4941 302.662 91.778 302.662 90.9316V85.2969H304.293ZM309.352 96H307.721V80.8047H309.352V96ZM316.588 96.1953C315.234 96.1953 314.16 95.7331 313.365 94.8086C312.577 93.8841 312.184 92.5104 312.184 90.6875C312.184 88.8451 312.587 87.4551 313.395 86.5176C314.202 85.5736 315.276 85.1016 316.617 85.1016C317.184 85.1016 317.678 85.1764 318.102 85.3262C318.525 85.4759 318.889 85.6777 319.195 85.9316C319.501 86.179 319.758 86.4622 319.967 86.7812H320.084C320.058 86.5794 320.032 86.3027 320.006 85.9512C319.98 85.5996 319.967 85.3132 319.967 85.0918V80.8047H321.588V96H320.279L320.035 94.4766H319.967C319.765 94.7956 319.508 95.0853 319.195 95.3457C318.889 95.6061 318.521 95.8145 318.092 95.9707C317.669 96.1204 317.167 96.1953 316.588 96.1953ZM316.842 94.8477C317.988 94.8477 318.798 94.5221 319.273 93.8711C319.749 93.2201 319.986 92.2533 319.986 90.9707V90.6777C319.986 89.3171 319.758 88.2721 319.303 87.543C318.854 86.8138 318.033 86.4492 316.842 86.4492C315.846 86.4492 315.1 86.8333 314.605 87.6016C314.111 88.3633 313.863 89.4049 313.863 90.7266C313.863 92.0417 314.107 93.0573 314.596 93.7734C315.09 94.4896 315.839 94.8477 316.842 94.8477ZM333.678 94.8672C333.945 94.8672 334.218 94.8444 334.498 94.7988C334.778 94.7533 335.006 94.6979 335.182 94.6328V95.8926C334.993 95.9772 334.729 96.0488 334.391 96.1074C334.059 96.166 333.733 96.1953 333.414 96.1953C332.848 96.1953 332.333 96.0977 331.871 95.9023C331.409 95.7005 331.038 95.362 330.758 94.8867C330.484 94.4115 330.348 93.7539 330.348 92.9141V86.5664H328.824V85.7754L330.357 85.1406L331.002 82.8164H331.979V85.2969H335.113V86.5664H331.979V92.8652C331.979 93.5358 332.132 94.0371 332.438 94.3691C332.75 94.7012 333.163 94.8672 333.678 94.8672ZM342.213 85.1016C342.428 85.1016 342.652 85.1146 342.887 85.1406C343.121 85.1602 343.329 85.1895 343.512 85.2285L343.307 86.7324C343.131 86.6868 342.936 86.651 342.721 86.625C342.506 86.599 342.304 86.5859 342.115 86.5859C341.686 86.5859 341.279 86.6738 340.895 86.8496C340.517 87.0189 340.185 87.2663 339.898 87.5918C339.612 87.9108 339.387 88.2982 339.225 88.7539C339.062 89.2031 338.98 89.7044 338.98 90.2578V96H337.35V85.2969H338.697L338.873 87.2695H338.941C339.163 86.8724 339.43 86.5111 339.742 86.1855C340.055 85.8535 340.416 85.5898 340.826 85.3945C341.243 85.1992 341.705 85.1016 342.213 85.1016ZM354.371 85.2969V96H353.043L352.809 94.4961H352.721C352.499 94.8672 352.213 95.1797 351.861 95.4336C351.51 95.6875 351.113 95.8763 350.67 96C350.234 96.1302 349.768 96.1953 349.273 96.1953C348.427 96.1953 347.717 96.0586 347.145 95.7852C346.572 95.5117 346.139 95.0885 345.846 94.5156C345.559 93.9427 345.416 93.207 345.416 92.3086V85.2969H347.057V92.1914C347.057 93.0833 347.258 93.7507 347.662 94.1934C348.066 94.6296 348.681 94.8477 349.508 94.8477C350.302 94.8477 350.934 94.6979 351.402 94.3984C351.878 94.099 352.219 93.6595 352.428 93.0801C352.636 92.4941 352.74 91.778 352.74 90.9316V85.2969H354.371ZM359.43 96H357.799V80.8047H359.43V96ZM361.168 85.2969H362.906L365.27 91.5078C365.406 91.8724 365.533 92.224 365.65 92.5625C365.768 92.8945 365.872 93.2135 365.963 93.5195C366.054 93.8255 366.126 94.1217 366.178 94.4082H366.246C366.337 94.0827 366.467 93.6562 366.637 93.1289C366.806 92.5951 366.988 92.0514 367.184 91.498L369.42 85.2969H371.168L366.51 97.5723C366.262 98.2298 365.973 98.8027 365.641 99.291C365.315 99.7793 364.918 100.154 364.449 100.414C363.98 100.681 363.414 100.814 362.75 100.814C362.444 100.814 362.174 100.795 361.939 100.756C361.705 100.723 361.503 100.684 361.334 100.639V99.3398C361.477 99.3724 361.65 99.4017 361.852 99.4277C362.06 99.4538 362.275 99.4668 362.496 99.4668C362.9 99.4668 363.248 99.3887 363.541 99.2324C363.84 99.0827 364.098 98.8613 364.312 98.5684C364.527 98.2754 364.713 97.9271 364.869 97.5234L365.455 96.0195L361.168 85.2969ZM382.359 96.1953C381.396 96.1953 380.546 95.9967 379.811 95.5996C379.075 95.2025 378.502 94.597 378.092 93.7832C377.682 92.9694 377.477 91.944 377.477 90.707C377.477 89.4115 377.691 88.3535 378.121 87.5332C378.557 86.7064 379.156 86.0944 379.918 85.6973C380.68 85.3001 381.546 85.1016 382.516 85.1016C383.049 85.1016 383.564 85.1569 384.059 85.2676C384.56 85.3717 384.97 85.5052 385.289 85.668L384.801 87.0254C384.475 86.8952 384.098 86.778 383.668 86.6738C383.245 86.5697 382.848 86.5176 382.477 86.5176C381.734 86.5176 381.116 86.6771 380.621 86.9961C380.133 87.3151 379.765 87.7839 379.518 88.4023C379.277 89.0208 379.156 89.7826 379.156 90.6875C379.156 91.5534 379.273 92.2923 379.508 92.9043C379.749 93.5163 380.104 93.985 380.572 94.3105C381.048 94.6296 381.64 94.7891 382.35 94.7891C382.916 94.7891 383.427 94.7305 383.883 94.6133C384.339 94.4896 384.752 94.3464 385.123 94.1836V95.6289C384.765 95.8112 384.365 95.9512 383.922 96.0488C383.486 96.1465 382.965 96.1953 382.359 96.1953ZM391.666 85.1211C392.942 85.1211 393.889 85.4076 394.508 85.9805C395.126 86.5534 395.436 87.4681 395.436 88.7246V96H394.254L393.941 94.418H393.863C393.564 94.8086 393.251 95.1374 392.926 95.4043C392.6 95.6647 392.223 95.8633 391.793 96C391.37 96.1302 390.849 96.1953 390.23 96.1953C389.579 96.1953 389 96.0814 388.492 95.8535C387.991 95.6257 387.594 95.2806 387.301 94.8184C387.014 94.3561 386.871 93.7702 386.871 93.0605C386.871 91.9928 387.294 91.1725 388.141 90.5996C388.987 90.0267 390.276 89.7142 392.008 89.6621L393.854 89.584V88.9297C393.854 88.0052 393.655 87.3574 393.258 86.9863C392.861 86.6152 392.301 86.4297 391.578 86.4297C391.018 86.4297 390.484 86.5111 389.977 86.6738C389.469 86.8366 388.987 87.0286 388.531 87.25L388.033 86.0195C388.515 85.7721 389.068 85.5605 389.693 85.3848C390.318 85.209 390.976 85.1211 391.666 85.1211ZM393.834 90.7266L392.203 90.7949C390.868 90.847 389.928 91.0651 389.381 91.4492C388.834 91.8333 388.561 92.377 388.561 93.0801C388.561 93.6921 388.746 94.1445 389.117 94.4375C389.488 94.7305 389.98 94.877 390.592 94.877C391.542 94.877 392.32 94.6133 392.926 94.0859C393.531 93.5586 393.834 92.7676 393.834 91.7129V90.7266ZM400.406 96H398.775V80.8047H400.406V96ZM405.465 96H403.834V80.8047H405.465V96ZM480.279 85.1211C481.555 85.1211 482.503 85.4076 483.121 85.9805C483.74 86.5534 484.049 87.4681 484.049 88.7246V96H482.867L482.555 94.418H482.477C482.177 94.8086 481.865 95.1374 481.539 95.4043C481.214 95.6647 480.836 95.8633 480.406 96C479.983 96.1302 479.462 96.1953 478.844 96.1953C478.193 96.1953 477.613 96.0814 477.105 95.8535C476.604 95.6257 476.207 95.2806 475.914 94.8184C475.628 94.3561 475.484 93.7702 475.484 93.0605C475.484 91.9928 475.908 91.1725 476.754 90.5996C477.6 90.0267 478.889 89.7142 480.621 89.6621L482.467 89.584V88.9297C482.467 88.0052 482.268 87.3574 481.871 86.9863C481.474 86.6152 480.914 86.4297 480.191 86.4297C479.632 86.4297 479.098 86.5111 478.59 86.6738C478.082 86.8366 477.6 87.0286 477.145 87.25L476.646 86.0195C477.128 85.7721 477.682 85.5605 478.307 85.3848C478.932 85.209 479.589 85.1211 480.279 85.1211ZM482.447 90.7266L480.816 90.7949C479.482 90.847 478.541 91.0651 477.994 91.4492C477.447 91.8333 477.174 92.377 477.174 93.0801C477.174 93.6921 477.359 94.1445 477.73 94.4375C478.102 94.7305 478.593 94.877 479.205 94.877C480.156 94.877 480.934 94.6133 481.539 94.0859C482.145 93.5586 482.447 92.7676 482.447 91.7129V90.7266ZM492.457 85.1016C493.727 85.1016 494.687 85.4141 495.338 86.0391C495.989 86.6576 496.314 87.6536 496.314 89.0273V96H494.713V89.1348C494.713 88.2428 494.508 87.5755 494.098 87.1328C493.694 86.6901 493.072 86.4688 492.232 86.4688C491.048 86.4688 490.214 86.804 489.732 87.4746C489.251 88.1452 489.01 89.1185 489.01 90.3945V96H487.389V85.2969H488.697L488.941 86.8398H489.029C489.257 86.4622 489.547 86.1465 489.898 85.8926C490.25 85.6322 490.644 85.4368 491.08 85.3066C491.516 85.1699 491.975 85.1016 492.457 85.1016ZM503.463 96.1953C502.109 96.1953 501.035 95.7331 500.24 94.8086C499.452 93.8841 499.059 92.5104 499.059 90.6875C499.059 88.8451 499.462 87.4551 500.27 86.5176C501.077 85.5736 502.151 85.1016 503.492 85.1016C504.059 85.1016 504.553 85.1764 504.977 85.3262C505.4 85.4759 505.764 85.6777 506.07 85.9316C506.376 86.179 506.633 86.4622 506.842 86.7812H506.959C506.933 86.5794 506.907 86.3027 506.881 85.9512C506.855 85.5996 506.842 85.3132 506.842 85.0918V80.8047H508.463V96H507.154L506.91 94.4766H506.842C506.64 94.7956 506.383 95.0853 506.07 95.3457C505.764 95.6061 505.396 95.8145 504.967 95.9707C504.544 96.1204 504.042 96.1953 503.463 96.1953ZM503.717 94.8477C504.863 94.8477 505.673 94.5221 506.148 93.8711C506.624 93.2201 506.861 92.2533 506.861 90.9707V90.6777C506.861 89.3171 506.633 88.2721 506.178 87.543C505.729 86.8138 504.908 86.4492 503.717 86.4492C502.721 86.4492 501.975 86.8333 501.48 87.6016C500.986 88.3633 500.738 89.4049 500.738 90.7266C500.738 92.0417 500.982 93.0573 501.471 93.7734C501.965 94.4896 502.714 94.8477 503.717 94.8477ZM140.953 123V108.723H142.613V123H140.953ZM154.479 127.805C153.072 127.805 151.988 127.541 151.227 127.014C150.465 126.493 150.084 125.76 150.084 124.816C150.084 124.146 150.296 123.573 150.719 123.098C151.148 122.622 151.741 122.307 152.496 122.15C152.216 122.02 151.975 121.825 151.773 121.564C151.578 121.304 151.48 121.005 151.48 120.666C151.48 120.275 151.588 119.934 151.803 119.641C152.024 119.341 152.359 119.055 152.809 118.781C152.249 118.553 151.793 118.169 151.441 117.629C151.096 117.082 150.924 116.447 150.924 115.725C150.924 114.956 151.083 114.302 151.402 113.762C151.721 113.215 152.184 112.798 152.789 112.512C153.395 112.225 154.127 112.082 154.986 112.082C155.175 112.082 155.364 112.092 155.553 112.111C155.748 112.124 155.934 112.147 156.109 112.18C156.285 112.206 156.438 112.238 156.568 112.277H160.24V113.322L158.268 113.566C158.463 113.82 158.626 114.126 158.756 114.484C158.886 114.842 158.951 115.24 158.951 115.676C158.951 116.743 158.59 117.593 157.867 118.225C157.145 118.85 156.152 119.162 154.889 119.162C154.589 119.162 154.283 119.136 153.971 119.084C153.652 119.26 153.408 119.455 153.238 119.67C153.076 119.885 152.994 120.132 152.994 120.412C152.994 120.62 153.056 120.786 153.18 120.91C153.31 121.034 153.495 121.125 153.736 121.184C153.977 121.236 154.267 121.262 154.605 121.262H156.49C157.656 121.262 158.548 121.506 159.166 121.994C159.791 122.482 160.104 123.195 160.104 124.133C160.104 125.318 159.622 126.226 158.658 126.857C157.695 127.489 156.301 127.805 154.479 127.805ZM154.527 126.535C155.413 126.535 156.145 126.444 156.725 126.262C157.311 126.086 157.747 125.829 158.033 125.49C158.326 125.158 158.473 124.761 158.473 124.299C158.473 123.869 158.375 123.544 158.18 123.322C157.984 123.107 157.698 122.964 157.32 122.893C156.943 122.814 156.48 122.775 155.934 122.775H154.078C153.596 122.775 153.176 122.85 152.818 123C152.46 123.15 152.184 123.371 151.988 123.664C151.799 123.957 151.705 124.322 151.705 124.758C151.705 125.337 151.949 125.777 152.438 126.076C152.926 126.382 153.622 126.535 154.527 126.535ZM154.947 117.98C155.722 117.98 156.305 117.785 156.695 117.395C157.086 117.004 157.281 116.434 157.281 115.686C157.281 114.885 157.083 114.286 156.686 113.889C156.288 113.485 155.702 113.283 154.928 113.283C154.186 113.283 153.613 113.492 153.209 113.908C152.812 114.318 152.613 114.921 152.613 115.715C152.613 116.444 152.815 117.004 153.219 117.395C153.622 117.785 154.199 117.98 154.947 117.98ZM166.354 112.121C167.63 112.121 168.577 112.408 169.195 112.98C169.814 113.553 170.123 114.468 170.123 115.725V123H168.941L168.629 121.418H168.551C168.251 121.809 167.939 122.137 167.613 122.404C167.288 122.665 166.91 122.863 166.48 123C166.057 123.13 165.536 123.195 164.918 123.195C164.267 123.195 163.688 123.081 163.18 122.854C162.678 122.626 162.281 122.281 161.988 121.818C161.702 121.356 161.559 120.77 161.559 120.061C161.559 118.993 161.982 118.173 162.828 117.6C163.674 117.027 164.964 116.714 166.695 116.662L168.541 116.584V115.93C168.541 115.005 168.342 114.357 167.945 113.986C167.548 113.615 166.988 113.43 166.266 113.43C165.706 113.43 165.172 113.511 164.664 113.674C164.156 113.837 163.674 114.029 163.219 114.25L162.721 113.02C163.202 112.772 163.756 112.561 164.381 112.385C165.006 112.209 165.663 112.121 166.354 112.121ZM168.521 117.727L166.891 117.795C165.556 117.847 164.615 118.065 164.068 118.449C163.521 118.833 163.248 119.377 163.248 120.08C163.248 120.692 163.434 121.145 163.805 121.438C164.176 121.73 164.667 121.877 165.279 121.877C166.23 121.877 167.008 121.613 167.613 121.086C168.219 120.559 168.521 119.768 168.521 118.713V117.727ZM175.084 112.297V123H173.463V112.297H175.084ZM174.293 108.293C174.56 108.293 174.788 108.381 174.977 108.557C175.172 108.726 175.27 108.993 175.27 109.357C175.27 109.715 175.172 109.982 174.977 110.158C174.788 110.334 174.56 110.422 174.293 110.422C174.013 110.422 173.779 110.334 173.59 110.158C173.408 109.982 173.316 109.715 173.316 109.357C173.316 108.993 173.408 108.726 173.59 108.557C173.779 108.381 174.013 108.293 174.293 108.293ZM183.59 112.102C184.859 112.102 185.82 112.414 186.471 113.039C187.122 113.658 187.447 114.654 187.447 116.027V123H185.846V116.135C185.846 115.243 185.641 114.576 185.23 114.133C184.827 113.69 184.205 113.469 183.365 113.469C182.18 113.469 181.347 113.804 180.865 114.475C180.383 115.145 180.143 116.118 180.143 117.395V123H178.521V112.297H179.83L180.074 113.84H180.162C180.39 113.462 180.68 113.146 181.031 112.893C181.383 112.632 181.777 112.437 182.213 112.307C182.649 112.17 183.108 112.102 183.59 112.102ZM194.908 112.102C195.82 112.102 196.601 112.303 197.252 112.707C197.903 113.111 198.401 113.677 198.746 114.406C199.091 115.129 199.264 115.975 199.264 116.945V117.951H191.871C191.891 119.208 192.203 120.165 192.809 120.822C193.414 121.48 194.267 121.809 195.367 121.809C196.044 121.809 196.643 121.747 197.164 121.623C197.685 121.499 198.225 121.317 198.785 121.076V122.502C198.245 122.743 197.708 122.919 197.174 123.029C196.646 123.14 196.021 123.195 195.299 123.195C194.27 123.195 193.372 122.987 192.604 122.57C191.842 122.147 191.249 121.529 190.826 120.715C190.403 119.901 190.191 118.905 190.191 117.727C190.191 116.574 190.383 115.578 190.768 114.738C191.158 113.892 191.705 113.241 192.408 112.785C193.118 112.329 193.951 112.102 194.908 112.102ZM194.889 113.43C194.023 113.43 193.333 113.713 192.818 114.279C192.304 114.846 191.998 115.637 191.9 116.652H197.564C197.558 116.014 197.457 115.454 197.262 114.973C197.073 114.484 196.783 114.107 196.393 113.84C196.002 113.566 195.501 113.43 194.889 113.43ZM205.826 123.195C204.472 123.195 203.398 122.733 202.604 121.809C201.816 120.884 201.422 119.51 201.422 117.688C201.422 115.845 201.826 114.455 202.633 113.518C203.44 112.574 204.514 112.102 205.855 112.102C206.422 112.102 206.917 112.176 207.34 112.326C207.763 112.476 208.128 112.678 208.434 112.932C208.74 113.179 208.997 113.462 209.205 113.781H209.322C209.296 113.579 209.27 113.303 209.244 112.951C209.218 112.6 209.205 112.313 209.205 112.092V107.805H210.826V123H209.518L209.273 121.477H209.205C209.003 121.796 208.746 122.085 208.434 122.346C208.128 122.606 207.76 122.814 207.33 122.971C206.907 123.12 206.406 123.195 205.826 123.195ZM206.08 121.848C207.226 121.848 208.036 121.522 208.512 120.871C208.987 120.22 209.225 119.253 209.225 117.971V117.678C209.225 116.317 208.997 115.272 208.541 114.543C208.092 113.814 207.271 113.449 206.08 113.449C205.084 113.449 204.339 113.833 203.844 114.602C203.349 115.363 203.102 116.405 203.102 117.727C203.102 119.042 203.346 120.057 203.834 120.773C204.329 121.49 205.077 121.848 206.08 121.848ZM223.463 112.121C224.739 112.121 225.686 112.408 226.305 112.98C226.923 113.553 227.232 114.468 227.232 115.725V123H226.051L225.738 121.418H225.66C225.361 121.809 225.048 122.137 224.723 122.404C224.397 122.665 224.02 122.863 223.59 123C223.167 123.13 222.646 123.195 222.027 123.195C221.376 123.195 220.797 123.081 220.289 122.854C219.788 122.626 219.391 122.281 219.098 121.818C218.811 121.356 218.668 120.77 218.668 120.061C218.668 118.993 219.091 118.173 219.938 117.6C220.784 117.027 222.073 116.714 223.805 116.662L225.65 116.584V115.93C225.65 115.005 225.452 114.357 225.055 113.986C224.658 113.615 224.098 113.43 223.375 113.43C222.815 113.43 222.281 113.511 221.773 113.674C221.266 113.837 220.784 114.029 220.328 114.25L219.83 113.02C220.312 112.772 220.865 112.561 221.49 112.385C222.115 112.209 222.773 112.121 223.463 112.121ZM225.631 117.727L224 117.795C222.665 117.847 221.725 118.065 221.178 118.449C220.631 118.833 220.357 119.377 220.357 120.08C220.357 120.692 220.543 121.145 220.914 121.438C221.285 121.73 221.777 121.877 222.389 121.877C223.339 121.877 224.117 121.613 224.723 121.086C225.328 120.559 225.631 119.768 225.631 118.713V117.727Z" fill="#1F2024"/>
<path d="M416.92 80.8047V83.9004C416.92 84.4408 416.9 84.9551 416.861 85.4434C416.829 85.9316 416.803 86.2767 416.783 86.4785H416.939C417.174 86.1009 417.451 85.7949 417.77 85.5605C418.095 85.3262 418.453 85.1536 418.844 85.043C419.234 84.9323 419.654 84.877 420.104 84.877C420.891 84.877 421.578 85.0169 422.164 85.2969C422.75 85.5703 423.206 86.0033 423.531 86.5957C423.857 87.1816 424.02 87.9434 424.02 88.8809V96H421.041V89.623C421.041 88.8418 420.898 88.2526 420.611 87.8555C420.325 87.4583 419.882 87.2598 419.283 87.2598C418.684 87.2598 418.212 87.3997 417.867 87.6797C417.522 87.9531 417.278 88.36 417.135 88.9004C416.992 89.4342 416.92 90.0885 416.92 90.8633V96H413.941V80.8047H416.92ZM437.008 90.5215C437.008 91.4329 436.884 92.2402 436.637 92.9434C436.396 93.6465 436.041 94.2422 435.572 94.7305C435.11 95.2122 434.55 95.5768 433.893 95.8242C433.242 96.0716 432.506 96.1953 431.686 96.1953C430.917 96.1953 430.211 96.0716 429.566 95.8242C428.928 95.5768 428.372 95.2122 427.896 94.7305C427.428 94.2422 427.063 93.6465 426.803 92.9434C426.549 92.2402 426.422 91.4329 426.422 90.5215C426.422 89.3105 426.637 88.2852 427.066 87.4453C427.496 86.6055 428.108 85.9674 428.902 85.5312C429.697 85.0951 430.644 84.877 431.744 84.877C432.766 84.877 433.671 85.0951 434.459 85.5312C435.253 85.9674 435.875 86.6055 436.324 87.4453C436.78 88.2852 437.008 89.3105 437.008 90.5215ZM429.459 90.5215C429.459 91.2376 429.537 91.8398 429.693 92.3281C429.85 92.8164 430.094 93.1842 430.426 93.4316C430.758 93.679 431.191 93.8027 431.725 93.8027C432.252 93.8027 432.678 93.679 433.004 93.4316C433.336 93.1842 433.577 92.8164 433.727 92.3281C433.883 91.8398 433.961 91.2376 433.961 90.5215C433.961 89.7988 433.883 89.1999 433.727 88.7246C433.577 88.2428 433.336 87.8815 433.004 87.6406C432.672 87.3997 432.239 87.2793 431.705 87.2793C430.917 87.2793 430.344 87.5495 429.986 88.0898C429.635 88.6302 429.459 89.4408 429.459 90.5215ZM452.291 84.877C453.528 84.877 454.462 85.196 455.094 85.834C455.732 86.4655 456.051 87.4811 456.051 88.8809V96H453.062V89.623C453.062 88.8418 452.929 88.2526 452.662 87.8555C452.395 87.4583 451.982 87.2598 451.422 87.2598C450.634 87.2598 450.074 87.543 449.742 88.1094C449.41 88.6693 449.244 89.4733 449.244 90.5215V96H446.266V89.623C446.266 89.1022 446.207 88.666 446.09 88.3145C445.973 87.9629 445.794 87.6992 445.553 87.5234C445.312 87.3477 445.003 87.2598 444.625 87.2598C444.072 87.2598 443.635 87.3997 443.316 87.6797C443.004 87.9531 442.779 88.36 442.643 88.9004C442.512 89.4342 442.447 90.0885 442.447 90.8633V96H439.469V85.082H441.744L442.145 86.4785H442.311C442.532 86.1009 442.809 85.7949 443.141 85.5605C443.479 85.3262 443.85 85.1536 444.254 85.043C444.658 84.9323 445.068 84.877 445.484 84.877C446.285 84.877 446.962 85.0072 447.516 85.2676C448.076 85.528 448.505 85.9316 448.805 86.4785H449.068C449.394 85.9186 449.853 85.5117 450.445 85.2578C451.044 85.0039 451.66 84.877 452.291 84.877ZM463.619 84.877C464.628 84.877 465.497 85.0723 466.227 85.4629C466.956 85.847 467.519 86.4069 467.916 87.1426C468.313 87.8783 468.512 88.7767 468.512 89.8379V91.2832H461.471C461.503 92.123 461.754 92.7839 462.223 93.2656C462.698 93.7409 463.355 93.9785 464.195 93.9785C464.892 93.9785 465.53 93.9069 466.109 93.7637C466.689 93.6204 467.285 93.4056 467.896 93.1191V95.4238C467.356 95.6908 466.79 95.8861 466.197 96.0098C465.611 96.1335 464.898 96.1953 464.059 96.1953C462.965 96.1953 461.995 95.9935 461.148 95.5898C460.309 95.1862 459.648 94.571 459.166 93.7441C458.691 92.9173 458.453 91.8757 458.453 90.6191C458.453 89.3431 458.668 88.2819 459.098 87.4355C459.534 86.5827 460.139 85.9447 460.914 85.5215C461.689 85.0918 462.59 84.877 463.619 84.877ZM463.639 86.9961C463.059 86.9961 462.577 87.1816 462.193 87.5527C461.816 87.9238 461.598 88.5065 461.539 89.3008H465.719C465.712 88.8581 465.631 88.4642 465.475 88.1191C465.325 87.7741 465.097 87.5007 464.791 87.2988C464.492 87.097 464.107 86.9961 463.639 86.9961ZM238.6 123H235.621V107.805H238.6V123ZM244.713 112.082V123H241.734V112.082H244.713ZM243.229 107.805C243.671 107.805 244.052 107.909 244.371 108.117C244.69 108.319 244.85 108.7 244.85 109.26C244.85 109.813 244.69 110.197 244.371 110.412C244.052 110.62 243.671 110.725 243.229 110.725C242.779 110.725 242.395 110.62 242.076 110.412C241.764 110.197 241.607 109.813 241.607 109.26C241.607 108.7 241.764 108.319 242.076 108.117C242.395 107.909 242.779 107.805 243.229 107.805ZM253.883 114.318H251.305V123H248.326V114.318H246.686V112.883L248.326 112.082V111.281C248.326 110.35 248.482 109.628 248.795 109.113C249.114 108.592 249.56 108.228 250.133 108.02C250.712 107.805 251.396 107.697 252.184 107.697C252.763 107.697 253.29 107.746 253.766 107.844C254.241 107.935 254.628 108.039 254.928 108.156L254.166 110.344C253.938 110.272 253.691 110.207 253.424 110.148C253.157 110.09 252.851 110.061 252.506 110.061C252.089 110.061 251.783 110.188 251.588 110.441C251.399 110.689 251.305 111.008 251.305 111.398V112.082H253.883V114.318ZM260.104 111.877C261.113 111.877 261.982 112.072 262.711 112.463C263.44 112.847 264.003 113.407 264.4 114.143C264.798 114.878 264.996 115.777 264.996 116.838V118.283H257.955C257.988 119.123 258.238 119.784 258.707 120.266C259.182 120.741 259.84 120.979 260.68 120.979C261.376 120.979 262.014 120.907 262.594 120.764C263.173 120.62 263.769 120.406 264.381 120.119V122.424C263.84 122.691 263.274 122.886 262.682 123.01C262.096 123.133 261.383 123.195 260.543 123.195C259.449 123.195 258.479 122.993 257.633 122.59C256.793 122.186 256.132 121.571 255.65 120.744C255.175 119.917 254.938 118.876 254.938 117.619C254.938 116.343 255.152 115.282 255.582 114.436C256.018 113.583 256.624 112.945 257.398 112.521C258.173 112.092 259.075 111.877 260.104 111.877ZM260.123 113.996C259.544 113.996 259.062 114.182 258.678 114.553C258.3 114.924 258.082 115.507 258.023 116.301H262.203C262.197 115.858 262.115 115.464 261.959 115.119C261.809 114.774 261.581 114.501 261.275 114.299C260.976 114.097 260.592 113.996 260.123 113.996ZM270.396 123H267.418V107.805H270.396V123ZM283.453 117.521C283.453 118.433 283.329 119.24 283.082 119.943C282.841 120.646 282.486 121.242 282.018 121.73C281.555 122.212 280.995 122.577 280.338 122.824C279.687 123.072 278.951 123.195 278.131 123.195C277.363 123.195 276.656 123.072 276.012 122.824C275.374 122.577 274.817 122.212 274.342 121.73C273.873 121.242 273.508 120.646 273.248 119.943C272.994 119.24 272.867 118.433 272.867 117.521C272.867 116.311 273.082 115.285 273.512 114.445C273.941 113.605 274.553 112.967 275.348 112.531C276.142 112.095 277.089 111.877 278.189 111.877C279.212 111.877 280.117 112.095 280.904 112.531C281.699 112.967 282.32 113.605 282.77 114.445C283.225 115.285 283.453 116.311 283.453 117.521ZM275.904 117.521C275.904 118.238 275.982 118.84 276.139 119.328C276.295 119.816 276.539 120.184 276.871 120.432C277.203 120.679 277.636 120.803 278.17 120.803C278.697 120.803 279.124 120.679 279.449 120.432C279.781 120.184 280.022 119.816 280.172 119.328C280.328 118.84 280.406 118.238 280.406 117.521C280.406 116.799 280.328 116.2 280.172 115.725C280.022 115.243 279.781 114.882 279.449 114.641C279.117 114.4 278.684 114.279 278.15 114.279C277.363 114.279 276.79 114.549 276.432 115.09C276.08 115.63 275.904 116.441 275.904 117.521ZM292.115 111.877C293.281 111.877 294.218 112.196 294.928 112.834C295.637 113.465 295.992 114.481 295.992 115.881V123H293.014V116.623C293.014 115.842 292.87 115.253 292.584 114.855C292.304 114.458 291.861 114.26 291.256 114.26C290.344 114.26 289.723 114.569 289.391 115.188C289.059 115.806 288.893 116.698 288.893 117.863V123H285.914V112.082H288.189L288.59 113.479H288.756C288.99 113.101 289.28 112.795 289.625 112.561C289.977 112.326 290.364 112.154 290.787 112.043C291.217 111.932 291.66 111.877 292.115 111.877ZM302.252 127.805C300.729 127.805 299.563 127.538 298.756 127.004C297.955 126.477 297.555 125.734 297.555 124.777C297.555 124.12 297.76 123.57 298.17 123.127C298.58 122.684 299.182 122.368 299.977 122.18C299.671 122.049 299.404 121.838 299.176 121.545C298.948 121.245 298.834 120.93 298.834 120.598C298.834 120.181 298.954 119.836 299.195 119.562C299.436 119.283 299.785 119.009 300.24 118.742C299.667 118.495 299.212 118.098 298.873 117.551C298.541 117.004 298.375 116.359 298.375 115.617C298.375 114.823 298.548 114.149 298.893 113.596C299.244 113.036 299.752 112.609 300.416 112.316C301.087 112.023 301.9 111.877 302.857 111.877C303.059 111.877 303.294 111.89 303.561 111.916C303.827 111.942 304.072 111.971 304.293 112.004C304.521 112.036 304.674 112.062 304.752 112.082H308.561V113.596L306.852 114.035C307.008 114.276 307.125 114.533 307.203 114.807C307.281 115.08 307.32 115.37 307.32 115.676C307.32 116.848 306.91 117.762 306.09 118.42C305.276 119.071 304.143 119.396 302.691 119.396C302.346 119.377 302.021 119.351 301.715 119.318C301.565 119.436 301.451 119.559 301.373 119.689C301.295 119.82 301.256 119.956 301.256 120.1C301.256 120.243 301.314 120.363 301.432 120.461C301.555 120.552 301.738 120.624 301.979 120.676C302.226 120.721 302.532 120.744 302.896 120.744H304.752C305.95 120.744 306.861 121.001 307.486 121.516C308.118 122.03 308.434 122.785 308.434 123.781C308.434 125.057 307.9 126.047 306.832 126.75C305.771 127.453 304.244 127.805 302.252 127.805ZM302.379 125.861C303.089 125.861 303.697 125.793 304.205 125.656C304.719 125.526 305.113 125.337 305.387 125.09C305.66 124.849 305.797 124.559 305.797 124.221C305.797 123.947 305.715 123.729 305.553 123.566C305.396 123.41 305.156 123.299 304.83 123.234C304.511 123.169 304.101 123.137 303.6 123.137H302.057C301.692 123.137 301.363 123.195 301.07 123.312C300.784 123.43 300.556 123.592 300.387 123.801C300.217 124.016 300.133 124.263 300.133 124.543C300.133 124.953 300.328 125.275 300.719 125.51C301.116 125.744 301.669 125.861 302.379 125.861ZM302.857 117.58C303.417 117.58 303.827 117.408 304.088 117.062C304.348 116.717 304.479 116.249 304.479 115.656C304.479 114.999 304.342 114.507 304.068 114.182C303.801 113.85 303.398 113.684 302.857 113.684C302.311 113.684 301.9 113.85 301.627 114.182C301.354 114.507 301.217 114.999 301.217 115.656C301.217 116.249 301.35 116.717 301.617 117.062C301.891 117.408 302.304 117.58 302.857 117.58ZM321.598 114.318H319.02V123H316.041V114.318H314.4V112.883L316.041 112.082V111.281C316.041 110.35 316.197 109.628 316.51 109.113C316.829 108.592 317.275 108.228 317.848 108.02C318.427 107.805 319.111 107.697 319.898 107.697C320.478 107.697 321.005 107.746 321.48 107.844C321.956 107.935 322.343 108.039 322.643 108.156L321.881 110.344C321.653 110.272 321.406 110.207 321.139 110.148C320.872 110.09 320.566 110.061 320.221 110.061C319.804 110.061 319.498 110.188 319.303 110.441C319.114 110.689 319.02 111.008 319.02 111.398V112.082H321.598V114.318ZM329.41 111.877C329.56 111.877 329.732 111.887 329.928 111.906C330.13 111.919 330.292 111.939 330.416 111.965L330.191 114.758C330.094 114.725 329.954 114.702 329.771 114.689C329.596 114.67 329.443 114.66 329.312 114.66C328.928 114.66 328.554 114.709 328.189 114.807C327.831 114.904 327.509 115.064 327.223 115.285C326.936 115.5 326.708 115.786 326.539 116.145C326.376 116.496 326.295 116.929 326.295 117.443V123H323.316V112.082H325.572L326.012 113.918H326.158C326.373 113.547 326.64 113.208 326.959 112.902C327.285 112.59 327.652 112.342 328.062 112.16C328.479 111.971 328.928 111.877 329.41 111.877ZM335.377 112.082V123H332.398V112.082H335.377ZM333.893 107.805C334.335 107.805 334.716 107.909 335.035 108.117C335.354 108.319 335.514 108.7 335.514 109.26C335.514 109.813 335.354 110.197 335.035 110.412C334.716 110.62 334.335 110.725 333.893 110.725C333.443 110.725 333.059 110.62 332.74 110.412C332.428 110.197 332.271 109.813 332.271 109.26C332.271 108.7 332.428 108.319 332.74 108.117C333.059 107.909 333.443 107.805 333.893 107.805ZM343.014 111.877C344.023 111.877 344.892 112.072 345.621 112.463C346.35 112.847 346.913 113.407 347.311 114.143C347.708 114.878 347.906 115.777 347.906 116.838V118.283H340.865C340.898 119.123 341.148 119.784 341.617 120.266C342.092 120.741 342.75 120.979 343.59 120.979C344.286 120.979 344.924 120.907 345.504 120.764C346.083 120.62 346.679 120.406 347.291 120.119V122.424C346.751 122.691 346.184 122.886 345.592 123.01C345.006 123.133 344.293 123.195 343.453 123.195C342.359 123.195 341.389 122.993 340.543 122.59C339.703 122.186 339.042 121.571 338.561 120.744C338.085 119.917 337.848 118.876 337.848 117.619C337.848 116.343 338.062 115.282 338.492 114.436C338.928 113.583 339.534 112.945 340.309 112.521C341.083 112.092 341.985 111.877 343.014 111.877ZM343.033 113.996C342.454 113.996 341.972 114.182 341.588 114.553C341.21 114.924 340.992 115.507 340.934 116.301H345.113C345.107 115.858 345.025 115.464 344.869 115.119C344.719 114.774 344.492 114.501 344.186 114.299C343.886 114.097 343.502 113.996 343.033 113.996ZM356.529 111.877C357.695 111.877 358.632 112.196 359.342 112.834C360.051 113.465 360.406 114.481 360.406 115.881V123H357.428V116.623C357.428 115.842 357.285 115.253 356.998 114.855C356.718 114.458 356.275 114.26 355.67 114.26C354.758 114.26 354.137 114.569 353.805 115.188C353.473 115.806 353.307 116.698 353.307 117.863V123H350.328V112.082H352.604L353.004 113.479H353.17C353.404 113.101 353.694 112.795 354.039 112.561C354.391 112.326 354.778 112.154 355.201 112.043C355.631 111.932 356.074 111.877 356.529 111.877ZM366.93 123.195C365.712 123.195 364.719 122.72 363.951 121.77C363.189 120.812 362.809 119.41 362.809 117.561C362.809 115.692 363.196 114.279 363.971 113.322C364.745 112.359 365.758 111.877 367.008 111.877C367.529 111.877 367.988 111.949 368.385 112.092C368.782 112.235 369.124 112.427 369.41 112.668C369.703 112.909 369.951 113.179 370.152 113.479H370.25C370.211 113.27 370.162 112.964 370.104 112.561C370.051 112.15 370.025 111.73 370.025 111.301V107.805H373.014V123H370.729L370.152 121.584H370.025C369.837 121.883 369.599 122.157 369.312 122.404C369.033 122.645 368.697 122.837 368.307 122.98C367.916 123.124 367.457 123.195 366.93 123.195ZM367.975 120.822C368.788 120.822 369.361 120.581 369.693 120.1C370.032 119.611 370.211 118.879 370.23 117.902V117.58C370.23 116.519 370.068 115.708 369.742 115.148C369.417 114.582 368.811 114.299 367.926 114.299C367.268 114.299 366.754 114.582 366.383 115.148C366.012 115.715 365.826 116.532 365.826 117.6C365.826 118.667 366.012 119.471 366.383 120.012C366.76 120.552 367.291 120.822 367.975 120.822ZM375.709 121.604C375.709 120.992 375.875 120.562 376.207 120.314C376.546 120.067 376.952 119.943 377.428 119.943C377.89 119.943 378.287 120.067 378.619 120.314C378.958 120.562 379.127 120.992 379.127 121.604C379.127 122.189 378.958 122.613 378.619 122.873C378.287 123.133 377.89 123.264 377.428 123.264C376.952 123.264 376.546 123.133 376.207 122.873C375.875 122.613 375.709 122.189 375.709 121.604ZM388.785 108.723L388.932 108.938C388.814 109.413 388.661 109.921 388.473 110.461C388.284 110.995 388.082 111.532 387.867 112.072C387.652 112.613 387.434 113.127 387.213 113.615H385.074C385.198 113.088 385.322 112.535 385.445 111.955C385.569 111.376 385.683 110.806 385.787 110.246C385.898 109.686 385.986 109.178 386.051 108.723H388.785ZM384.234 108.723L384.371 108.938C384.254 109.413 384.101 109.921 383.912 110.461C383.73 110.995 383.528 111.532 383.307 112.072C383.092 112.613 382.874 113.127 382.652 113.615H380.514C380.605 113.225 380.696 112.814 380.787 112.385C380.885 111.955 380.976 111.525 381.061 111.096C381.152 110.666 381.233 110.249 381.305 109.846C381.376 109.442 381.438 109.068 381.49 108.723H384.234Z" fill="#F83E7D"/>
<path d="M105.808 22.8L98.3078 48.8L95.6078 38C98.9411 38 101.674 38.9667 103.808 40.9C105.941 42.8333 107.008 45.5 107.008 48.9C107.008 52.3 105.908 55.0333 103.708 57.1C101.574 59.1 98.8745 60.1 95.6078 60.1C92.3411 60.1 89.6078 59.1 87.4078 57.1C85.2745 55.0333 84.2078 52.3 84.2078 48.9C84.2078 47.9667 84.2745 47.0333 84.4078 46.1C84.6078 45.1667 84.9411 44.0333 85.4078 42.7C85.8745 41.3667 86.5745 39.6333 87.5078 37.5L93.9078 22.8H105.808ZM132.008 22.8L124.508 48.8L121.808 38C125.141 38 127.874 38.9667 130.008 40.9C132.141 42.8333 133.208 45.5 133.208 48.9C133.208 52.3 132.108 55.0333 129.908 57.1C127.774 59.1 125.074 60.1 121.808 60.1C118.541 60.1 115.808 59.1 113.608 57.1C111.474 55.0333 110.408 52.3 110.408 48.9C110.408 47.9667 110.474 47.0333 110.608 46.1C110.808 45.1667 111.141 44.0333 111.608 42.7C112.074 41.3667 112.774 39.6333 113.708 37.5L120.108 22.8H132.008Z" fill="#F83E7D"/>
<path d="M142.04 187.04L141.872 183.344L150.68 174.2H154.184L146.864 181.976L145.136 183.872L142.04 187.04ZM139.256 191V174.2H142.376V191H139.256ZM150.968 191L144.536 183.344L146.6 181.064L154.616 191H150.968ZM164.044 191V188.408L163.876 187.856V183.32C163.876 182.44 163.612 181.76 163.084 181.28C162.556 180.784 161.756 180.536 160.684 180.536C159.964 180.536 159.252 180.648 158.548 180.872C157.86 181.096 157.276 181.408 156.796 181.808L155.62 179.624C156.308 179.096 157.124 178.704 158.068 178.448C159.028 178.176 160.02 178.04 161.044 178.04C162.9 178.04 164.332 178.488 165.34 179.384C166.364 180.264 166.876 181.632 166.876 183.488V191H164.044ZM160.012 191.168C159.052 191.168 158.212 191.008 157.492 190.688C156.772 190.352 156.212 189.896 155.812 189.32C155.428 188.728 155.236 188.064 155.236 187.328C155.236 186.608 155.404 185.96 155.74 185.384C156.092 184.808 156.66 184.352 157.444 184.016C158.228 183.68 159.268 183.512 160.564 183.512H164.284V185.504H160.78C159.756 185.504 159.068 185.672 158.716 186.008C158.364 186.328 158.188 186.728 158.188 187.208C158.188 187.752 158.404 188.184 158.836 188.504C159.268 188.824 159.868 188.984 160.636 188.984C161.372 188.984 162.028 188.816 162.604 188.48C163.196 188.144 163.62 187.648 163.876 186.992L164.38 188.792C164.092 189.544 163.572 190.128 162.82 190.544C162.084 190.96 161.148 191.168 160.012 191.168ZM175.55 191.168C174.142 191.168 173.054 190.808 172.286 190.088C171.518 189.352 171.134 188.272 171.134 186.848V175.352H174.134V186.776C174.134 187.384 174.286 187.856 174.59 188.192C174.91 188.528 175.35 188.696 175.91 188.696C176.582 188.696 177.142 188.52 177.59 188.168L178.43 190.304C178.078 190.592 177.646 190.808 177.134 190.952C176.622 191.096 176.094 191.168 175.55 191.168ZM169.022 180.68V178.28H177.566V180.68H169.022ZM188.17 178.04C189.194 178.04 190.106 178.24 190.906 178.64C191.722 179.04 192.362 179.656 192.826 180.488C193.29 181.304 193.522 182.36 193.522 183.656V191H190.522V184.04C190.522 182.904 190.25 182.056 189.706 181.496C189.178 180.936 188.434 180.656 187.474 180.656C186.77 180.656 186.146 180.8 185.602 181.088C185.058 181.376 184.634 181.808 184.33 182.384C184.042 182.944 183.898 183.656 183.898 184.52V191H180.898V173.192H183.898V181.64L183.25 180.584C183.698 179.768 184.346 179.144 185.194 178.712C186.058 178.264 187.05 178.04 188.17 178.04ZM197.327 191V173.192H200.327V191H197.327ZM210.289 191.168C208.865 191.168 207.617 190.888 206.545 190.328C205.489 189.752 204.665 188.968 204.073 187.976C203.497 186.984 203.209 185.856 203.209 184.592C203.209 183.312 203.489 182.184 204.049 181.208C204.625 180.216 205.409 179.44 206.401 178.88C207.409 178.32 208.553 178.04 209.833 178.04C211.081 178.04 212.193 178.312 213.169 178.856C214.145 179.4 214.913 180.168 215.473 181.16C216.033 182.152 216.313 183.32 216.313 184.664C216.313 184.792 216.305 184.936 216.289 185.096C216.289 185.256 216.281 185.408 216.265 185.552H205.585V183.56H214.681L213.505 184.184C213.521 183.448 213.369 182.8 213.049 182.24C212.729 181.68 212.289 181.24 211.729 180.92C211.185 180.6 210.553 180.44 209.833 180.44C209.097 180.44 208.449 180.6 207.889 180.92C207.345 181.24 206.913 181.688 206.593 182.264C206.289 182.824 206.137 183.488 206.137 184.256V184.736C206.137 185.504 206.313 186.184 206.665 186.776C207.017 187.368 207.513 187.824 208.153 188.144C208.793 188.464 209.529 188.624 210.361 188.624C211.081 188.624 211.729 188.512 212.305 188.288C212.881 188.064 213.393 187.712 213.841 187.232L215.449 189.08C214.873 189.752 214.145 190.272 213.265 190.64C212.401 190.992 211.409 191.168 210.289 191.168ZM225.219 191.168C223.795 191.168 222.547 190.888 221.475 190.328C220.419 189.752 219.595 188.968 219.003 187.976C218.427 186.984 218.139 185.856 218.139 184.592C218.139 183.312 218.419 182.184 218.979 181.208C219.555 180.216 220.339 179.44 221.331 178.88C222.339 178.32 223.483 178.04 224.763 178.04C226.011 178.04 227.123 178.312 228.099 178.856C229.075 179.4 229.843 180.168 230.403 181.16C230.963 182.152 231.243 183.32 231.243 184.664C231.243 184.792 231.235 184.936 231.219 185.096C231.219 185.256 231.211 185.408 231.195 185.552H220.515V183.56H229.611L228.435 184.184C228.451 183.448 228.299 182.8 227.979 182.24C227.659 181.68 227.219 181.24 226.659 180.92C226.115 180.6 225.483 180.44 224.763 180.44C224.027 180.44 223.379 180.6 222.819 180.92C222.275 181.24 221.843 181.688 221.523 182.264C221.219 182.824 221.067 183.488 221.067 184.256V184.736C221.067 185.504 221.243 186.184 221.595 186.776C221.947 187.368 222.443 187.824 223.083 188.144C223.723 188.464 224.459 188.624 225.291 188.624C226.011 188.624 226.659 188.512 227.235 188.288C227.811 188.064 228.323 187.712 228.771 187.232L230.379 189.08C229.803 189.752 229.075 190.272 228.195 190.64C227.331 190.992 226.339 191.168 225.219 191.168ZM241.396 178.04C242.42 178.04 243.332 178.24 244.132 178.64C244.948 179.04 245.588 179.656 246.052 180.488C246.516 181.304 246.748 182.36 246.748 183.656V191H243.748V184.04C243.748 182.904 243.476 182.056 242.932 181.496C242.404 180.936 241.66 180.656 240.7 180.656C239.996 180.656 239.372 180.8 238.828 181.088C238.284 181.376 237.86 181.808 237.556 182.384C237.268 182.944 237.124 183.656 237.124 184.52V191H234.124V178.184H236.98V181.64L236.476 180.584C236.924 179.768 237.572 179.144 238.42 178.712C239.284 178.264 240.276 178.04 241.396 178.04ZM249.645 180.464L251.037 175.136L251.445 176.936C250.885 176.936 250.413 176.76 250.029 176.408C249.661 176.056 249.477 175.584 249.477 174.992C249.477 174.4 249.661 173.928 250.029 173.576C250.413 173.208 250.877 173.024 251.421 173.024C251.981 173.024 252.445 173.208 252.813 173.576C253.181 173.944 253.365 174.416 253.365 174.992C253.365 175.168 253.349 175.352 253.317 175.544C253.301 175.72 253.253 175.928 253.173 176.168C253.109 176.392 252.997 176.688 252.837 177.056L251.589 180.464H249.645ZM259.858 191.168C258.786 191.168 257.754 191.032 256.762 190.76C255.786 190.472 255.01 190.128 254.434 189.728L255.586 187.448C256.162 187.816 256.85 188.12 257.65 188.36C258.45 188.6 259.25 188.72 260.05 188.72C260.994 188.72 261.674 188.592 262.09 188.336C262.522 188.08 262.738 187.736 262.738 187.304C262.738 186.952 262.594 186.688 262.306 186.512C262.018 186.32 261.642 186.176 261.178 186.08C260.714 185.984 260.194 185.896 259.618 185.816C259.058 185.736 258.49 185.632 257.914 185.504C257.354 185.36 256.842 185.16 256.378 184.904C255.914 184.632 255.538 184.272 255.25 183.824C254.962 183.376 254.818 182.784 254.818 182.048C254.818 181.232 255.05 180.528 255.514 179.936C255.978 179.328 256.626 178.864 257.458 178.544C258.306 178.208 259.306 178.04 260.458 178.04C261.322 178.04 262.194 178.136 263.074 178.328C263.954 178.52 264.682 178.792 265.258 179.144L264.106 181.424C263.498 181.056 262.882 180.808 262.258 180.68C261.65 180.536 261.042 180.464 260.434 180.464C259.522 180.464 258.842 180.6 258.394 180.872C257.962 181.144 257.746 181.488 257.746 181.904C257.746 182.288 257.89 182.576 258.178 182.768C258.466 182.96 258.842 183.112 259.306 183.224C259.77 183.336 260.282 183.432 260.842 183.512C261.418 183.576 261.986 183.68 262.546 183.824C263.106 183.968 263.618 184.168 264.082 184.424C264.562 184.664 264.946 185.008 265.234 185.456C265.522 185.904 265.666 186.488 265.666 187.208C265.666 188.008 265.426 188.704 264.946 189.296C264.482 189.888 263.818 190.352 262.954 190.688C262.09 191.008 261.058 191.168 259.858 191.168ZM331.047 213V201.578H332.922V211.406H337.773V213H331.047ZM342.953 204.188C344.047 204.188 344.872 204.43 345.43 204.914C345.992 205.398 346.273 206.154 346.273 207.18V213H344.969L344.617 211.773H344.555C344.31 212.086 344.057 212.344 343.797 212.547C343.536 212.75 343.234 212.901 342.891 213C342.552 213.104 342.138 213.156 341.648 213.156C341.133 213.156 340.672 213.062 340.266 212.875C339.859 212.682 339.539 212.391 339.305 212C339.07 211.609 338.953 211.115 338.953 210.516C338.953 209.625 339.284 208.956 339.945 208.508C340.612 208.06 341.617 207.812 342.961 207.766L344.461 207.711V207.258C344.461 206.659 344.32 206.232 344.039 205.977C343.763 205.721 343.372 205.594 342.867 205.594C342.435 205.594 342.016 205.656 341.609 205.781C341.203 205.906 340.807 206.06 340.422 206.242L339.828 204.945C340.25 204.721 340.729 204.539 341.266 204.398C341.807 204.258 342.37 204.188 342.953 204.188ZM344.453 208.867L343.336 208.906C342.419 208.938 341.776 209.094 341.406 209.375C341.036 209.656 340.852 210.042 340.852 210.531C340.852 210.958 340.979 211.271 341.234 211.469C341.49 211.661 341.826 211.758 342.242 211.758C342.878 211.758 343.404 211.578 343.82 211.219C344.242 210.854 344.453 210.32 344.453 209.617V208.867ZM356.383 204.352V213H354.938L354.688 211.836H354.586C354.404 212.133 354.172 212.38 353.891 212.578C353.609 212.771 353.297 212.914 352.953 213.008C352.609 213.107 352.247 213.156 351.867 213.156C351.216 213.156 350.659 213.047 350.195 212.828C349.737 212.604 349.385 212.26 349.141 211.797C348.896 211.333 348.773 210.734 348.773 210V204.352H350.617V209.656C350.617 210.328 350.753 210.831 351.023 211.164C351.299 211.497 351.727 211.664 352.305 211.664C352.862 211.664 353.305 211.549 353.633 211.32C353.961 211.091 354.193 210.753 354.328 210.305C354.469 209.857 354.539 209.307 354.539 208.656V204.352H356.383ZM363.398 204.188C363.544 204.188 363.703 204.195 363.875 204.211C364.047 204.227 364.195 204.247 364.32 204.273L364.148 205.992C364.039 205.961 363.904 205.938 363.742 205.922C363.586 205.906 363.445 205.898 363.32 205.898C362.992 205.898 362.68 205.953 362.383 206.062C362.086 206.167 361.823 206.328 361.594 206.547C361.365 206.76 361.185 207.029 361.055 207.352C360.924 207.674 360.859 208.049 360.859 208.477V213H359.016V204.352H360.453L360.703 205.875H360.789C360.961 205.568 361.174 205.286 361.43 205.031C361.685 204.776 361.977 204.573 362.305 204.422C362.638 204.266 363.003 204.188 363.398 204.188ZM369.312 204.188C370.406 204.188 371.232 204.43 371.789 204.914C372.352 205.398 372.633 206.154 372.633 207.18V213H371.328L370.977 211.773H370.914C370.669 212.086 370.417 212.344 370.156 212.547C369.896 212.75 369.594 212.901 369.25 213C368.911 213.104 368.497 213.156 368.008 213.156C367.492 213.156 367.031 213.062 366.625 212.875C366.219 212.682 365.898 212.391 365.664 212C365.43 211.609 365.312 211.115 365.312 210.516C365.312 209.625 365.643 208.956 366.305 208.508C366.971 208.06 367.977 207.812 369.32 207.766L370.82 207.711V207.258C370.82 206.659 370.68 206.232 370.398 205.977C370.122 205.721 369.732 205.594 369.227 205.594C368.794 205.594 368.375 205.656 367.969 205.781C367.562 205.906 367.167 206.06 366.781 206.242L366.188 204.945C366.609 204.721 367.089 204.539 367.625 204.398C368.167 204.258 368.729 204.188 369.312 204.188ZM370.812 208.867L369.695 208.906C368.779 208.938 368.135 209.094 367.766 209.375C367.396 209.656 367.211 210.042 367.211 210.531C367.211 210.958 367.339 211.271 367.594 211.469C367.849 211.661 368.185 211.758 368.602 211.758C369.237 211.758 369.763 211.578 370.18 211.219C370.602 210.854 370.812 210.32 370.812 209.617V208.867Z" fill="#F83E7D"/>
<path d="M143.367 203.008C142.82 203.008 142.331 203.107 141.898 203.305C141.471 203.503 141.109 203.789 140.812 204.164C140.516 204.534 140.289 204.984 140.133 205.516C139.977 206.042 139.898 206.635 139.898 207.297C139.898 208.182 140.023 208.945 140.273 209.586C140.523 210.221 140.904 210.711 141.414 211.055C141.924 211.393 142.57 211.562 143.352 211.562C143.836 211.562 144.307 211.516 144.766 211.422C145.224 211.328 145.698 211.201 146.188 211.039V212.633C145.724 212.815 145.255 212.948 144.781 213.031C144.307 213.115 143.76 213.156 143.141 213.156C141.974 213.156 141.005 212.914 140.234 212.43C139.469 211.945 138.896 211.263 138.516 210.383C138.141 209.503 137.953 208.471 137.953 207.289C137.953 206.424 138.073 205.633 138.312 204.914C138.552 204.195 138.901 203.576 139.359 203.055C139.818 202.529 140.383 202.125 141.055 201.844C141.732 201.557 142.505 201.414 143.375 201.414C143.948 201.414 144.51 201.479 145.062 201.609C145.62 201.734 146.135 201.914 146.609 202.148L145.953 203.695C145.557 203.508 145.143 203.346 144.711 203.211C144.279 203.076 143.831 203.008 143.367 203.008ZM156.109 208.656C156.109 209.375 156.016 210.013 155.828 210.57C155.641 211.128 155.367 211.599 155.008 211.984C154.648 212.365 154.216 212.656 153.711 212.859C153.206 213.057 152.635 213.156 152 213.156C151.406 213.156 150.862 213.057 150.367 212.859C149.872 212.656 149.443 212.365 149.078 211.984C148.719 211.599 148.44 211.128 148.242 210.57C148.044 210.013 147.945 209.375 147.945 208.656C147.945 207.703 148.109 206.896 148.438 206.234C148.771 205.568 149.245 205.06 149.859 204.711C150.474 204.362 151.206 204.188 152.055 204.188C152.852 204.188 153.555 204.362 154.164 204.711C154.773 205.06 155.25 205.568 155.594 206.234C155.938 206.901 156.109 207.708 156.109 208.656ZM149.836 208.656C149.836 209.286 149.911 209.826 150.062 210.273C150.219 210.721 150.458 211.065 150.781 211.305C151.104 211.539 151.521 211.656 152.031 211.656C152.542 211.656 152.958 211.539 153.281 211.305C153.604 211.065 153.841 210.721 153.992 210.273C154.143 209.826 154.219 209.286 154.219 208.656C154.219 208.026 154.143 207.492 153.992 207.055C153.841 206.612 153.604 206.276 153.281 206.047C152.958 205.812 152.539 205.695 152.023 205.695C151.263 205.695 150.708 205.951 150.359 206.461C150.01 206.971 149.836 207.703 149.836 208.656ZM160.062 213H158.219V200.844H160.062V213ZM164.523 204.352V213H162.688V204.352H164.523ZM163.617 201.039C163.898 201.039 164.141 201.115 164.344 201.266C164.552 201.417 164.656 201.677 164.656 202.047C164.656 202.411 164.552 202.672 164.344 202.828C164.141 202.979 163.898 203.055 163.617 203.055C163.326 203.055 163.078 202.979 162.875 202.828C162.677 202.672 162.578 202.411 162.578 202.047C162.578 201.677 162.677 201.417 162.875 201.266C163.078 201.115 163.326 201.039 163.617 201.039ZM169.133 213L165.844 204.352H167.789L169.57 209.43C169.685 209.753 169.789 210.102 169.883 210.477C169.977 210.852 170.042 211.167 170.078 211.422H170.141C170.177 211.156 170.247 210.839 170.352 210.469C170.456 210.094 170.562 209.747 170.672 209.43L172.453 204.352H174.391L171.102 213H169.133ZM177.539 204.352V213H175.703V204.352H177.539ZM176.633 201.039C176.914 201.039 177.156 201.115 177.359 201.266C177.568 201.417 177.672 201.677 177.672 202.047C177.672 202.411 177.568 202.672 177.359 202.828C177.156 202.979 176.914 203.055 176.633 203.055C176.341 203.055 176.094 202.979 175.891 202.828C175.693 202.672 175.594 202.411 175.594 202.047C175.594 201.677 175.693 201.417 175.891 201.266C176.094 201.115 176.341 201.039 176.633 201.039ZM184.68 204.188C185.654 204.188 186.411 204.44 186.953 204.945C187.5 205.445 187.773 206.25 187.773 207.359V213H185.938V207.703C185.938 207.031 185.799 206.529 185.523 206.195C185.247 205.857 184.82 205.688 184.242 205.688C183.404 205.688 182.82 205.945 182.492 206.461C182.169 206.977 182.008 207.724 182.008 208.703V213H180.172V204.352H181.602L181.859 205.523H181.961C182.148 205.221 182.38 204.974 182.656 204.781C182.938 204.583 183.25 204.435 183.594 204.336C183.943 204.237 184.305 204.188 184.68 204.188ZM192.812 216.844C191.641 216.844 190.742 216.633 190.117 216.211C189.492 215.789 189.18 215.198 189.18 214.438C189.18 213.906 189.346 213.456 189.68 213.086C190.013 212.721 190.49 212.469 191.109 212.328C190.875 212.224 190.672 212.062 190.5 211.844C190.333 211.62 190.25 211.372 190.25 211.102C190.25 210.779 190.341 210.503 190.523 210.273C190.706 210.044 190.979 209.823 191.344 209.609C190.891 209.417 190.526 209.104 190.25 208.672C189.979 208.234 189.844 207.721 189.844 207.133C189.844 206.508 189.977 205.977 190.242 205.539C190.508 205.096 190.896 204.76 191.406 204.531C191.917 204.297 192.534 204.18 193.258 204.18C193.414 204.18 193.583 204.19 193.766 204.211C193.953 204.227 194.125 204.247 194.281 204.273C194.443 204.294 194.565 204.318 194.648 204.344H197.641V205.367L196.172 205.641C196.312 205.839 196.424 206.065 196.508 206.32C196.591 206.57 196.633 206.844 196.633 207.141C196.633 208.036 196.323 208.742 195.703 209.258C195.089 209.768 194.24 210.023 193.156 210.023C192.896 210.013 192.643 209.992 192.398 209.961C192.211 210.076 192.068 210.203 191.969 210.344C191.87 210.479 191.82 210.633 191.82 210.805C191.82 210.945 191.87 211.06 191.969 211.148C192.068 211.232 192.214 211.294 192.406 211.336C192.604 211.378 192.844 211.398 193.125 211.398H194.617C195.565 211.398 196.289 211.599 196.789 212C197.289 212.401 197.539 212.99 197.539 213.766C197.539 214.75 197.133 215.508 196.32 216.039C195.508 216.576 194.339 216.844 192.812 216.844ZM192.883 215.555C193.523 215.555 194.062 215.492 194.5 215.367C194.938 215.242 195.268 215.062 195.492 214.828C195.716 214.599 195.828 214.326 195.828 214.008C195.828 213.727 195.758 213.51 195.617 213.359C195.477 213.208 195.266 213.104 194.984 213.047C194.703 212.99 194.354 212.961 193.938 212.961H192.578C192.24 212.961 191.94 213.013 191.68 213.117C191.419 213.227 191.216 213.383 191.07 213.586C190.93 213.789 190.859 214.034 190.859 214.32C190.859 214.716 191.034 215.021 191.383 215.234C191.737 215.448 192.237 215.555 192.883 215.555ZM193.242 208.82C193.779 208.82 194.177 208.674 194.438 208.383C194.698 208.086 194.828 207.669 194.828 207.133C194.828 206.549 194.693 206.112 194.422 205.82C194.156 205.529 193.76 205.383 193.234 205.383C192.719 205.383 192.326 205.531 192.055 205.828C191.789 206.125 191.656 206.565 191.656 207.148C191.656 207.674 191.789 208.086 192.055 208.383C192.326 208.674 192.721 208.82 193.242 208.82ZM206.82 204.188C207.591 204.188 208.253 204.346 208.805 204.664C209.357 204.982 209.781 205.432 210.078 206.016C210.375 206.599 210.523 207.297 210.523 208.109V209.094H204.75C204.771 209.932 204.995 210.578 205.422 211.031C205.854 211.484 206.458 211.711 207.234 211.711C207.786 211.711 208.281 211.659 208.719 211.555C209.161 211.445 209.617 211.286 210.086 211.078V212.57C209.654 212.773 209.214 212.922 208.766 213.016C208.318 213.109 207.781 213.156 207.156 213.156C206.307 213.156 205.56 212.992 204.914 212.664C204.273 212.331 203.771 211.836 203.406 211.18C203.047 210.523 202.867 209.708 202.867 208.734C202.867 207.766 203.031 206.943 203.359 206.266C203.688 205.589 204.148 205.073 204.742 204.719C205.336 204.365 206.029 204.188 206.82 204.188ZM206.82 205.57C206.242 205.57 205.773 205.758 205.414 206.133C205.06 206.508 204.852 207.057 204.789 207.781H208.727C208.721 207.349 208.648 206.966 208.508 206.633C208.372 206.299 208.164 206.039 207.883 205.852C207.607 205.664 207.253 205.57 206.82 205.57ZM214.508 208.578L211.617 204.352H213.711L215.688 207.391L217.672 204.352H219.758L216.852 208.578L219.906 213H217.805L215.688 209.758L213.562 213H211.477L214.508 208.578ZM225.844 204.188C226.87 204.188 227.693 204.562 228.312 205.312C228.938 206.062 229.25 207.177 229.25 208.656C229.25 209.635 229.104 210.461 228.812 211.133C228.526 211.799 228.122 212.305 227.602 212.648C227.086 212.987 226.484 213.156 225.797 213.156C225.359 213.156 224.979 213.099 224.656 212.984C224.333 212.87 224.057 212.721 223.828 212.539C223.599 212.352 223.406 212.148 223.25 211.93H223.141C223.167 212.138 223.19 212.37 223.211 212.625C223.237 212.875 223.25 213.104 223.25 213.312V216.836H221.406V204.352H222.906L223.164 205.547H223.25C223.411 205.302 223.607 205.076 223.836 204.867C224.07 204.659 224.352 204.495 224.68 204.375C225.013 204.25 225.401 204.188 225.844 204.188ZM225.352 205.688C224.846 205.688 224.44 205.789 224.133 205.992C223.831 206.19 223.609 206.49 223.469 206.891C223.333 207.292 223.26 207.794 223.25 208.398V208.656C223.25 209.297 223.315 209.841 223.445 210.289C223.581 210.732 223.802 211.07 224.109 211.305C224.422 211.534 224.844 211.648 225.375 211.648C225.823 211.648 226.193 211.526 226.484 211.281C226.781 211.036 227.003 210.688 227.148 210.234C227.294 209.781 227.367 209.247 227.367 208.633C227.367 207.701 227.201 206.977 226.867 206.461C226.539 205.945 226.034 205.688 225.352 205.688ZM234.82 204.188C235.591 204.188 236.253 204.346 236.805 204.664C237.357 204.982 237.781 205.432 238.078 206.016C238.375 206.599 238.523 207.297 238.523 208.109V209.094H232.75C232.771 209.932 232.995 210.578 233.422 211.031C233.854 211.484 234.458 211.711 235.234 211.711C235.786 211.711 236.281 211.659 236.719 211.555C237.161 211.445 237.617 211.286 238.086 211.078V212.57C237.654 212.773 237.214 212.922 236.766 213.016C236.318 213.109 235.781 213.156 235.156 213.156C234.307 213.156 233.56 212.992 232.914 212.664C232.273 212.331 231.771 211.836 231.406 211.18C231.047 210.523 230.867 209.708 230.867 208.734C230.867 207.766 231.031 206.943 231.359 206.266C231.688 205.589 232.148 205.073 232.742 204.719C233.336 204.365 234.029 204.188 234.82 204.188ZM234.82 205.57C234.242 205.57 233.773 205.758 233.414 206.133C233.06 206.508 232.852 207.057 232.789 207.781H236.727C236.721 207.349 236.648 206.966 236.508 206.633C236.372 206.299 236.164 206.039 235.883 205.852C235.607 205.664 235.253 205.57 234.82 205.57ZM244.977 204.188C245.122 204.188 245.281 204.195 245.453 204.211C245.625 204.227 245.773 204.247 245.898 204.273L245.727 205.992C245.617 205.961 245.482 205.938 245.32 205.922C245.164 205.906 245.023 205.898 244.898 205.898C244.57 205.898 244.258 205.953 243.961 206.062C243.664 206.167 243.401 206.328 243.172 206.547C242.943 206.76 242.763 207.029 242.633 207.352C242.503 207.674 242.438 208.049 242.438 208.477V213H240.594V204.352H242.031L242.281 205.875H242.367C242.539 205.568 242.753 205.286 243.008 205.031C243.263 204.776 243.555 204.573 243.883 204.422C244.216 204.266 244.581 204.188 244.977 204.188ZM249.336 204.352V213H247.5V204.352H249.336ZM248.43 201.039C248.711 201.039 248.953 201.115 249.156 201.266C249.365 201.417 249.469 201.677 249.469 202.047C249.469 202.411 249.365 202.672 249.156 202.828C248.953 202.979 248.711 203.055 248.43 203.055C248.138 203.055 247.891 202.979 247.688 202.828C247.49 202.672 247.391 202.411 247.391 202.047C247.391 201.677 247.49 201.417 247.688 201.266C247.891 201.115 248.138 201.039 248.43 201.039ZM255.414 204.188C256.185 204.188 256.846 204.346 257.398 204.664C257.951 204.982 258.375 205.432 258.672 206.016C258.969 206.599 259.117 207.297 259.117 208.109V209.094H253.344C253.365 209.932 253.589 210.578 254.016 211.031C254.448 211.484 255.052 211.711 255.828 211.711C256.38 211.711 256.875 211.659 257.312 211.555C257.755 211.445 258.211 211.286 258.68 211.078V212.57C258.247 212.773 257.807 212.922 257.359 213.016C256.911 213.109 256.375 213.156 255.75 213.156C254.901 213.156 254.154 212.992 253.508 212.664C252.867 212.331 252.365 211.836 252 211.18C251.641 210.523 251.461 209.708 251.461 208.734C251.461 207.766 251.625 206.943 251.953 206.266C252.281 205.589 252.742 205.073 253.336 204.719C253.93 204.365 254.622 204.188 255.414 204.188ZM255.414 205.57C254.836 205.57 254.367 205.758 254.008 206.133C253.654 206.508 253.445 207.057 253.383 207.781H257.32C257.315 207.349 257.242 206.966 257.102 206.633C256.966 206.299 256.758 206.039 256.477 205.852C256.201 205.664 255.846 205.57 255.414 205.57ZM265.695 204.188C266.669 204.188 267.427 204.44 267.969 204.945C268.516 205.445 268.789 206.25 268.789 207.359V213H266.953V207.703C266.953 207.031 266.815 206.529 266.539 206.195C266.263 205.857 265.836 205.688 265.258 205.688C264.419 205.688 263.836 205.945 263.508 206.461C263.185 206.977 263.023 207.724 263.023 208.703V213H261.188V204.352H262.617L262.875 205.523H262.977C263.164 205.221 263.396 204.974 263.672 204.781C263.953 204.583 264.266 204.435 264.609 204.336C264.958 204.237 265.32 204.188 265.695 204.188ZM274.844 213.156C274.026 213.156 273.318 212.997 272.719 212.68C272.12 212.362 271.659 211.875 271.336 211.219C271.013 210.562 270.852 209.729 270.852 208.719C270.852 207.667 271.029 206.807 271.383 206.141C271.737 205.474 272.227 204.982 272.852 204.664C273.482 204.346 274.203 204.188 275.016 204.188C275.531 204.188 275.997 204.24 276.414 204.344C276.836 204.443 277.193 204.565 277.484 204.711L276.938 206.18C276.62 206.049 276.294 205.94 275.961 205.852C275.628 205.763 275.307 205.719 275 205.719C274.495 205.719 274.073 205.831 273.734 206.055C273.401 206.279 273.151 206.612 272.984 207.055C272.823 207.497 272.742 208.047 272.742 208.703C272.742 209.339 272.826 209.875 272.992 210.312C273.159 210.745 273.406 211.073 273.734 211.297C274.062 211.516 274.466 211.625 274.945 211.625C275.419 211.625 275.844 211.568 276.219 211.453C276.594 211.339 276.948 211.19 277.281 211.008V212.602C276.953 212.789 276.602 212.927 276.227 213.016C275.852 213.109 275.391 213.156 274.844 213.156ZM282.758 204.188C283.529 204.188 284.19 204.346 284.742 204.664C285.294 204.982 285.719 205.432 286.016 206.016C286.312 206.599 286.461 207.297 286.461 208.109V209.094H280.688C280.708 209.932 280.932 210.578 281.359 211.031C281.792 211.484 282.396 211.711 283.172 211.711C283.724 211.711 284.219 211.659 284.656 211.555C285.099 211.445 285.555 211.286 286.023 211.078V212.57C285.591 212.773 285.151 212.922 284.703 213.016C284.255 213.109 283.719 213.156 283.094 213.156C282.245 213.156 281.497 212.992 280.852 212.664C280.211 212.331 279.708 211.836 279.344 211.18C278.984 210.523 278.805 209.708 278.805 208.734C278.805 207.766 278.969 206.943 279.297 206.266C279.625 205.589 280.086 205.073 280.68 204.719C281.273 204.365 281.966 204.188 282.758 204.188ZM282.758 205.57C282.18 205.57 281.711 205.758 281.352 206.133C280.997 206.508 280.789 207.057 280.727 207.781H284.664C284.659 207.349 284.586 206.966 284.445 206.633C284.31 206.299 284.102 206.039 283.82 205.852C283.544 205.664 283.19 205.57 282.758 205.57ZM299.758 212.992L298.664 208.969C298.612 208.771 298.549 208.531 298.477 208.25C298.404 207.969 298.331 207.68 298.258 207.383C298.185 207.081 298.117 206.802 298.055 206.547C297.997 206.292 297.953 206.094 297.922 205.953H297.859C297.833 206.094 297.792 206.292 297.734 206.547C297.677 206.802 297.612 207.081 297.539 207.383C297.466 207.685 297.393 207.979 297.32 208.266C297.253 208.552 297.19 208.797 297.133 209L295.984 212.992H293.969L291.547 204.344H293.406L294.531 208.641C294.604 208.932 294.674 209.247 294.742 209.586C294.815 209.924 294.878 210.247 294.93 210.555C294.982 210.862 295.021 211.115 295.047 211.312H295.109C295.13 211.172 295.159 210.995 295.195 210.781C295.232 210.562 295.273 210.336 295.32 210.102C295.367 209.862 295.414 209.638 295.461 209.43C295.508 209.216 295.552 209.044 295.594 208.914L296.922 204.344H298.93L300.203 208.914C300.26 209.112 300.323 209.362 300.391 209.664C300.458 209.961 300.518 210.26 300.57 210.562C300.628 210.859 300.664 211.107 300.68 211.305H300.742C300.763 211.128 300.799 210.888 300.852 210.586C300.909 210.279 300.974 209.953 301.047 209.609C301.12 209.26 301.195 208.938 301.273 208.641L302.422 204.344H304.25L301.812 212.992H299.758ZM307.57 204.352V213H305.734V204.352H307.57ZM306.664 201.039C306.945 201.039 307.188 201.115 307.391 201.266C307.599 201.417 307.703 201.677 307.703 202.047C307.703 202.411 307.599 202.672 307.391 202.828C307.188 202.979 306.945 203.055 306.664 203.055C306.372 203.055 306.125 202.979 305.922 202.828C305.724 202.672 305.625 202.411 305.625 202.047C305.625 201.677 305.724 201.417 305.922 201.266C306.125 201.115 306.372 201.039 306.664 201.039ZM313.422 211.672C313.661 211.672 313.898 211.651 314.133 211.609C314.367 211.562 314.581 211.508 314.773 211.445V212.836C314.57 212.924 314.307 213 313.984 213.062C313.661 213.125 313.326 213.156 312.977 213.156C312.487 213.156 312.047 213.076 311.656 212.914C311.266 212.747 310.956 212.464 310.727 212.062C310.497 211.661 310.383 211.107 310.383 210.398V205.75H309.203V204.93L310.469 204.281L311.07 202.43H312.227V204.352H314.703V205.75H312.227V210.375C312.227 210.812 312.336 211.138 312.555 211.352C312.773 211.565 313.062 211.672 313.422 211.672ZM318.367 200.844V203.898C318.367 204.216 318.357 204.526 318.336 204.828C318.32 205.13 318.302 205.365 318.281 205.531H318.383C318.565 205.229 318.789 204.982 319.055 204.789C319.32 204.591 319.617 204.443 319.945 204.344C320.279 204.245 320.633 204.195 321.008 204.195C321.669 204.195 322.232 204.307 322.695 204.531C323.159 204.75 323.513 205.091 323.758 205.555C324.008 206.018 324.133 206.62 324.133 207.359V213H322.297V207.703C322.297 207.031 322.159 206.529 321.883 206.195C321.607 205.857 321.18 205.688 320.602 205.688C320.044 205.688 319.602 205.805 319.273 206.039C318.951 206.268 318.719 206.609 318.578 207.062C318.438 207.51 318.367 208.057 318.367 208.703V213H316.531V200.844H318.367Z" fill="#1F2024"/>
<path d="M374.938 212.031C374.938 211.604 375.047 211.305 375.266 211.133C375.49 210.956 375.76 210.867 376.078 210.867C376.396 210.867 376.667 210.956 376.891 211.133C377.12 211.305 377.234 211.604 377.234 212.031C377.234 212.448 377.12 212.75 376.891 212.938C376.667 213.12 376.396 213.211 376.078 213.211C375.76 213.211 375.49 213.12 375.266 212.938C375.047 212.75 374.938 212.448 374.938 212.031Z" fill="#C5265C"/>
<defs>
<filter id="filter0_d_920_5204" x="35" y="15" width="657" height="292" filterUnits="userSpaceOnUse" color-interpolation-filters="sRGB">
<feFlood flood-opacity="0" result="BackgroundImageFix"/>
<feColorMatrix in="SourceAlpha" type="matrix" values="0 0 0 0 0 0 0 0 0 0 0 0 0 0 0 0 0 0 127 0" result="hardAlpha"/>
<feOffset dy="4"/>
<feGaussianBlur stdDeviation="10"/>
<feComposite in2="hardAlpha" operator="out"/>
<feColorMatrix type="matrix" values="0 0 0 0 0.770833 0 0 0 0 0.150955 0 0 0 0 0.360914 0 0 0 0.51 0"/>
<feBlend mode="normal" in2="BackgroundImageFix" result="effect1_dropShadow_920_5204"/>
<feBlend mode="normal" in="SourceGraphic" in2="effect1_dropShadow_920_5204" result="shape"/>
</filter>
</defs>
</svg>
