<svg width="980" height="187" viewBox="0 0 980 187" fill="none" xmlns="http://www.w3.org/2000/svg">
<rect width="980" height="187" fill="#F5F5F5"/>
<g clip-path="url(#clip0_28_392)">
<rect width="1440" height="3648" transform="translate(-397 -382)" fill="white"/>
<rect width="980" height="187" rx="25" fill="#E3E7EF"/>
<circle cx="846.5" cy="190.5" r="80" fill="#E3E7EF" stroke="white" stroke-width="5"/>
<ellipse cx="844.667" cy="175.333" rx="18.3333" ry="17.7083" fill="#ACACAC"/>
<path d="M877.667 182.417L877.667 203.667" stroke="#ACACAC" stroke-width="5" stroke-linecap="round"/>
<path fill-rule="evenodd" clip-rule="evenodd" d="M437.338 53.3383C436.167 54.5098 436.167 56.3955 436.167 60.1667V125.833C436.167 129.605 436.167 131.49 437.338 132.662C438.51 133.833 440.395 133.833 444.166 133.833H509.833C513.604 133.833 515.49 133.833 516.662 132.662C517.833 131.49 517.833 129.605 517.833 125.833V60.1667C517.833 56.3955 517.833 54.5098 516.662 53.3383C516.409 53.0854 516.123 52.8871 515.792 52.7316V113.417H512.98C511.345 113.417 510.528 113.417 509.793 113.112C509.058 112.808 508.479 112.23 507.323 111.074L507.323 111.074L496.162 99.9118C494.828 98.5784 494.162 97.9118 493.333 97.9118C492.505 97.9118 491.838 98.5784 490.505 99.9118L479.089 111.328C478.142 112.274 477.669 112.747 477.148 112.647C476.627 112.547 476.363 111.932 475.836 110.701L467.077 90.2638C466.023 87.8034 465.495 86.5732 464.453 86.3725C463.411 86.1718 462.465 87.1182 460.572 89.011L442.292 107.292V52.1737C439.734 52.2053 438.297 52.3794 437.338 53.3383Z" fill="#ACACAC"/>
<path d="M436.167 60.1666C436.167 56.3954 436.167 54.5098 437.338 53.3382C438.51 52.1666 440.395 52.1666 444.167 52.1666H509.833C513.604 52.1666 515.49 52.1666 516.662 53.3382C517.833 54.5098 517.833 56.3954 517.833 60.1666V125.833C517.833 129.605 517.833 131.49 516.662 132.662C515.49 133.833 513.604 133.833 509.833 133.833H444.166C440.395 133.833 438.51 133.833 437.338 132.662C436.167 131.49 436.167 129.605 436.167 125.833V60.1666Z" stroke="#ACACAC" stroke-width="10" stroke-linejoin="round"/>
<ellipse cx="489.25" cy="80.75" rx="8.16666" ry="8.16667" fill="#ACACAC"/>
</g>
<defs>
<clipPath id="clip0_28_392">
<rect width="1440" height="3648" fill="white" transform="translate(-397 -382)"/>
</clipPath>
</defs>
</svg>
