<svg viewBox="0 0 311 25" fill="none" xmlns="http://www.w3.org/2000/svg">
<path d="M22.5117 1.86719L18.0352 19H14.9648L12.1055 8.73438C12.0352 8.48438 11.957 8.1875 11.8711 7.84375C11.7852 7.5 11.6992 7.14844 11.6133 6.78906C11.5352 6.42969 11.4648 6.10156 11.4023 5.80469C11.3477 5.5 11.3086 5.26562 11.2852 5.10156C11.2695 5.26562 11.2344 5.49609 11.1797 5.79297C11.125 6.08984 11.0586 6.41797 10.9805 6.77734C10.9102 7.12891 10.832 7.48047 10.7461 7.83203C10.6602 8.17578 10.582 8.48047 10.5117 8.74609L7.69922 19H4.64062L0.175781 1.86719H3L5.47266 11.9102C5.55078 12.2305 5.62891 12.5781 5.70703 12.9531C5.79297 13.3203 5.87109 13.6914 5.94141 14.0664C6.01953 14.4414 6.08984 14.8086 6.15234 15.168C6.21484 15.5195 6.26562 15.8398 6.30469 16.1289C6.34375 15.832 6.39453 15.5039 6.45703 15.1445C6.51953 14.7773 6.58594 14.4062 6.65625 14.0312C6.73438 13.6484 6.8125 13.2812 6.89062 12.9297C6.97656 12.5781 7.0625 12.2617 7.14844 11.9805L9.9375 1.86719H12.6797L15.5273 12.0156C15.6133 12.3047 15.6953 12.6289 15.7734 12.9883C15.8594 13.3477 15.9414 13.7148 16.0195 14.0898C16.0977 14.4648 16.168 14.8281 16.2305 15.1797C16.293 15.5312 16.3438 15.8477 16.3828 16.1289C16.4375 15.7461 16.5078 15.3086 16.5938 14.8164C16.6797 14.3242 16.7773 13.8242 16.8867 13.3164C16.9961 12.8086 17.1055 12.3398 17.2148 11.9102L19.6758 1.86719H22.5117ZM29.8242 5.78125C30.9805 5.78125 31.9727 6.01953 32.8008 6.49609C33.6289 6.97266 34.2656 7.64844 34.7109 8.52344C35.1562 9.39844 35.3789 10.4453 35.3789 11.6641V13.1406H26.7188C26.75 14.3984 27.0859 15.3672 27.7266 16.0469C28.375 16.7266 29.2812 17.0664 30.4453 17.0664C31.2734 17.0664 32.0156 16.9883 32.6719 16.832C33.3359 16.668 34.0195 16.4297 34.7227 16.1172V18.3555C34.0742 18.6602 33.4141 18.8828 32.7422 19.0234C32.0703 19.1641 31.2656 19.2344 30.3281 19.2344C29.0547 19.2344 27.9336 18.9883 26.9648 18.4961C26.0039 17.9961 25.25 17.2539 24.7031 16.2695C24.1641 15.2852 23.8945 14.0625 23.8945 12.6016C23.8945 11.1484 24.1406 9.91406 24.6328 8.89844C25.125 7.88281 25.8164 7.10938 26.707 6.57812C27.5977 6.04688 28.6367 5.78125 29.8242 5.78125ZM29.8242 7.85547C28.957 7.85547 28.2539 8.13672 27.7148 8.69922C27.1836 9.26172 26.8711 10.0859 26.7773 11.1719H32.6836C32.6758 10.5234 32.5664 9.94922 32.3555 9.44922C32.1523 8.94922 31.8398 8.55859 31.418 8.27734C31.0039 7.99609 30.4727 7.85547 29.8242 7.85547ZM49.8047 5.78125C51.4453 5.78125 52.6836 6.14453 53.5195 6.87109C54.3633 7.59766 54.7852 8.73047 54.7852 10.2695V19H52.8281L52.3008 17.1602H52.207C51.8398 17.6289 51.4609 18.0156 51.0703 18.3203C50.6797 18.625 50.2266 18.8516 49.7109 19C49.2031 19.1562 48.582 19.2344 47.8477 19.2344C47.0742 19.2344 46.3828 19.0938 45.7734 18.8125C45.1641 18.5234 44.6836 18.0859 44.332 17.5C43.9805 16.9141 43.8047 16.1719 43.8047 15.2734C43.8047 13.9375 44.3008 12.9336 45.293 12.2617C46.293 11.5898 47.8008 11.2188 49.8164 11.1484L52.0664 11.0664V10.3867C52.0664 9.48828 51.8555 8.84766 51.4336 8.46484C51.0195 8.08203 50.4336 7.89062 49.6758 7.89062C49.0273 7.89062 48.3984 7.98438 47.7891 8.17188C47.1797 8.35938 46.5859 8.58984 46.0078 8.86328L45.1172 6.91797C45.75 6.58203 46.4688 6.30859 47.2734 6.09766C48.0859 5.88672 48.9297 5.78125 49.8047 5.78125ZM52.0547 12.8008L50.3789 12.8594C49.0039 12.9062 48.0391 13.1406 47.4844 13.5625C46.9297 13.9844 46.6523 14.5625 46.6523 15.2969C46.6523 15.9375 46.8438 16.4062 47.2266 16.7031C47.6094 16.9922 48.1133 17.1367 48.7383 17.1367C49.6914 17.1367 50.4805 16.8672 51.1055 16.3281C51.7383 15.7812 52.0547 14.9805 52.0547 13.9258V12.8008ZM65.2148 5.78125C65.4336 5.78125 65.6719 5.79297 65.9297 5.81641C66.1875 5.83984 66.4102 5.87109 66.5977 5.91016L66.3398 8.48828C66.1758 8.44141 65.9727 8.40625 65.7305 8.38281C65.4961 8.35938 65.2852 8.34766 65.0977 8.34766C64.6055 8.34766 64.1367 8.42969 63.6914 8.59375C63.2461 8.75 62.8516 8.99219 62.5078 9.32031C62.1641 9.64062 61.8945 10.043 61.6992 10.5273C61.5039 11.0117 61.4062 11.5742 61.4062 12.2148V19H58.6406V6.02734H60.7969L61.1719 8.3125H61.3008C61.5586 7.85156 61.8789 7.42969 62.2617 7.04688C62.6445 6.66406 63.082 6.35938 63.5742 6.13281C64.0742 5.89844 64.6211 5.78125 65.2148 5.78125ZM74.168 5.78125C75.3242 5.78125 76.3164 6.01953 77.1445 6.49609C77.9727 6.97266 78.6094 7.64844 79.0547 8.52344C79.5 9.39844 79.7227 10.4453 79.7227 11.6641V13.1406H71.0625C71.0938 14.3984 71.4297 15.3672 72.0703 16.0469C72.7188 16.7266 73.625 17.0664 74.7891 17.0664C75.6172 17.0664 76.3594 16.9883 77.0156 16.832C77.6797 16.668 78.3633 16.4297 79.0664 16.1172V18.3555C78.418 18.6602 77.7578 18.8828 77.0859 19.0234C76.4141 19.1641 75.6094 19.2344 74.6719 19.2344C73.3984 19.2344 72.2773 18.9883 71.3086 18.4961C70.3477 17.9961 69.5938 17.2539 69.0469 16.2695C68.5078 15.2852 68.2383 14.0625 68.2383 12.6016C68.2383 11.1484 68.4844 9.91406 68.9766 8.89844C69.4688 7.88281 70.1602 7.10938 71.0508 6.57812C71.9414 6.04688 72.9805 5.78125 74.168 5.78125ZM74.168 7.85547C73.3008 7.85547 72.5977 8.13672 72.0586 8.69922C71.5273 9.26172 71.2148 10.0859 71.1211 11.1719H77.0273C77.0195 10.5234 76.9102 9.94922 76.6992 9.44922C76.4961 8.94922 76.1836 8.55859 75.7617 8.27734C75.3477 7.99609 74.8164 7.85547 74.168 7.85547ZM97.7812 15.2969C97.7812 16.1484 97.5742 16.8672 97.1602 17.4531C96.7461 18.0391 96.1406 18.4844 95.3438 18.7891C94.5547 19.0859 93.5859 19.2344 92.4375 19.2344C91.5312 19.2344 90.75 19.168 90.0938 19.0352C89.4453 18.9102 88.832 18.7148 88.2539 18.4492V16.0703C88.8711 16.3594 89.5625 16.6094 90.3281 16.8203C91.1016 17.0312 91.832 17.1367 92.5195 17.1367C93.4258 17.1367 94.0781 16.9961 94.4766 16.7148C94.875 16.4258 95.0742 16.043 95.0742 15.5664C95.0742 15.2852 94.9922 15.0352 94.8281 14.8164C94.6719 14.5898 94.375 14.3594 93.9375 14.125C93.5078 13.8828 92.875 13.5938 92.0391 13.2578C91.2188 12.9297 90.5273 12.6016 89.9648 12.2734C89.4023 11.9453 88.9766 11.5508 88.6875 11.0898C88.3984 10.6211 88.2539 10.0234 88.2539 9.29688C88.2539 8.14844 88.707 7.27734 89.6133 6.68359C90.5273 6.08203 91.7344 5.78125 93.2344 5.78125C94.0312 5.78125 94.7812 5.86328 95.4844 6.02734C96.1953 6.18359 96.8906 6.41406 97.5703 6.71875L96.7031 8.79297C96.1172 8.53516 95.5273 8.32422 94.9336 8.16016C94.3477 7.98828 93.75 7.90234 93.1406 7.90234C92.4297 7.90234 91.8867 8.01172 91.5117 8.23047C91.1445 8.44922 90.9609 8.76172 90.9609 9.16797C90.9609 9.47266 91.0508 9.73047 91.2305 9.94141C91.4102 10.1523 91.7188 10.3633 92.1562 10.5742C92.6016 10.7852 93.2188 11.0469 94.0078 11.3594C94.7812 11.6562 95.4492 11.9688 96.0117 12.2969C96.582 12.6172 97.0195 13.0117 97.3242 13.4805C97.6289 13.9492 97.7812 14.5547 97.7812 15.2969ZM112.242 12.4844C112.242 13.5625 112.102 14.5195 111.82 15.3555C111.539 16.1914 111.129 16.8984 110.59 17.4766C110.051 18.0469 109.402 18.4844 108.645 18.7891C107.887 19.0859 107.031 19.2344 106.078 19.2344C105.188 19.2344 104.371 19.0859 103.629 18.7891C102.887 18.4844 102.242 18.0469 101.695 17.4766C101.156 16.8984 100.738 16.1914 100.441 15.3555C100.145 14.5195 99.9961 13.5625 99.9961 12.4844C99.9961 11.0547 100.242 9.84375 100.734 8.85156C101.234 7.85156 101.945 7.08984 102.867 6.56641C103.789 6.04297 104.887 5.78125 106.16 5.78125C107.355 5.78125 108.41 6.04297 109.324 6.56641C110.238 7.08984 110.953 7.85156 111.469 8.85156C111.984 9.85156 112.242 11.0625 112.242 12.4844ZM102.832 12.4844C102.832 13.4297 102.945 14.2383 103.172 14.9102C103.406 15.582 103.766 16.0977 104.25 16.457C104.734 16.8086 105.359 16.9844 106.125 16.9844C106.891 16.9844 107.516 16.8086 108 16.457C108.484 16.0977 108.84 15.582 109.066 14.9102C109.293 14.2383 109.406 13.4297 109.406 12.4844C109.406 11.5391 109.293 10.7383 109.066 10.082C108.84 9.41797 108.484 8.91406 108 8.57031C107.516 8.21875 106.887 8.04297 106.113 8.04297C104.973 8.04297 104.141 8.42578 103.617 9.19141C103.094 9.95703 102.832 11.0547 102.832 12.4844ZM125.344 24.7656C123.586 24.7656 122.238 24.4492 121.301 23.8164C120.363 23.1836 119.895 22.2969 119.895 21.1562C119.895 20.3594 120.145 19.6836 120.645 19.1289C121.145 18.582 121.859 18.2031 122.789 17.9922C122.438 17.8359 122.133 17.5938 121.875 17.2656C121.625 16.9297 121.5 16.5586 121.5 16.1523C121.5 15.668 121.637 15.2539 121.91 14.9102C122.184 14.5664 122.594 14.2344 123.141 13.9141C122.461 13.625 121.914 13.1562 121.5 12.5078C121.094 11.8516 120.891 11.082 120.891 10.1992C120.891 9.26172 121.09 8.46484 121.488 7.80859C121.887 7.14453 122.469 6.64062 123.234 6.29688C124 5.94531 124.926 5.76953 126.012 5.76953C126.246 5.76953 126.5 5.78516 126.773 5.81641C127.055 5.83984 127.312 5.87109 127.547 5.91016C127.789 5.94141 127.973 5.97656 128.098 6.01562H132.586V7.55078L130.383 7.96094C130.594 8.25781 130.762 8.59766 130.887 8.98047C131.012 9.35547 131.074 9.76562 131.074 10.2109C131.074 11.5547 130.609 12.6133 129.68 13.3867C128.758 14.1523 127.484 14.5352 125.859 14.5352C125.469 14.5195 125.09 14.4883 124.723 14.4414C124.441 14.6133 124.227 14.8047 124.078 15.0156C123.93 15.2188 123.855 15.4492 123.855 15.707C123.855 15.918 123.93 16.0898 124.078 16.2227C124.227 16.3477 124.445 16.4414 124.734 16.5039C125.031 16.5664 125.391 16.5977 125.812 16.5977H128.051C129.473 16.5977 130.559 16.8984 131.309 17.5C132.059 18.1016 132.434 18.9844 132.434 20.1484C132.434 21.625 131.824 22.7617 130.605 23.5586C129.387 24.3633 127.633 24.7656 125.344 24.7656ZM125.449 22.832C126.41 22.832 127.219 22.7383 127.875 22.5508C128.531 22.3633 129.027 22.0938 129.363 21.7422C129.699 21.3984 129.867 20.9883 129.867 20.5117C129.867 20.0898 129.762 19.7656 129.551 19.5391C129.34 19.3125 129.023 19.1562 128.602 19.0703C128.18 18.9844 127.656 18.9414 127.031 18.9414H124.992C124.484 18.9414 124.035 19.0195 123.645 19.1758C123.254 19.3398 122.949 19.5742 122.73 19.8789C122.52 20.1836 122.414 20.5508 122.414 20.9805C122.414 21.5742 122.676 22.0312 123.199 22.3516C123.73 22.6719 124.48 22.832 125.449 22.832ZM125.988 12.7305C126.793 12.7305 127.391 12.5117 127.781 12.0742C128.172 11.6289 128.367 11.0039 128.367 10.1992C128.367 9.32422 128.164 8.66797 127.758 8.23047C127.359 7.79297 126.766 7.57422 125.977 7.57422C125.203 7.57422 124.613 7.79688 124.207 8.24219C123.809 8.6875 123.609 9.34766 123.609 10.2227C123.609 11.0117 123.809 11.6289 124.207 12.0742C124.613 12.5117 125.207 12.7305 125.988 12.7305ZM137.719 19H134.953V0.765625H137.719V19ZM146.742 5.78125C148.383 5.78125 149.621 6.14453 150.457 6.87109C151.301 7.59766 151.723 8.73047 151.723 10.2695V19H149.766L149.238 17.1602H149.145C148.777 17.6289 148.398 18.0156 148.008 18.3203C147.617 18.625 147.164 18.8516 146.648 19C146.141 19.1562 145.52 19.2344 144.785 19.2344C144.012 19.2344 143.32 19.0938 142.711 18.8125C142.102 18.5234 141.621 18.0859 141.27 17.5C140.918 16.9141 140.742 16.1719 140.742 15.2734C140.742 13.9375 141.238 12.9336 142.23 12.2617C143.23 11.5898 144.738 11.2188 146.754 11.1484L149.004 11.0664V10.3867C149.004 9.48828 148.793 8.84766 148.371 8.46484C147.957 8.08203 147.371 7.89062 146.613 7.89062C145.965 7.89062 145.336 7.98438 144.727 8.17188C144.117 8.35938 143.523 8.58984 142.945 8.86328L142.055 6.91797C142.688 6.58203 143.406 6.30859 144.211 6.09766C145.023 5.88672 145.867 5.78125 146.742 5.78125ZM148.992 12.8008L147.316 12.8594C145.941 12.9062 144.977 13.1406 144.422 13.5625C143.867 13.9844 143.59 14.5625 143.59 15.2969C143.59 15.9375 143.781 16.4062 144.164 16.7031C144.547 16.9922 145.051 17.1367 145.676 17.1367C146.629 17.1367 147.418 16.8672 148.043 16.3281C148.676 15.7812 148.992 14.9805 148.992 13.9258V12.8008ZM159.938 19.2344C158.391 19.2344 157.148 18.6719 156.211 17.5469C155.281 16.4141 154.816 14.7461 154.816 12.543C154.816 10.3164 155.289 8.63281 156.234 7.49219C157.188 6.35156 158.441 5.78125 159.996 5.78125C160.652 5.78125 161.227 5.87109 161.719 6.05078C162.211 6.22266 162.633 6.45703 162.984 6.75391C163.344 7.05078 163.648 7.38281 163.898 7.75H164.027C163.988 7.50781 163.941 7.16016 163.887 6.70703C163.84 6.24609 163.816 5.82031 163.816 5.42969V0.765625H166.582V19H164.426L163.934 17.2305H163.816C163.582 17.6055 163.285 17.9453 162.926 18.25C162.574 18.5469 162.152 18.7852 161.66 18.9648C161.176 19.1445 160.602 19.2344 159.938 19.2344ZM160.711 16.9961C161.891 16.9961 162.723 16.6562 163.207 15.9766C163.691 15.2969 163.941 14.2773 163.957 12.918V12.5547C163.957 11.1016 163.723 9.98828 163.254 9.21484C162.785 8.43359 161.93 8.04297 160.688 8.04297C159.695 8.04297 158.938 8.44531 158.414 9.25C157.898 10.0469 157.641 11.1602 157.641 12.5898C157.641 14.0195 157.898 15.1133 158.414 15.8711C158.938 16.6211 159.703 16.9961 160.711 16.9961ZM174.809 6.02734H177.809L180.469 13.4336C180.586 13.7695 180.691 14.1016 180.785 14.4297C180.887 14.75 180.973 15.0664 181.043 15.3789C181.121 15.6914 181.184 16.0039 181.23 16.3164H181.301C181.379 15.9102 181.488 15.457 181.629 14.957C181.777 14.4492 181.941 13.9414 182.121 13.4336L184.676 6.02734H187.641L182.074 20.7812C181.754 21.625 181.359 22.3438 180.891 22.9375C180.43 23.5391 179.883 23.9922 179.25 24.2969C178.617 24.6094 177.895 24.7656 177.082 24.7656C176.691 24.7656 176.352 24.7422 176.062 24.6953C175.773 24.6562 175.527 24.6133 175.324 24.5664V22.3633C175.488 22.4023 175.695 22.4375 175.945 22.4688C176.195 22.5 176.453 22.5156 176.719 22.5156C177.211 22.5156 177.637 22.418 177.996 22.2227C178.355 22.0273 178.66 21.75 178.91 21.3906C179.16 21.0391 179.367 20.6367 179.531 20.1836L179.988 18.9648L174.809 6.02734ZM201.094 12.4844C201.094 13.5625 200.953 14.5195 200.672 15.3555C200.391 16.1914 199.98 16.8984 199.441 17.4766C198.902 18.0469 198.254 18.4844 197.496 18.7891C196.738 19.0859 195.883 19.2344 194.93 19.2344C194.039 19.2344 193.223 19.0859 192.48 18.7891C191.738 18.4844 191.094 18.0469 190.547 17.4766C190.008 16.8984 189.59 16.1914 189.293 15.3555C188.996 14.5195 188.848 13.5625 188.848 12.4844C188.848 11.0547 189.094 9.84375 189.586 8.85156C190.086 7.85156 190.797 7.08984 191.719 6.56641C192.641 6.04297 193.738 5.78125 195.012 5.78125C196.207 5.78125 197.262 6.04297 198.176 6.56641C199.09 7.08984 199.805 7.85156 200.32 8.85156C200.836 9.85156 201.094 11.0625 201.094 12.4844ZM191.684 12.4844C191.684 13.4297 191.797 14.2383 192.023 14.9102C192.258 15.582 192.617 16.0977 193.102 16.457C193.586 16.8086 194.211 16.9844 194.977 16.9844C195.742 16.9844 196.367 16.8086 196.852 16.457C197.336 16.0977 197.691 15.582 197.918 14.9102C198.145 14.2383 198.258 13.4297 198.258 12.4844C198.258 11.5391 198.145 10.7383 197.918 10.082C197.691 9.41797 197.336 8.91406 196.852 8.57031C196.367 8.21875 195.738 8.04297 194.965 8.04297C193.824 8.04297 192.992 8.42578 192.469 9.19141C191.945 9.95703 191.684 11.0547 191.684 12.4844ZM215.566 6.02734V19H213.398L213.023 17.2539H212.871C212.598 17.6992 212.25 18.0703 211.828 18.3672C211.406 18.6562 210.938 18.8711 210.422 19.0117C209.906 19.1602 209.363 19.2344 208.793 19.2344C207.816 19.2344 206.98 19.0703 206.285 18.7422C205.598 18.4062 205.07 17.8906 204.703 17.1953C204.336 16.5 204.152 15.6016 204.152 14.5V6.02734H206.918V13.9844C206.918 14.9922 207.121 15.7461 207.527 16.2461C207.941 16.7461 208.582 16.9961 209.449 16.9961C210.285 16.9961 210.949 16.8242 211.441 16.4805C211.934 16.1367 212.281 15.6289 212.484 14.957C212.695 14.2852 212.801 13.4609 212.801 12.4844V6.02734H215.566ZM221.719 1.86719L221.895 2.125C221.754 2.69531 221.57 3.30469 221.344 3.95312C221.125 4.60156 220.887 5.25 220.629 5.89844C220.371 6.54688 220.109 7.16016 219.844 7.73828H217.852C217.961 7.27734 218.074 6.79297 218.191 6.28516C218.309 5.76953 218.422 5.25391 218.531 4.73828C218.641 4.21484 218.738 3.71094 218.824 3.22656C218.91 2.73438 218.984 2.28125 219.047 1.86719H221.719ZM230.73 5.78125C230.949 5.78125 231.188 5.79297 231.445 5.81641C231.703 5.83984 231.926 5.87109 232.113 5.91016L231.855 8.48828C231.691 8.44141 231.488 8.40625 231.246 8.38281C231.012 8.35938 230.801 8.34766 230.613 8.34766C230.121 8.34766 229.652 8.42969 229.207 8.59375C228.762 8.75 228.367 8.99219 228.023 9.32031C227.68 9.64062 227.41 10.043 227.215 10.5273C227.02 11.0117 226.922 11.5742 226.922 12.2148V19H224.156V6.02734H226.312L226.688 8.3125H226.816C227.074 7.85156 227.395 7.42969 227.777 7.04688C228.16 6.66406 228.598 6.35938 229.09 6.13281C229.59 5.89844 230.137 5.78125 230.73 5.78125ZM239.684 5.78125C240.84 5.78125 241.832 6.01953 242.66 6.49609C243.488 6.97266 244.125 7.64844 244.57 8.52344C245.016 9.39844 245.238 10.4453 245.238 11.6641V13.1406H236.578C236.609 14.3984 236.945 15.3672 237.586 16.0469C238.234 16.7266 239.141 17.0664 240.305 17.0664C241.133 17.0664 241.875 16.9883 242.531 16.832C243.195 16.668 243.879 16.4297 244.582 16.1172V18.3555C243.934 18.6602 243.273 18.8828 242.602 19.0234C241.93 19.1641 241.125 19.2344 240.188 19.2344C238.914 19.2344 237.793 18.9883 236.824 18.4961C235.863 17.9961 235.109 17.2539 234.562 16.2695C234.023 15.2852 233.754 14.0625 233.754 12.6016C233.754 11.1484 234 9.91406 234.492 8.89844C234.984 7.88281 235.676 7.10938 236.566 6.57812C237.457 6.04688 238.496 5.78125 239.684 5.78125ZM239.684 7.85547C238.816 7.85547 238.113 8.13672 237.574 8.69922C237.043 9.26172 236.73 10.0859 236.637 11.1719H242.543C242.535 10.5234 242.426 9.94922 242.215 9.44922C242.012 8.94922 241.699 8.55859 241.277 8.27734C240.863 7.99609 240.332 7.85547 239.684 7.85547ZM257.332 0.765625V5.34766C257.332 5.82422 257.316 6.28906 257.285 6.74219C257.262 7.19531 257.234 7.54688 257.203 7.79688H257.355C257.629 7.34375 257.965 6.97266 258.363 6.68359C258.762 6.38672 259.207 6.16406 259.699 6.01562C260.199 5.86719 260.73 5.79297 261.293 5.79297C262.285 5.79297 263.129 5.96094 263.824 6.29688C264.52 6.625 265.051 7.13672 265.418 7.83203C265.793 8.52734 265.98 9.42969 265.98 10.5391V19H263.227V11.0547C263.227 10.0469 263.02 9.29297 262.605 8.79297C262.191 8.28516 261.551 8.03125 260.684 8.03125C259.848 8.03125 259.184 8.20703 258.691 8.55859C258.207 8.90234 257.859 9.41406 257.648 10.0938C257.438 10.7656 257.332 11.5859 257.332 12.5547V19H254.578V0.765625H257.332ZM275.004 5.78125C276.16 5.78125 277.152 6.01953 277.98 6.49609C278.809 6.97266 279.445 7.64844 279.891 8.52344C280.336 9.39844 280.559 10.4453 280.559 11.6641V13.1406H271.898C271.93 14.3984 272.266 15.3672 272.906 16.0469C273.555 16.7266 274.461 17.0664 275.625 17.0664C276.453 17.0664 277.195 16.9883 277.852 16.832C278.516 16.668 279.199 16.4297 279.902 16.1172V18.3555C279.254 18.6602 278.594 18.8828 277.922 19.0234C277.25 19.1641 276.445 19.2344 275.508 19.2344C274.234 19.2344 273.113 18.9883 272.145 18.4961C271.184 17.9961 270.43 17.2539 269.883 16.2695C269.344 15.2852 269.074 14.0625 269.074 12.6016C269.074 11.1484 269.32 9.91406 269.812 8.89844C270.305 7.88281 270.996 7.10938 271.887 6.57812C272.777 6.04688 273.816 5.78125 275.004 5.78125ZM275.004 7.85547C274.137 7.85547 273.434 8.13672 272.895 8.69922C272.363 9.26172 272.051 10.0859 271.957 11.1719H277.863C277.855 10.5234 277.746 9.94922 277.535 9.44922C277.332 8.94922 277.02 8.55859 276.598 8.27734C276.184 7.99609 275.652 7.85547 275.004 7.85547ZM290.238 5.78125C290.457 5.78125 290.695 5.79297 290.953 5.81641C291.211 5.83984 291.434 5.87109 291.621 5.91016L291.363 8.48828C291.199 8.44141 290.996 8.40625 290.754 8.38281C290.52 8.35938 290.309 8.34766 290.121 8.34766C289.629 8.34766 289.16 8.42969 288.715 8.59375C288.27 8.75 287.875 8.99219 287.531 9.32031C287.188 9.64062 286.918 10.043 286.723 10.5273C286.527 11.0117 286.43 11.5742 286.43 12.2148V19H283.664V6.02734H285.82L286.195 8.3125H286.324C286.582 7.85156 286.902 7.42969 287.285 7.04688C287.668 6.66406 288.105 6.35938 288.598 6.13281C289.098 5.89844 289.645 5.78125 290.238 5.78125ZM299.191 5.78125C300.348 5.78125 301.34 6.01953 302.168 6.49609C302.996 6.97266 303.633 7.64844 304.078 8.52344C304.523 9.39844 304.746 10.4453 304.746 11.6641V13.1406H296.086C296.117 14.3984 296.453 15.3672 297.094 16.0469C297.742 16.7266 298.648 17.0664 299.812 17.0664C300.641 17.0664 301.383 16.9883 302.039 16.832C302.703 16.668 303.387 16.4297 304.09 16.1172V18.3555C303.441 18.6602 302.781 18.8828 302.109 19.0234C301.438 19.1641 300.633 19.2344 299.695 19.2344C298.422 19.2344 297.301 18.9883 296.332 18.4961C295.371 17.9961 294.617 17.2539 294.07 16.2695C293.531 15.2852 293.262 14.0625 293.262 12.6016C293.262 11.1484 293.508 9.91406 294 8.89844C294.492 7.88281 295.184 7.10938 296.074 6.57812C296.965 6.04688 298.004 5.78125 299.191 5.78125ZM299.191 7.85547C298.324 7.85547 297.621 8.13672 297.082 8.69922C296.551 9.26172 296.238 10.0859 296.145 11.1719H302.051C302.043 10.5234 301.934 9.94922 301.723 9.44922C301.52 8.94922 301.207 8.55859 300.785 8.27734C300.371 7.99609 299.84 7.85547 299.191 7.85547ZM310.23 13.7734H308.156L307.594 1.86719H310.793L310.23 13.7734ZM307.453 17.5469C307.453 16.9062 307.617 16.457 307.945 16.1992C308.281 15.9336 308.691 15.8008 309.176 15.8008C309.652 15.8008 310.059 15.9336 310.395 16.1992C310.73 16.457 310.898 16.9062 310.898 17.5469C310.898 18.1719 310.73 18.625 310.395 18.9062C310.059 19.1797 309.652 19.3164 309.176 19.3164C308.691 19.3164 308.281 19.1797 307.945 18.9062C307.617 18.625 307.453 18.1719 307.453 17.5469Z" fill="white"/>
</svg>
