<svg width="262" height="67" viewBox="0 0 262 67" fill="none" xmlns="http://www.w3.org/2000/svg">
<path d="M20.0099 24L12.5859 1.6H16.9059L23.5299 21.856H21.3859L28.2659 1.6H32.1059L38.7939 21.856H36.7139L43.4979 1.6H47.4659L40.0419 24H35.6259L29.5139 5.728H30.6659L24.4579 24H20.0099ZM54.8216 24.224C52.923 24.224 51.259 23.8507 49.8296 23.104C48.4216 22.336 47.323 21.2907 46.5336 19.968C45.7656 18.6453 45.3816 17.1413 45.3816 15.456C45.3816 13.7493 45.755 12.2453 46.5016 10.944C47.2696 9.62133 48.315 8.58667 49.6376 7.84C50.9816 7.09333 52.507 6.72 54.2136 6.72C55.8776 6.72 57.3603 7.08267 58.6616 7.808C59.963 8.53333 60.987 9.55733 61.7336 10.88C62.4803 12.2027 62.8536 13.76 62.8536 15.552C62.8536 15.7227 62.843 15.9147 62.8216 16.128C62.8216 16.3413 62.811 16.544 62.7896 16.736H48.5496V14.08H60.6776L59.1096 14.912C59.131 13.9307 58.9283 13.0667 58.5016 12.32C58.075 11.5733 57.4883 10.9867 56.7416 10.56C56.0163 10.1333 55.1736 9.92 54.2136 9.92C53.2323 9.92 52.3683 10.1333 51.6216 10.56C50.8963 10.9867 50.3203 11.584 49.8936 12.352C49.4883 13.0987 49.2856 13.984 49.2856 15.008V15.648C49.2856 16.672 49.5203 17.5787 49.9896 18.368C50.459 19.1573 51.1203 19.7653 51.9736 20.192C52.827 20.6187 53.8083 20.832 54.9176 20.832C55.8776 20.832 56.7416 20.6827 57.5096 20.384C58.2776 20.0853 58.9603 19.616 59.5576 18.976L61.7016 21.44C60.9336 22.336 59.963 23.0293 58.7896 23.52C57.6376 23.9893 56.315 24.224 54.8216 24.224ZM64.2959 24V0.255999H68.2959V24H64.2959ZM78.9859 24.224C77.1939 24.224 75.5939 23.8507 74.1859 23.104C72.7992 22.336 71.7112 21.2907 70.9219 19.968C70.1325 18.6453 69.7379 17.1413 69.7379 15.456C69.7379 13.7493 70.1325 12.2453 70.9219 10.944C71.7112 9.62133 72.7992 8.58667 74.1859 7.84C75.5939 7.09333 77.1939 6.72 78.9859 6.72C80.6499 6.72 82.1112 7.06133 83.3699 7.744C84.6499 8.40533 85.6205 9.38667 86.2819 10.688L83.2099 12.48C82.6979 11.6693 82.0685 11.072 81.3219 10.688C80.5965 10.304 79.8072 10.112 78.9539 10.112C77.9725 10.112 77.0872 10.3253 76.2979 10.752C75.5085 11.1787 74.8899 11.7973 74.4419 12.608C73.9939 13.3973 73.7699 14.3467 73.7699 15.456C73.7699 16.5653 73.9939 17.5253 74.4419 18.336C74.8899 19.1253 75.5085 19.7333 76.2979 20.16C77.0872 20.5867 77.9725 20.8 78.9539 20.8C79.8072 20.8 80.5965 20.608 81.3219 20.224C82.0685 19.84 82.6979 19.2427 83.2099 18.432L86.2819 20.224C85.6205 21.504 84.6499 22.496 83.3699 23.2C82.1112 23.8827 80.6499 24.224 78.9859 24.224ZM94.7696 24.224C93.0203 24.224 91.463 23.8507 90.0976 23.104C88.7323 22.336 87.655 21.2907 86.8656 19.968C86.0763 18.6453 85.6816 17.1413 85.6816 15.456C85.6816 13.7493 86.0763 12.2453 86.8656 10.944C87.655 9.62133 88.7323 8.58667 90.0976 7.84C91.463 7.09333 93.0203 6.72 94.7696 6.72C96.5403 6.72 98.1083 7.09333 99.4736 7.84C100.86 8.58667 101.938 9.61067 102.706 10.912C103.495 12.2133 103.89 13.728 103.89 15.456C103.89 17.1413 103.495 18.6453 102.706 19.968C101.938 21.2907 100.86 22.336 99.4736 23.104C98.1083 23.8507 96.5403 24.224 94.7696 24.224ZM94.7696 20.8C95.751 20.8 96.6256 20.5867 97.3936 20.16C98.1616 19.7333 98.759 19.1147 99.1856 18.304C99.6336 17.4933 99.8576 16.544 99.8576 15.456C99.8576 14.3467 99.6336 13.3973 99.1856 12.608C98.759 11.7973 98.1616 11.1787 97.3936 10.752C96.6256 10.3253 95.7616 10.112 94.8016 10.112C93.8203 10.112 92.9456 10.3253 92.1776 10.752C91.431 11.1787 90.8336 11.7973 90.3856 12.608C89.9376 13.3973 89.7136 14.3467 89.7136 15.456C89.7136 16.544 89.9376 17.4933 90.3856 18.304C90.8336 19.1147 91.431 19.7333 92.1776 20.16C92.9456 20.5867 93.8096 20.8 94.7696 20.8ZM126.883 6.72C128.248 6.72 129.453 6.98667 130.499 7.52C131.565 8.05333 132.397 8.87467 132.995 9.984C133.592 11.072 133.891 12.48 133.891 14.208V24H129.891V14.72C129.891 13.2053 129.56 12.0747 128.899 11.328C128.237 10.5813 127.288 10.208 126.051 10.208C125.176 10.208 124.397 10.4 123.715 10.784C123.053 11.168 122.531 11.7333 122.147 12.48C121.784 13.2267 121.603 14.176 121.603 15.328V24H117.603V14.72C117.603 13.2053 117.272 12.0747 116.611 11.328C115.949 10.5813 115 10.208 113.763 10.208C112.888 10.208 112.109 10.4 111.427 10.784C110.765 11.168 110.243 11.7333 109.859 12.48C109.496 13.2267 109.315 14.176 109.315 15.328V24H105.315V6.912H109.123V11.456L108.451 10.112C109.027 9.00267 109.859 8.16 110.947 7.584C112.056 7.008 113.315 6.72 114.723 6.72C116.323 6.72 117.709 7.11467 118.883 7.904C120.077 8.69333 120.867 9.888 121.251 11.488L119.683 10.944C120.237 9.664 121.155 8.64 122.435 7.872C123.715 7.104 125.197 6.72 126.883 6.72ZM144.665 24.224C142.767 24.224 141.103 23.8507 139.673 23.104C138.265 22.336 137.167 21.2907 136.377 19.968C135.609 18.6453 135.225 17.1413 135.225 15.456C135.225 13.7493 135.599 12.2453 136.345 10.944C137.113 9.62133 138.159 8.58667 139.481 7.84C140.825 7.09333 142.351 6.72 144.057 6.72C145.721 6.72 147.204 7.08267 148.505 7.808C149.807 8.53333 150.831 9.55733 151.577 10.88C152.324 12.2027 152.697 13.76 152.697 15.552C152.697 15.7227 152.687 15.9147 152.665 16.128C152.665 16.3413 152.655 16.544 152.633 16.736H138.393V14.08H150.521L148.953 14.912C148.975 13.9307 148.772 13.0667 148.345 12.32C147.919 11.5733 147.332 10.9867 146.585 10.56C145.86 10.1333 145.017 9.92 144.057 9.92C143.076 9.92 142.212 10.1333 141.465 10.56C140.74 10.9867 140.164 11.584 139.737 12.352C139.332 13.0987 139.129 13.984 139.129 15.008V15.648C139.129 16.672 139.364 17.5787 139.833 18.368C140.303 19.1573 140.964 19.7653 141.817 20.192C142.671 20.6187 143.652 20.832 144.761 20.832C145.721 20.832 146.585 20.6827 147.353 20.384C148.121 20.0853 148.804 19.616 149.401 18.976L151.545 21.44C150.777 22.336 149.807 23.0293 148.633 23.52C147.481 23.9893 146.159 24.224 144.665 24.224ZM167.015 24.224C165.138 24.224 163.687 23.744 162.663 22.784C161.639 21.8027 161.127 20.3627 161.127 18.464V3.136H165.127V18.368C165.127 19.1787 165.33 19.808 165.735 20.256C166.162 20.704 166.749 20.928 167.495 20.928C168.391 20.928 169.138 20.6933 169.735 20.224L170.855 23.072C170.386 23.456 169.81 23.744 169.127 23.936C168.445 24.128 167.741 24.224 167.015 24.224ZM158.311 10.24V7.04H169.703V10.24H158.311ZM178.863 24.224C177.114 24.224 175.557 23.8507 174.191 23.104C172.826 22.336 171.749 21.2907 170.959 19.968C170.17 18.6453 169.775 17.1413 169.775 15.456C169.775 13.7493 170.17 12.2453 170.959 10.944C171.749 9.62133 172.826 8.58667 174.191 7.84C175.557 7.09333 177.114 6.72 178.863 6.72C180.634 6.72 182.202 7.09333 183.567 7.84C184.954 8.58667 186.031 9.61067 186.799 10.912C187.589 12.2133 187.983 13.728 187.983 15.456C187.983 17.1413 187.589 18.6453 186.799 19.968C186.031 21.2907 184.954 22.336 183.567 23.104C182.202 23.8507 180.634 24.224 178.863 24.224ZM178.863 20.8C179.845 20.8 180.719 20.5867 181.487 20.16C182.255 19.7333 182.853 19.1147 183.279 18.304C183.727 17.4933 183.951 16.544 183.951 15.456C183.951 14.3467 183.727 13.3973 183.279 12.608C182.853 11.7973 182.255 11.1787 181.487 10.752C180.719 10.3253 179.855 10.112 178.895 10.112C177.914 10.112 177.039 10.3253 176.271 10.752C175.525 11.1787 174.927 11.7973 174.479 12.608C174.031 13.3973 173.807 14.3467 173.807 15.456C173.807 16.544 174.031 17.4933 174.479 18.304C174.927 19.1147 175.525 19.7333 176.271 20.16C177.039 20.5867 177.903 20.8 178.863 20.8ZM202.284 24.224C200.407 24.224 198.956 23.744 197.932 22.784C196.908 21.8027 196.396 20.3627 196.396 18.464V3.136H200.396V18.368C200.396 19.1787 200.599 19.808 201.004 20.256C201.431 20.704 202.017 20.928 202.764 20.928C203.66 20.928 204.407 20.6933 205.004 20.224L206.124 23.072C205.655 23.456 205.079 23.744 204.396 23.936C203.713 24.128 203.009 24.224 202.284 24.224ZM193.58 10.24V7.04H204.972V10.24H193.58ZM216.711 6.72C218.076 6.72 219.292 6.98667 220.359 7.52C221.447 8.05333 222.3 8.87467 222.919 9.984C223.537 11.072 223.847 12.48 223.847 14.208V24H219.847V14.72C219.847 13.2053 219.484 12.0747 218.759 11.328C218.055 10.5813 217.063 10.208 215.783 10.208C214.844 10.208 214.012 10.4 213.287 10.784C212.561 11.168 211.996 11.744 211.591 12.512C211.207 13.2587 211.015 14.208 211.015 15.36V24H207.015V0.255999H211.015V11.52L210.151 10.112C210.748 9.024 211.612 8.192 212.743 7.616C213.895 7.01867 215.217 6.72 216.711 6.72ZM234.584 24.224C232.685 24.224 231.021 23.8507 229.592 23.104C228.184 22.336 227.085 21.2907 226.296 19.968C225.528 18.6453 225.144 17.1413 225.144 15.456C225.144 13.7493 225.517 12.2453 226.264 10.944C227.032 9.62133 228.077 8.58667 229.4 7.84C230.744 7.09333 232.269 6.72 233.976 6.72C235.64 6.72 237.123 7.08267 238.424 7.808C239.725 8.53333 240.749 9.55733 241.496 10.88C242.243 12.2027 242.616 13.76 242.616 15.552C242.616 15.7227 242.605 15.9147 242.584 16.128C242.584 16.3413 242.573 16.544 242.552 16.736H228.312V14.08H240.44L238.872 14.912C238.893 13.9307 238.691 13.0667 238.264 12.32C237.837 11.5733 237.251 10.9867 236.504 10.56C235.779 10.1333 234.936 9.92 233.976 9.92C232.995 9.92 232.131 10.1333 231.384 10.56C230.659 10.9867 230.083 11.584 229.656 12.352C229.251 13.0987 229.048 13.984 229.048 15.008V15.648C229.048 16.672 229.283 17.5787 229.752 18.368C230.221 19.1573 230.883 19.7653 231.736 20.192C232.589 20.6187 233.571 20.832 234.68 20.832C235.64 20.832 236.504 20.6827 237.272 20.384C238.04 20.0853 238.723 19.616 239.32 18.976L241.464 21.44C240.696 22.336 239.725 23.0293 238.552 23.52C237.4 23.9893 236.077 24.224 234.584 24.224ZM0.061878 60L10.1419 37.6H14.2379L24.3499 60H19.9979L11.3259 39.808H12.9899L4.34988 60H0.061878ZM4.70188 54.816L5.82188 51.552H17.9179L19.0379 54.816H4.70188ZM24.4146 60V42.912H28.4146V60H24.4146ZM26.4306 40.096C25.684 40.096 25.0653 39.8613 24.5746 39.392C24.1053 38.9227 23.8706 38.3573 23.8706 37.696C23.8706 37.0133 24.1053 36.448 24.5746 36C25.0653 35.5307 25.684 35.296 26.4306 35.296C27.1773 35.296 27.7853 35.52 28.2546 35.968C28.7453 36.3947 28.9906 36.9387 28.9906 37.6C28.9906 38.304 28.756 38.9013 28.2866 39.392C27.8173 39.8613 27.1986 40.096 26.4306 40.096ZM36.5446 60.224C35.1153 60.224 33.7393 60.0427 32.4166 59.68C31.1153 59.296 30.0806 58.8373 29.3126 58.304L30.8486 55.264C31.6166 55.7547 32.534 56.16 33.6006 56.48C34.6673 56.8 35.734 56.96 36.8006 56.96C38.0593 56.96 38.966 56.7893 39.5206 56.448C40.0966 56.1067 40.3846 55.648 40.3846 55.072C40.3846 54.6027 40.1926 54.2507 39.8086 54.016C39.4246 53.76 38.9233 53.568 38.3046 53.44C37.686 53.312 36.9926 53.1947 36.2246 53.088C35.478 52.9813 34.7206 52.8427 33.9526 52.672C33.206 52.48 32.5233 52.2133 31.9046 51.872C31.286 51.5093 30.7846 51.0293 30.4006 50.432C30.0166 49.8347 29.8246 49.0453 29.8246 48.064C29.8246 46.976 30.134 46.0373 30.7526 45.248C31.3713 44.4373 32.2353 43.8187 33.3446 43.392C34.4753 42.944 35.8086 42.72 37.3446 42.72C38.4966 42.72 39.6593 42.848 40.8326 43.104C42.006 43.36 42.9766 43.7227 43.7446 44.192L42.2086 47.232C41.398 46.7413 40.5766 46.4107 39.7446 46.24C38.934 46.048 38.1233 45.952 37.3126 45.952C36.0966 45.952 35.19 46.1333 34.5926 46.496C34.0166 46.8587 33.7286 47.3173 33.7286 47.872C33.7286 48.384 33.9206 48.768 34.3046 49.024C34.6886 49.28 35.19 49.4827 35.8086 49.632C36.4273 49.7813 37.11 49.9093 37.8566 50.016C38.6246 50.1013 39.382 50.24 40.1286 50.432C40.8753 50.624 41.558 50.8907 42.1766 51.232C42.8166 51.552 43.3286 52.0107 43.7126 52.608C44.0966 53.2053 44.2886 53.984 44.2886 54.944C44.2886 56.0107 43.9686 56.9387 43.3286 57.728C42.71 58.5173 41.8246 59.136 40.6726 59.584C39.5206 60.0107 38.1446 60.224 36.5446 60.224ZM55.0294 42.72C56.3947 42.72 57.6107 42.9867 58.6774 43.52C59.7654 44.0533 60.6187 44.8747 61.2374 45.984C61.856 47.072 62.1654 48.48 62.1654 50.208V60H58.1654V50.72C58.1654 49.2053 57.8027 48.0747 57.0774 47.328C56.3734 46.5813 55.3814 46.208 54.1014 46.208C53.1627 46.208 52.3307 46.4 51.6054 46.784C50.88 47.168 50.3147 47.744 49.9094 48.512C49.5254 49.2587 49.3334 50.208 49.3334 51.36V60H45.3334V36.256H49.3334V47.52L48.4694 46.112C49.0667 45.024 49.9307 44.192 51.0614 43.616C52.2134 43.0187 53.536 42.72 55.0294 42.72ZM75.3676 60V56.544L75.1436 55.808V49.76C75.1436 48.5867 74.7916 47.68 74.0876 47.04C73.3836 46.3787 72.317 46.048 70.8876 46.048C69.9276 46.048 68.9783 46.1973 68.0396 46.496C67.1223 46.7947 66.3436 47.2107 65.7036 47.744L64.1356 44.832C65.053 44.128 66.141 43.6053 67.3996 43.264C68.6796 42.9013 70.0023 42.72 71.3676 42.72C73.8423 42.72 75.7516 43.3173 77.0956 44.512C78.461 45.6853 79.1436 47.5093 79.1436 49.984V60H75.3676ZM69.9916 60.224C68.7116 60.224 67.5916 60.0107 66.6316 59.584C65.6716 59.136 64.925 58.528 64.3916 57.76C63.8796 56.9707 63.6236 56.0853 63.6236 55.104C63.6236 54.144 63.8476 53.28 64.2956 52.512C64.765 51.744 65.5223 51.136 66.5676 50.688C67.613 50.24 68.9996 50.016 70.7276 50.016H75.6876V52.672H71.0156C69.6503 52.672 68.733 52.896 68.2636 53.344C67.7943 53.7707 67.5596 54.304 67.5596 54.944C67.5596 55.6693 67.8476 56.2453 68.4236 56.672C68.9996 57.0987 69.7996 57.312 70.8236 57.312C71.805 57.312 72.6796 57.088 73.4476 56.64C74.237 56.192 74.8023 55.5307 75.1436 54.656L75.8156 57.056C75.4316 58.0587 74.7383 58.8373 73.7356 59.392C72.7543 59.9467 71.5063 60.224 69.9916 60.224ZM99.0729 60.32C97.3662 60.32 95.7769 60.0427 94.3049 59.488C92.8542 58.912 91.5849 58.112 90.4969 57.088C89.4302 56.0427 88.5982 54.816 88.0009 53.408C87.4035 52 87.1049 50.464 87.1049 48.8C87.1049 47.136 87.4035 45.6 88.0009 44.192C88.5982 42.784 89.4409 41.568 90.5289 40.544C91.6169 39.4987 92.8862 38.6987 94.3369 38.144C95.7875 37.568 97.3769 37.28 99.1049 37.28C100.94 37.28 102.614 37.6 104.129 38.24C105.644 38.8587 106.924 39.7867 107.969 41.024L105.281 43.552C104.47 42.6773 103.564 42.0267 102.561 41.6C101.558 41.152 100.47 40.928 99.2969 40.928C98.1235 40.928 97.0462 41.12 96.0649 41.504C95.1049 41.888 94.2622 42.432 93.5369 43.136C92.8329 43.84 92.2782 44.672 91.8729 45.632C91.4889 46.592 91.2969 47.648 91.2969 48.8C91.2969 49.952 91.4889 51.008 91.8729 51.968C92.2782 52.928 92.8329 53.76 93.5369 54.464C94.2622 55.168 95.1049 55.712 96.0649 56.096C97.0462 56.48 98.1235 56.672 99.2969 56.672C100.47 56.672 101.558 56.4587 102.561 56.032C103.564 55.584 104.47 54.912 105.281 54.016L107.969 56.576C106.924 57.792 105.644 58.72 104.129 59.36C102.614 60 100.929 60.32 99.0729 60.32ZM116.195 60.224C114.445 60.224 112.888 59.8507 111.523 59.104C110.157 58.336 109.08 57.2907 108.291 55.968C107.501 54.6453 107.107 53.1413 107.107 51.456C107.107 49.7493 107.501 48.2453 108.291 46.944C109.08 45.6213 110.157 44.5867 111.523 43.84C112.888 43.0933 114.445 42.72 116.195 42.72C117.965 42.72 119.533 43.0933 120.899 43.84C122.285 44.5867 123.363 45.6107 124.131 46.912C124.92 48.2133 125.315 49.728 125.315 51.456C125.315 53.1413 124.92 54.6453 124.131 55.968C123.363 57.2907 122.285 58.336 120.899 59.104C119.533 59.8507 117.965 60.224 116.195 60.224ZM116.195 56.8C117.176 56.8 118.051 56.5867 118.819 56.16C119.587 55.7333 120.184 55.1147 120.611 54.304C121.059 53.4933 121.283 52.544 121.283 51.456C121.283 50.3467 121.059 49.3973 120.611 48.608C120.184 47.7973 119.587 47.1787 118.819 46.752C118.051 46.3253 117.187 46.112 116.227 46.112C115.245 46.112 114.371 46.3253 113.603 46.752C112.856 47.1787 112.259 47.7973 111.811 48.608C111.363 49.3973 111.139 50.3467 111.139 51.456C111.139 52.544 111.363 53.4933 111.811 54.304C112.259 55.1147 112.856 55.7333 113.603 56.16C114.371 56.5867 115.235 56.8 116.195 56.8ZM148.308 42.72C149.673 42.72 150.878 42.9867 151.924 43.52C152.99 44.0533 153.822 44.8747 154.42 45.984C155.017 47.072 155.316 48.48 155.316 50.208V60H151.316V50.72C151.316 49.2053 150.985 48.0747 150.324 47.328C149.662 46.5813 148.713 46.208 147.476 46.208C146.601 46.208 145.822 46.4 145.14 46.784C144.478 47.168 143.956 47.7333 143.572 48.48C143.209 49.2267 143.028 50.176 143.028 51.328V60H139.028V50.72C139.028 49.2053 138.697 48.0747 138.036 47.328C137.374 46.5813 136.425 46.208 135.188 46.208C134.313 46.208 133.534 46.4 132.852 46.784C132.19 47.168 131.668 47.7333 131.284 48.48C130.921 49.2267 130.74 50.176 130.74 51.328V60H126.74V42.912H130.548V47.456L129.876 46.112C130.452 45.0027 131.284 44.16 132.372 43.584C133.481 43.008 134.74 42.72 136.148 42.72C137.748 42.72 139.134 43.1147 140.308 43.904C141.502 44.6933 142.292 45.888 142.676 47.488L141.108 46.944C141.662 45.664 142.58 44.64 143.86 43.872C145.14 43.104 146.622 42.72 148.308 42.72ZM179.595 42.72C180.96 42.72 182.166 42.9867 183.211 43.52C184.278 44.0533 185.11 44.8747 185.707 45.984C186.304 47.072 186.603 48.48 186.603 50.208V60H182.603V50.72C182.603 49.2053 182.272 48.0747 181.611 47.328C180.95 46.5813 180 46.208 178.763 46.208C177.888 46.208 177.11 46.4 176.427 46.784C175.766 47.168 175.243 47.7333 174.859 48.48C174.496 49.2267 174.315 50.176 174.315 51.328V60H170.315V50.72C170.315 49.2053 169.984 48.0747 169.323 47.328C168.662 46.5813 167.712 46.208 166.475 46.208C165.6 46.208 164.822 46.4 164.139 46.784C163.478 47.168 162.955 47.7333 162.571 48.48C162.208 49.2267 162.027 50.176 162.027 51.328V60H158.027V42.912H161.835V47.456L161.163 46.112C161.739 45.0027 162.571 44.16 163.659 43.584C164.768 43.008 166.027 42.72 167.435 42.72C169.035 42.72 170.422 43.1147 171.595 43.904C172.79 44.6933 173.579 45.888 173.963 47.488L172.395 46.944C172.95 45.664 173.867 44.64 175.147 43.872C176.427 43.104 177.91 42.72 179.595 42.72ZM196.547 60.224C195.096 60.224 193.816 59.9573 192.707 59.424C191.597 58.8693 190.733 58.0373 190.115 56.928C189.496 55.7973 189.187 54.3787 189.187 52.672V42.912H193.187V52.128C193.187 53.664 193.528 54.816 194.211 55.584C194.915 56.3307 195.907 56.704 197.187 56.704C198.125 56.704 198.936 56.512 199.619 56.128C200.323 55.744 200.867 55.168 201.251 54.4C201.656 53.632 201.859 52.6827 201.859 51.552V42.912H205.859V60H202.051V55.392L202.723 56.8C202.147 57.9093 201.304 58.7627 200.195 59.36C199.085 59.936 197.869 60.224 196.547 60.224ZM218.392 42.72C219.757 42.72 220.973 42.9867 222.04 43.52C223.128 44.0533 223.981 44.8747 224.6 45.984C225.219 47.072 225.528 48.48 225.528 50.208V60H221.528V50.72C221.528 49.2053 221.165 48.0747 220.44 47.328C219.736 46.5813 218.744 46.208 217.464 46.208C216.525 46.208 215.693 46.4 214.968 46.784C214.243 47.168 213.677 47.744 213.272 48.512C212.888 49.2587 212.696 50.208 212.696 51.36V60H208.696V42.912H212.504V47.52L211.832 46.112C212.429 45.024 213.293 44.192 214.424 43.616C215.576 43.0187 216.899 42.72 218.392 42.72ZM228.202 60V42.912H232.202V60H228.202ZM230.218 40.096C229.471 40.096 228.853 39.8613 228.362 39.392C227.893 38.9227 227.658 38.3573 227.658 37.696C227.658 37.0133 227.893 36.448 228.362 36C228.853 35.5307 229.471 35.296 230.218 35.296C230.965 35.296 231.573 35.52 232.042 35.968C232.533 36.3947 232.778 36.9387 232.778 37.6C232.778 38.304 232.543 38.9013 232.074 39.392C231.605 39.8613 230.986 40.096 230.218 40.096ZM241.484 60.224C239.607 60.224 238.156 59.744 237.132 58.784C236.108 57.8027 235.596 56.3627 235.596 54.464V39.136H239.596V54.368C239.596 55.1787 239.799 55.808 240.204 56.256C240.631 56.704 241.217 56.928 241.964 56.928C242.86 56.928 243.607 56.6933 244.204 56.224L245.324 59.072C244.855 59.456 244.279 59.744 243.596 59.936C242.913 60.128 242.209 60.224 241.484 60.224ZM232.78 46.24V43.04H244.172V46.24H232.78ZM247.31 66.432C246.478 66.432 245.646 66.2933 244.814 66.016C243.982 65.7387 243.289 65.3547 242.734 64.864L244.334 61.92C244.739 62.2827 245.198 62.5707 245.71 62.784C246.222 62.9973 246.745 63.104 247.278 63.104C248.003 63.104 248.59 62.9227 249.038 62.56C249.486 62.1973 249.902 61.5893 250.286 60.736L251.278 58.496L251.598 58.016L258.062 42.912H261.902L253.902 61.376C253.369 62.656 252.771 63.6693 252.11 64.416C251.47 65.1627 250.745 65.6853 249.934 65.984C249.145 66.2827 248.27 66.432 247.31 66.432ZM250.83 60.608L243.118 42.912H247.278L253.55 57.664L250.83 60.608Z" fill="white"/>
</svg>
