<svg width="206" height="33" viewBox="0 0 206 33" fill="none" xmlns="http://www.w3.org/2000/svg">
<g clip-path="url(#clip0_871_4687)">
<path d="M75.6501 9.84332C75.6501 9.84332 75.341 7.58117 74.3888 6.58787C73.1831 5.28056 71.8352 5.27415 71.2169 5.19725C66.7899 4.86401 60.1431 4.86401 60.1431 4.86401H60.1308C60.1308 4.86401 53.484 4.86401 49.057 5.19725C48.4387 5.27415 47.0908 5.28056 45.8851 6.58787C44.9329 7.58117 44.6299 9.84332 44.6299 9.84332C44.6299 9.84332 44.3084 12.5028 44.3084 15.1559V17.6423C44.3084 20.2954 44.6238 22.9549 44.6238 22.9549C44.6238 22.9549 44.9329 25.217 45.8789 26.2103C47.0846 27.5176 48.6675 27.4728 49.3723 27.6137C51.9074 27.8637 60.1369 27.9406 60.1369 27.9406C60.1369 27.9406 66.7899 27.9278 71.2169 27.6009C71.8352 27.524 73.1831 27.5176 74.3888 26.2103C75.341 25.217 75.6501 22.9549 75.6501 22.9549C75.6501 22.9549 75.9655 20.3018 75.9655 17.6423V15.1559C75.9655 12.5028 75.6501 9.84332 75.6501 9.84332ZM56.8661 20.6607V11.439L65.4172 16.0659L56.8661 20.6607Z" fill="white"/>
</g>
<g clip-path="url(#clip1_871_4687)">
<path d="M120.273 17.1713C120.273 8.42944 113.187 1.34277 104.445 1.34277C95.703 1.34277 88.6163 8.42944 88.6163 17.1713C88.6163 25.0716 94.4045 31.6201 101.972 32.8075V21.7467H97.9527V17.1713H101.972V13.6841C101.972 9.71705 104.335 7.52579 107.95 7.52579C109.682 7.52579 111.493 7.83494 111.493 7.83494V11.7302H109.498C107.531 11.7302 106.918 12.9505 106.918 14.2034V17.1713H111.308L110.606 21.7467H106.918V32.8075C114.485 31.6201 120.273 25.0716 120.273 17.1713Z" fill="white"/>
</g>
<g clip-path="url(#clip2_871_4687)">
<path d="M162.238 1.34277H135.262C133.97 1.34277 132.925 2.36297 132.925 3.62431V30.7121C132.925 31.9734 133.97 32.9998 135.262 32.9998H162.238C163.531 32.9998 164.582 31.9734 164.582 30.7183V3.62431C164.582 2.36297 163.531 1.34277 162.238 1.34277ZM142.317 28.3193H137.618V13.208H142.317V28.3193ZM139.967 11.149C138.459 11.149 137.24 9.93098 137.24 8.42851C137.24 6.92603 138.459 5.70798 139.967 5.70798C141.47 5.70798 142.688 6.92603 142.688 8.42851C142.688 9.9248 141.47 11.149 139.967 11.149ZM159.901 28.3193H155.208V20.9738C155.208 19.224 155.177 16.9672 152.766 16.9672C150.324 16.9672 149.953 18.8778 149.953 20.8502V28.3193H145.266V13.208H149.767V15.2731H149.829C150.454 14.086 151.987 12.8308 154.268 12.8308C159.023 12.8308 159.901 15.9594 159.901 20.0278V28.3193Z" fill="white"/>
</g>
<g clip-path="url(#clip3_871_4687)">
<path d="M196.5 1.34277H191.164V22.9062C191.164 25.4755 189.113 27.586 186.559 27.586C184.005 27.586 181.953 25.4755 181.953 22.9062C181.953 20.3829 183.96 18.3182 186.422 18.2265V12.8127C180.996 12.9044 176.618 17.3548 176.618 22.9062C176.618 28.5036 181.087 32.9998 186.605 32.9998C192.122 32.9998 196.591 28.4577 196.591 22.9062V11.8492C198.597 13.3174 201.06 14.1891 203.659 14.235V8.82117C199.646 8.68354 196.5 5.38019 196.5 1.34277Z" fill="white"/>
</g>
<g clip-path="url(#clip4_871_4687)">
<path d="M15.8285 4.19314C20.0577 4.19314 20.5585 4.21169 22.2218 4.28589C23.7675 4.3539 24.6022 4.61359 25.1587 4.82999C25.8945 5.11441 26.4262 5.46066 26.9765 6.01095C27.533 6.56742 27.873 7.09298 28.1574 7.82875C28.3739 8.38523 28.6335 9.22612 28.7016 10.7657C28.7757 12.4351 28.7943 12.9359 28.7943 17.1589C28.7943 21.3881 28.7757 21.8889 28.7016 23.5522C28.6335 25.0979 28.3739 25.9326 28.1574 26.4891C27.873 27.2249 27.5268 27.7566 26.9765 28.3069C26.42 28.8634 25.8945 29.2034 25.1587 29.4879C24.6022 29.7043 23.7613 29.9639 22.2218 30.032C20.5523 30.1062 20.0515 30.1247 15.8285 30.1247C11.5993 30.1247 11.0985 30.1062 9.43528 30.032C7.88953 29.9639 7.05482 29.7043 6.49835 29.4879C5.76257 29.2034 5.23083 28.8572 4.68054 28.3069C4.12407 27.7504 3.784 27.2249 3.49959 26.4891C3.28318 25.9326 3.02349 25.0917 2.95548 23.5522C2.88128 21.8827 2.86274 21.3819 2.86274 17.1589C2.86274 12.9297 2.88128 12.4289 2.95548 10.7657C3.02349 9.21993 3.28318 8.38523 3.49959 7.82875C3.784 7.09298 4.13025 6.56124 4.68054 6.01095C5.23701 5.45448 5.76257 5.11441 6.49835 4.82999C7.05482 4.61359 7.89571 4.3539 9.43528 4.28589C11.0985 4.21169 11.5993 4.19314 15.8285 4.19314ZM15.8285 1.34277C11.5313 1.34277 10.9934 1.36132 9.30544 1.43552C7.62366 1.50971 6.46743 1.78177 5.46578 2.1713C4.42086 2.57938 3.53668 3.1173 2.6587 4.00147C1.77453 4.87946 1.2366 5.76363 0.828524 6.80237C0.438994 7.81021 0.166941 8.96025 0.0927452 10.642C0.018549 12.3362 0 12.8741 0 17.1713C0 21.4685 0.018549 22.0064 0.0927452 23.6944C0.166941 25.3761 0.438994 26.5324 0.828524 27.534C1.2366 28.5789 1.77453 29.4631 2.6587 30.3411C3.53668 31.2191 4.42086 31.7632 5.4596 32.1651C6.46743 32.5546 7.61747 32.8267 9.29925 32.9009C10.9872 32.9751 11.5251 32.9936 15.8223 32.9936C20.1195 32.9936 20.6574 32.9751 22.3454 32.9009C24.0272 32.8267 25.1834 32.5546 26.1851 32.1651C27.2238 31.7632 28.108 31.2191 28.986 30.3411C29.864 29.4631 30.4081 28.579 30.81 27.5402C31.1995 26.5324 31.4715 25.3823 31.5457 23.7006C31.6199 22.0126 31.6385 21.4747 31.6385 17.1775C31.6385 12.8803 31.6199 12.3424 31.5457 10.6544C31.4715 8.97261 31.1995 7.81639 30.81 6.81474C30.4204 5.76363 29.8825 4.87946 28.9983 4.00147C28.1203 3.12348 27.2362 2.57938 26.1974 2.17748C25.1896 1.78795 24.0396 1.5159 22.3578 1.4417C20.6636 1.36132 20.1257 1.34277 15.8285 1.34277Z" fill="white"/>
<path d="M15.8285 9.04062C11.3396 9.04062 7.69785 12.6824 7.69785 17.1713C7.69785 21.6601 11.3396 25.3019 15.8285 25.3019C20.3174 25.3019 23.9592 21.6601 23.9592 17.1713C23.9592 12.6824 20.3174 9.04062 15.8285 9.04062ZM15.8285 22.4454C12.9163 22.4454 10.5544 20.0835 10.5544 17.1713C10.5544 14.2591 12.9163 11.8972 15.8285 11.8972C18.7407 11.8972 21.1026 14.2591 21.1026 17.1713C21.1026 20.0835 18.7407 22.4454 15.8285 22.4454Z" fill="white"/>
<path d="M26.1789 8.71905C26.1789 9.77016 25.3256 10.6172 24.2807 10.6172C23.2296 10.6172 22.3825 9.76398 22.3825 8.71905C22.3825 7.66794 23.2358 6.82086 24.2807 6.82086C25.3256 6.82086 26.1789 7.67412 26.1789 8.71905Z" fill="white"/>
</g>
<defs>
<clipPath id="clip0_871_4687">
<rect width="31.657" height="32.8109" fill="white" transform="translate(44.3084)"/>
</clipPath>
<clipPath id="clip1_871_4687">
<rect width="31.657" height="31.657" fill="white" transform="translate(88.6163 1.34277)"/>
</clipPath>
<clipPath id="clip2_871_4687">
<rect width="31.657" height="31.657" fill="white" transform="translate(132.925 1.34277)"/>
</clipPath>
<clipPath id="clip3_871_4687">
<rect width="31.657" height="31.657" fill="white" transform="translate(173.98 1.34277)"/>
</clipPath>
<clipPath id="clip4_871_4687">
<rect width="31.657" height="31.657" fill="white" transform="translate(0 1.34277)"/>
</clipPath>
</defs>
</svg>
